{
.appVersion = "1247";
DisplayStrings = (
A,
I,
i,
l,
U,
H,
B,
u
);
classes = (
{
code = "A Aring Adieresis Agrave Atilde Acircumflex Aacute";
name = "@KERN_LEFT_A";
},
{
code = "ecircumflex odieresis ograve cdotaccent c edieresis eacute ccedilla edotaccent ecaron egrave e d oe o dcaron q ocircumflex oacute";
name = "@KERN_RIGHT_c";
},
{
code = "icircumflex i idieresis iacute igrave";
name = "@KERN_RIGHT_i";
},
{
code = "wgrave wcircumflex w wacute v wdieresis";
name = "@KERN_LEFT_v";
},
{
code = "Ycircumflex Y Ydieresis Yacute Ygrave";
name = "@KERN_LEFT_Y";
},
{
code = "Wgrave Wcircumflex W Wacute V Wdieresis";
name = "@KERN_RIGHT_V";
},
{
code = "ycircumflex y ydieresis yacute ygrave";
name = "@KERN_RIGHT_y";
},
{
code = "udieresis nacute uacute rcaron uring ugrave rcaron.ss01 racute.ss01 u racute m n ntilde r ucircumflex r.ss01 ncaron";
name = "@KERN_RIGHT_m";
},
{
code = "wgrave wcircumflex w g wacute v wdieresis";
name = "@KERN_RIGHT_g";
},
{
code = "a aring ae aacute agrave atilde acircumflex adieresis";
name = "@KERN_RIGHT_a";
},
{
code = "Udieresis Ugrave Ucircumflex Uacute U Uring";
name = "@KERN_RIGHT_U";
},
{
code = "two.dnom seven.dnom three.dnom";
name = "@KERN_RIGHT_seven.dnom";
},
{
code = "Wgrave Wcircumflex W Wacute V Wdieresis";
name = "@KERN_LEFT_V";
},
{
code = "C Odieresis G Ograve OE Cacute Otilde Ccaron Q O Ccircumflex Ccedilla Ocircumflex Oacute";
name = "@KERN_RIGHT_C";
},
{
code = "";
name = "@KERN_RIGHT__empty_lu.3_st.0_cl.0";
},
{
code = "T Tcaron";
name = "@KERN_RIGHT_T";
},
{
code = "six.numr three.numr two.numr four.numr nine.numr five.numr one.numr eight.numr";
name = "@KERN_LEFT_eight.numr";
},
{
code = "ecaron egrave b ecircumflex ograve oe o edieresis eacute e edotaccent oacute";
name = "@KERN_LEFT_b";
},
{
code = "Racute Egrave B E D F I H K L N P Ntilde R Idieresis Edieresis Ecircumflex Iacute Rcaron Igrave Icircumflex Eacute";
name = "@KERN_RIGHT_B";
},
{
code = "T Tcaron";
name = "@KERN_LEFT_T";
},
{

glyphs = (
{
glyphname = A;
lastChange = "2019-07-27 02:41:47 +0000";
layers = (
{
layerId = master01;
paths = (
{
closed = 1;
nodes = (
"722 0 LINE",
"647 67 LINE",
"377 695 LINE",
"330 695 LINE",
"76 79 LINE",
"5 0 LINE",
"226 0 LINE",
"131 78 LINE",
"185 214 LINE",
"445 214 LINE",
"506 69 LINE",
"414 0 LINE"
);
},
{
closed = 1;
nodes = (
"427 259 LINE",
"203 259 LINE",
"313 533 LINE"
);
}
);
width = 727;
},
{
layerId = "E2F25E8D-4609-4642-A608-BE80737248C7";
paths = (
{
closed = 1;
nodes = (
"722 0 LINE",
"647 37 LINE",
"369 695 LINE",
"334 695 LINE",
"69 49 LINE",
"5 0 LINE",
"156 0 LINE",
"101 48 LINE",
"155 214 LINE",
"525 214 LINE",
"586 39 LINE",
"554 0 LINE"
);
},
{
closed = 1;
nodes = (
"507 243 LINE",
"173 243 LINE",
"348 664 LINE"
);
}
);
width = 727;
}
);
unicode = 0041;
},
{
glyphname = Aacute;
lastChange = "2019-07-27 02:39:24 +0000";
layers = (
{
layerId = master01;
paths = (
{
closed = 1;
nodes = (
"490 869 LINE",
"359 869 LINE",
"346 740 LINE",
"361 740 LINE"
);
},
{
closed = 1;
nodes = (
"452 214 LINE",
"513 69 LINE",
"421 0 LINE",
"729 0 LINE",
"654 67 LINE",
"384 695 LINE",
"337 695 LINE",
"83 79 LINE",
"12 0 LINE",
"233 0 LINE",
"138 78 LINE",
"192 214 LINE"
);
},
{
closed = 1;
nodes = (
"208 254 LINE",
"320 533 LINE",
"436 254 LINE"
);
}
);
width = 730;
},
{
layerId = "E2F25E8D-4609-4642-A608-BE80737248C7";
paths = (
{
closed = 1;
nodes = (
"490 869 LINE",
"359 869 LINE",
"346 740 LINE",
"361 740 LINE"
);
},
{
closed = 1;
nodes = (
"452 214 LINE",
"513 69 LINE",
"421 0 LINE",
"729 0 LINE",
"654 67 LINE",
"384 695 LINE",
"337 695 LINE",
"83 79 LINE",
"12 0 LINE",
"233 0 LINE",
"138 78 LINE",
"192 214 LINE"
);
},
{
closed = 1;
nodes = (
"208 254 LINE",
"320 533 LINE",
"436 254 LINE"
);
}
);
width = 730;
}
);
unicode = 00C1;
},
{
glyphname = Acircumflex;
lastChange = "2019-07-27 02:39:24 +0000";
layers = (
{
layerId = master01;
paths = (
{
closed = 1;
nodes = (
"273 740 LINE",
"362 810 LINE",
"451 740 LINE",
"466 740 LINE",
"403 869 LINE",
"320 869 LINE",
"258 740 LINE"
);
},
{
closed = 1;
nodes = (
"452 214 LINE",
"513 69 LINE",
"421 0 LINE",
"729 0 LINE",
"654 67 LINE",
"384 695 LINE",
"337 695 LINE",
"83 79 LINE",
"12 0 LINE",
"233 0 LINE",
"138 78 LINE",
"192 214 LINE"
);
},
{
closed = 1;
nodes = (
"208 254 LINE",
"320 533 LINE",
"436 254 LINE"
);
}
);
width = 730;
},
{
layerId = "E2F25E8D-4609-4642-A608-BE80737248C7";
paths = (
{
closed = 1;
nodes = (
"273 740 LINE",
"362 810 LINE",
"451 740 LINE",
"466 740 LINE",
"403 869 LINE",
"320 869 LINE",
"258 740 LINE"
);
},
{
closed = 1;
nodes = (
"452 214 LINE",
"513 69 LINE",
"421 0 LINE",
"729 0 LINE",
"654 67 LINE",
"384 695 LINE",
"337 695 LINE",
"83 79 LINE",
"12 0 LINE",
"233 0 LINE",
"138 78 LINE",
"192 214 LINE"
);
},
{
closed = 1;
nodes = (
"208 254 LINE",
"320 533 LINE",
"436 254 LINE"
);
}
);
width = 730;
}
);
unicode = 00C2;
},
{
glyphname = Adieresis;
lastChange = "2019-07-27 02:39:24 +0000";
layers = (
{
layerId = master01;
paths = (
{
closed = 1;
nodes = (
"236 742 LINE",
"313 830 LINE",
"236 917 LINE",
"159 830 LINE"
);
},
{
closed = 1;
nodes = (
"470 742 LINE",
"546 830 LINE",
"470 917 LINE",
"392 830 LINE"
);
},
{
closed = 1;
nodes = (
"452 214 LINE",
"513 69 LINE",
"421 0 LINE",
"729 0 LINE",
"654 67 LINE",
"384 695 LINE",
"337 695 LINE",
"83 79 LINE",
"12 0 LINE",
"233 0 LINE",
"138 78 LINE",
"192 214 LINE"
);
},
{
closed = 1;
nodes = (
"208 254 LINE",
"320 533 LINE",
"436 254 LINE"
);
}
);
width = 730;
},
{
layerId = "E2F25E8D-4609-4642-A608-BE80737248C7";
paths = (
{
closed = 1;
nodes = (
"236 742 LINE",
"313 830 LINE",
"236 917 LINE",
"159 830 LINE"
);
},
{
closed = 1;
nodes = (
"470 742 LINE",
"546 830 LINE",
"470 917 LINE",
"392 830 LINE"
);
},
{
closed = 1;
nodes = (
"452 214 LINE",
"513 69 LINE",
"421 0 LINE",
"729 0 LINE",
"654 67 LINE",
"384 695 LINE",
"337 695 LINE",
"83 79 LINE",
"12 0 LINE",
"233 0 LINE",
"138 78 LINE",
"192 214 LINE"
);
},
{
closed = 1;
nodes = (
"208 254 LINE",
"320 533 LINE",
"436 254 LINE"
);
}
);
width = 730;
}
);
unicode = 00C4;
},
{
glyphname = Agrave;
lastChange = "2019-07-27 02:39:24 +0000";
layers = (
{
layerId = master01;
paths = (
{
closed = 1;
nodes = (
"368 740 LINE",
"355 869 LINE",
"224 869 LINE",
"353 740 LINE"
);
},
{
closed = 1;
nodes = (
"452 214 LINE",
"513 69 LINE",
"421 0 LINE",
"729 0 LINE",
"654 67 LINE",
"384 695 LINE",
"337 695 LINE",
"83 79 LINE",
"12 0 LINE",
"233 0 LINE",
"138 78 LINE",
"192 214 LINE"
);
},
{
closed = 1;
nodes = (
"208 254 LINE",
"320 533 LINE",
"436 254 LINE"
);
}
);
width = 730;
},
{
layerId = "E2F25E8D-4609-4642-A608-BE80737248C7";
paths = (
{
closed = 1;
nodes = (
"368 740 LINE",
"355 869 LINE",
"224 869 LINE",
"353 740 LINE"
);
},
{
closed = 1;
nodes = (
"452 214 LINE",
"513 69 LINE",
"421 0 LINE",
"729 0 LINE",
"654 67 LINE",
"384 695 LINE",
"337 695 LINE",
"83 79 LINE",
"12 0 LINE",
"233 0 LINE",
"138 78 LINE",
"192 214 LINE"
);
},
{
closed = 1;
nodes = (
"208 254 LINE",
"320 533 LINE",
"436 254 LINE"
);
}
);
width = 730;
}
);
unicode = 00C0;
},
{
glyphname = Aring;
lastChange = "2019-07-27 02:39:24 +0000";
layers = (
{
layerId = master01;
paths = (
{
closed = 1;
nodes = (
"262 775 OFFCURVE",
"306 731 OFFCURVE",
"360 731 CURVE SMOOTH",
"414 731 OFFCURVE",
"458 775 OFFCURVE",
"458 829 CURVE SMOOTH",
"458 883 OFFCURVE",
"414 927 OFFCURVE",
"360 927 CURVE SMOOTH",
"306 927 OFFCURVE",
"262 883 OFFCURVE",
"262 829 CURVE SMOOTH"
);
},
{
closed = 1;
nodes = (
"296 864 OFFCURVE",
"325 893 OFFCURVE",
"360 893 CURVE SMOOTH",
"395 893 OFFCURVE",
"424 864 OFFCURVE",
"424 829 CURVE SMOOTH",
"424 794 OFFCURVE",
"395 765 OFFCURVE",
"360 765 CURVE SMOOTH",
"325 765 OFFCURVE",
"296 794 OFFCURVE",
"296 829 CURVE SMOOTH"
);
},
{
closed = 1;
nodes = (
"452 214 LINE",
"513 69 LINE",
"421 0 LINE",
"729 0 LINE",
"654 67 LINE",
"384 695 LINE",
"337 695 LINE",
"83 79 LINE",
"12 0 LINE",
"233 0 LINE",
"138 78 LINE",
"192 214 LINE"
);
},
{
closed = 1;
nodes = (
"208 254 LINE",
"320 533 LINE",
"436 254 LINE"
);
}
);
width = 730;
},
{
layerId = "E2F25E8D-4609-4642-A608-BE80737248C7";
paths = (
{
closed = 1;
nodes = (
"262 775 OFFCURVE",
"306 731 OFFCURVE",
"360 731 CURVE SMOOTH",
"414 731 OFFCURVE",
"458 775 OFFCURVE",
"458 829 CURVE SMOOTH",
"458 883 OFFCURVE",
"414 927 OFFCURVE",
"360 927 CURVE SMOOTH",
"306 927 OFFCURVE",
"262 883 OFFCURVE",
"262 829 CURVE SMOOTH"
);
},
{
closed = 1;
nodes = (
"296 864 OFFCURVE",
"325 893 OFFCURVE",
"360 893 CURVE SMOOTH",
"395 893 OFFCURVE",
"424 864 OFFCURVE",
"424 829 CURVE SMOOTH",
"424 794 OFFCURVE",
"395 765 OFFCURVE",
"360 765 CURVE SMOOTH",
"325 765 OFFCURVE",
"296 794 OFFCURVE",
"296 829 CURVE SMOOTH"
);
},
{
closed = 1;
nodes = (
"452 214 LINE",
"513 69 LINE",
"421 0 LINE",
"729 0 LINE",
"654 67 LINE",
"384 695 LINE",
"337 695 LINE",
"83 79 LINE",
"12 0 LINE",
"233 0 LINE",
"138 78 LINE",
"192 214 LINE"
);
},
{
closed = 1;
nodes = (
"208 254 LINE",
"320 533 LINE",
"436 254 LINE"
);
}
);
width = 730;
}
);
unicode = 00C5;
},
{
glyphname = Atilde;
lastChange = "2019-07-27 02:39:24 +0000";
layers = (
{
layerId = master01;
paths = (
{
closed = 1;
nodes = (
"475 874 LINE",
"460 855 OFFCURVE",
"446 840 OFFCURVE",
"431 840 CURVE SMOOTH",
"385 840 OFFCURVE",
"332 847 OFFCURVE",
"286 851 CURVE",
"223 744 LINE",
"237 735 LINE",
"250 757 OFFCURVE",
"264 778 OFFCURVE",
"277 778 CURVE SMOOTH",
"326 778 OFFCURVE",
"382 771 OFFCURVE",
"431 767 CURVE",
"490 868 LINE"
);
},
{
closed = 1;
nodes = (
"722 0 LINE",
"647 67 LINE",
"377 695 LINE",
"330 695 LINE",
"76 79 LINE",
"5 0 LINE",
"226 0 LINE",
"131 78 LINE",
"185 214 LINE",
"445 214 LINE",
"506 69 LINE",
"414 0 LINE"
);
},
{
closed = 1;
nodes = (
"427 259 LINE",
"203 259 LINE",
"313 533 LINE"
);
}
);
width = 727;
},
{
layerId = "E2F25E8D-4609-4642-A608-BE80737248C7";
paths = (
{
closed = 1;
nodes = (
"475 874 LINE",
"460 855 OFFCURVE",
"446 840 OFFCURVE",
"431 840 CURVE SMOOTH",
"385 840 OFFCURVE",
"332 847 OFFCURVE",
"286 851 CURVE",
"223 744 LINE",
"237 735 LINE",
"250 757 OFFCURVE",
"264 778 OFFCURVE",
"277 778 CURVE SMOOTH",
"326 778 OFFCURVE",
"382 771 OFFCURVE",
"431 767 CURVE",
"490 868 LINE"
);
},
{
closed = 1;
nodes = (
"722 0 LINE",
"647 67 LINE",
"377 695 LINE",
"330 695 LINE",
"76 79 LINE",
"5 0 LINE",
"226 0 LINE",
"131 78 LINE",
"185 214 LINE",
"445 214 LINE",
"506 69 LINE",
"414 0 LINE"
);
},
{
closed = 1;
nodes = (
"427 259 LINE",
"203 259 LINE",
"313 533 LINE"
);
}
);
width = 727;
}
);
unicode = 00C3;
},
{
glyphname = AE;
lastChange = "2019-07-27 02:39:24 +0000";
layers = (
{
layerId = master01;
paths = (
{
closed = 1;
nodes = (
"885 217 LINE",
"880 219 LINE",
"736 36 LINE",
"563 36 LINE",
"563 332 LINE",
"836 332 LINE",
"836 372 LINE",
"563 372 LINE",
"563 649 LINE",
"727 649 LINE",
"849 475 LINE",
"855 475 LINE",
"855 685 LINE",
"517 685 LINE",
"518 686 LINE",
"320 686 LINE",
"397 625 LINE",
"75 85 LINE",
"0 0 LINE",
"209 0 LINE",
"126 76 LINE",
"207 214 LINE",
"433 214 LINE",
"433 106 LINE",
"373 0 LINE",
"874 0 LINE"
);
},
{
closed = 1;
nodes = (
"433 254 LINE",
"230 254 LINE",
"416 575 LINE",
"429 601 LINE",
"433 598 LINE"
);
}
);
width = 910;
},
{
layerId = "E2F25E8D-4609-4642-A608-BE80737248C7";
paths = (
{
closed = 1;
nodes = (
"885 217 LINE",
"880 219 LINE",
"736 36 LINE",
"563 36 LINE",
"563 332 LINE",
"836 332 LINE",
"836 372 LINE",
"563 372 LINE",
"563 649 LINE",
"727 649 LINE",
"849 475 LINE",
"855 475 LINE",
"855 685 LINE",
"517 685 LINE",
"518 686 LINE",
"320 686 LINE",
"397 625 LINE",
"75 85 LINE",
"0 0 LINE",
"209 0 LINE",
"126 76 LINE",
"207 214 LINE",
"433 214 LINE",
"433 106 LINE",
"373 0 LINE",
"874 0 LINE"
);
},
{
closed = 1;
nodes = (
"433 254 LINE",
"230 254 LINE",
"416 575 LINE",
"429 601 LINE",
"433 598 LINE"
);
}
);
width = 910;
}
);
unicode = 00C6;
},
{
glyphname = B;
lastChange = "2019-07-28 16:58:21 +0000";
layers = (
{
layerId = master01;
paths = (
{
closed = 1;
nodes = (
"100 581 LINE",
"100 106 LINE",
"40 0 LINE",
"260 0 LINE SMOOTH",
"402 0 OFFCURVE",
"595 39 OFFCURVE",
"595 183 CURVE SMOOTH",
"595 285 OFFCURVE",
"518 344 OFFCURVE",
"393 372 CURVE",
"467 400 OFFCURVE",
"551 444 OFFCURVE",
"551 534 CURVE SMOOTH",
"551 653 OFFCURVE",
"437 685 OFFCURVE",
"269 685 CURVE SMOOTH",
"40 685 LINE"
);
},
{
closed = 1;
nodes = (
"264 653 LINE SMOOTH",
"333 653 OFFCURVE",
"422 634 OFFCURVE",
"422 514 CURVE SMOOTH",
"422 436 OFFCURVE",
"358 378 OFFCURVE",
"230 378 CURVE",
"230 653 LINE"
);
},
{
closed = 1;
nodes = (
"230 353 LINE",
"358 353 OFFCURVE",
"448 318 OFFCURVE",
"448 186 CURVE SMOOTH",
"448 90 OFFCURVE",
"363 39 OFFCURVE",
"261 39 CURVE SMOOTH",
"230 39 LINE"
);
}
);
width = 630;
},
{
layerId = "E2F25E8D-4609-4642-A608-BE80737248C7";
paths = (
{
closed = 1;
nodes = (
"100 674 LINE",
"100 22 LINE",
"40 0 LINE",
"260 0 LINE SMOOTH",
"402 0 OFFCURVE",
"595 39 OFFCURVE",
"595 183 CURVE SMOOTH",
"595 285 OFFCURVE",
"518 344 OFFCURVE",
"393 372 CURVE",
"467 400 OFFCURVE",
"551 444 OFFCURVE",
"551 534 CURVE SMOOTH",
"551 653 OFFCURVE",
"437 685 OFFCURVE",
"269 685 CURVE SMOOTH",
"40 685 LINE"
);
},
{
closed = 1;
nodes = (
"264 673 LINE SMOOTH",
"333 673 OFFCURVE",
"472 634 OFFCURVE",
"472 514 CURVE SMOOTH",
"472 436 OFFCURVE",
"388 378 OFFCURVE",
"150 378 CURVE",
"150 673 LINE"
);
},
{
closed = 1;
nodes = (
"150 353 LINE",
"388 353 OFFCURVE",
"518 318 OFFCURVE",
"518 186 CURVE SMOOTH",
"518 90 OFFCURVE",
"363 19 OFFCURVE",
"261 19 CURVE SMOOTH",
"150 19 LINE"
);
}
);
width = 630;
}
);
unicode = 0042;
},
{
glyphname = C;
lastChange = "2019-07-27 02:39:24 +0000";
layers = (
{
layerId = master01;
paths = (
{
closed = 1;
nodes = (
"565 685 LINE",
"409 685 LINE SMOOTH",
"168 685 OFFCURVE",
"35 497 OFFCURVE",
"35 319 CURVE SMOOTH",
"35 123 OFFCURVE",
"147 -12 OFFCURVE",
"327 -12 CURVE SMOOTH",
"480 -12 OFFCURVE",
"572 107 OFFCURVE",
"616 211 CURVE",
"601 221 LINE",
"569 170 OFFCURVE",
"509 105 OFFCURVE",
"388 105 CURVE SMOOTH",
"248 105 OFFCURVE",
"180 237 OFFCURVE",
"180 406 CURVE SMOOTH",
"180 538 OFFCURVE",
"230 644 OFFCURVE",
"347 644 CURVE SMOOTH",
"451 644 OFFCURVE",
"519 566 OFFCURVE",
"552 482 CURVE",
"565 482 LINE"
);
}
);
width = 651;
},
{
layerId = "E2F25E8D-4609-4642-A608-BE80737248C7";
paths = (
{
closed = 1;
nodes = (
"565 685 LINE",
"409 685 LINE SMOOTH",
"168 685 OFFCURVE",
"35 497 OFFCURVE",
"35 319 CURVE SMOOTH",
"35 123 OFFCURVE",
"147 -12 OFFCURVE",
"327 -12 CURVE SMOOTH",
"480 -12 OFFCURVE",
"572 107 OFFCURVE",
"616 211 CURVE",
"601 221 LINE",
"569 170 OFFCURVE",
"509 105 OFFCURVE",
"388 105 CURVE SMOOTH",
"248 105 OFFCURVE",
"180 237 OFFCURVE",
"180 406 CURVE SMOOTH",
"180 538 OFFCURVE",
"230 644 OFFCURVE",
"347 644 CURVE SMOOTH",
"451 644 OFFCURVE",
"519 566 OFFCURVE",
"552 482 CURVE",
"565 482 LINE"
);
}
);
width = 651;
}
);
unicode = 0043;
},
{
glyphname = Cacute;
lastChange = "2019-07-27 02:39:24 +0000";
layers = (
{
layerId = master01;
paths = (
{
closed = 1;
nodes = (
"470 869 LINE",
"339 869 LINE",
"326 740 LINE",
"341 740 LINE"
);
},
{
closed = 1;
nodes = (
"565 685 LINE",
"409 685 LINE SMOOTH",
"168 685 OFFCURVE",
"35 497 OFFCURVE",
"35 319 CURVE SMOOTH",
"35 123 OFFCURVE",
"147 -12 OFFCURVE",
"327 -12 CURVE SMOOTH",
"480 -12 OFFCURVE",
"572 107 OFFCURVE",
"616 211 CURVE",
"601 221 LINE",
"569 170 OFFCURVE",
"509 105 OFFCURVE",
"388 105 CURVE SMOOTH",
"248 105 OFFCURVE",
"180 237 OFFCURVE",
"180 406 CURVE SMOOTH",
"180 538 OFFCURVE",
"230 644 OFFCURVE",
"347 644 CURVE SMOOTH",
"451 644 OFFCURVE",
"519 566 OFFCURVE",
"552 482 CURVE",
"565 482 LINE"
);
}
);
width = 651;
},
{
layerId = "E2F25E8D-4609-4642-A608-BE80737248C7";
paths = (
{
closed = 1;
nodes = (
"470 869 LINE",
"339 869 LINE",
"326 740 LINE",
"341 740 LINE"
);
},
{
closed = 1;
nodes = (
"565 685 LINE",
"409 685 LINE SMOOTH",
"168 685 OFFCURVE",
"35 497 OFFCURVE",
"35 319 CURVE SMOOTH",
"35 123 OFFCURVE",
"147 -12 OFFCURVE",
"327 -12 CURVE SMOOTH",
"480 -12 OFFCURVE",
"572 107 OFFCURVE",
"616 211 CURVE",
"601 221 LINE",
"569 170 OFFCURVE",
"509 105 OFFCURVE",
"388 105 CURVE SMOOTH",
"248 105 OFFCURVE",
"180 237 OFFCURVE",
"180 406 CURVE SMOOTH",
"180 538 OFFCURVE",
"230 644 OFFCURVE",
"347 644 CURVE SMOOTH",
"451 644 OFFCURVE",
"519 566 OFFCURVE",
"552 482 CURVE",
"565 482 LINE"
);
}
);
width = 651;
}
);
unicode = 0106;
},
{
glyphname = Ccaron;
lastChange = "2019-07-27 02:39:24 +0000";
layers = (
{
layerId = master01;
paths = (
{
closed = 1;
nodes = (
"272 869 LINE",
"257 869 LINE",
"319 740 LINE",
"402 740 LINE",
"465 869 LINE",
"450 869 LINE",
"361 799 LINE"
);
},
{
closed = 1;
nodes = (
"565 685 LINE",
"409 685 LINE SMOOTH",
"168 685 OFFCURVE",
"35 497 OFFCURVE",
"35 319 CURVE SMOOTH",
"35 123 OFFCURVE",
"147 -12 OFFCURVE",
"327 -12 CURVE SMOOTH",
"480 -12 OFFCURVE",
"572 107 OFFCURVE",
"616 211 CURVE",
"601 221 LINE",
"569 170 OFFCURVE",
"509 105 OFFCURVE",
"388 105 CURVE SMOOTH",
"248 105 OFFCURVE",
"180 237 OFFCURVE",
"180 406 CURVE SMOOTH",
"180 538 OFFCURVE",
"230 644 OFFCURVE",
"347 644 CURVE SMOOTH",
"451 644 OFFCURVE",
"519 566 OFFCURVE",
"552 482 CURVE",
"565 482 LINE"
);
}
);
width = 651;
},
{
layerId = "E2F25E8D-4609-4642-A608-BE80737248C7";
paths = (
{
closed = 1;
nodes = (
"272 869 LINE",
"257 869 LINE",
"319 740 LINE",
"402 740 LINE",
"465 869 LINE",
"450 869 LINE",
"361 799 LINE"
);
},
{
closed = 1;
nodes = (
"565 685 LINE",
"409 685 LINE SMOOTH",
"168 685 OFFCURVE",
"35 497 OFFCURVE",
"35 319 CURVE SMOOTH",
"35 123 OFFCURVE",
"147 -12 OFFCURVE",
"327 -12 CURVE SMOOTH",
"480 -12 OFFCURVE",
"572 107 OFFCURVE",
"616 211 CURVE",
"601 221 LINE",
"569 170 OFFCURVE",
"509 105 OFFCURVE",
"388 105 CURVE SMOOTH",
"248 105 OFFCURVE",
"180 237 OFFCURVE",
"180 406 CURVE SMOOTH",
"180 538 OFFCURVE",
"230 644 OFFCURVE",
"347 644 CURVE SMOOTH",
"451 644 OFFCURVE",
"519 566 OFFCURVE",
"552 482 CURVE",
"565 482 LINE"
);
}
);
width = 651;
}
);
unicode = 010C;
},
{
glyphname = Ccedilla;
lastChange = "2019-07-27 02:39:24 +0000";
layers = (
{
layerId = master01;
paths = (
{
closed = 1;
nodes = (
"565 685 LINE",
"409 685 LINE SMOOTH",
"168 685 OFFCURVE",
"35 497 OFFCURVE",
"35 319 CURVE SMOOTH",
"35 123 OFFCURVE",
"147 -12 OFFCURVE",
"327 -12 CURVE SMOOTH",
"480 -12 OFFCURVE",
"572 107 OFFCURVE",
"616 211 CURVE",
"601 221 LINE",
"569 170 OFFCURVE",
"509 105 OFFCURVE",
"388 105 CURVE SMOOTH",
"248 105 OFFCURVE",
"180 237 OFFCURVE",
"180 406 CURVE SMOOTH",
"180 538 OFFCURVE",
"230 644 OFFCURVE",
"347 644 CURVE SMOOTH",
"451 644 OFFCURVE",
"519 566 OFFCURVE",
"552 482 CURVE",
"565 482 LINE"
);
},
{
closed = 1;
nodes = (
"310 -12 LINE",
"265 -76 LINE",
"265 -79 LINE",
"305 -89 OFFCURVE",
"374 -92 OFFCURVE",
"374 -124 CURVE SMOOTH",
"374 -138 OFFCURVE",
"350 -147 OFFCURVE",
"323 -147 CURVE SMOOTH",
"294 -147 OFFCURVE",
"270 -138 OFFCURVE",
"250 -119 CURVE",
"239 -137 LINE",
"265 -160 OFFCURVE",
"287 -171 OFFCURVE",
"321 -171 CURVE SMOOTH",
"371 -171 OFFCURVE",
"419 -145 OFFCURVE",
"419 -96 CURVE SMOOTH",
"419 -63 OFFCURVE",
"358 -45 OFFCURVE",
"329 -34 CURVE",
"341 -12 LINE"
);
}
);
width = 651;
},
{
layerId = "E2F25E8D-4609-4642-A608-BE80737248C7";
paths = (
{
closed = 1;
nodes = (
"565 685 LINE",
"409 685 LINE SMOOTH",
"168 685 OFFCURVE",
"35 497 OFFCURVE",
"35 319 CURVE SMOOTH",
"35 123 OFFCURVE",
"147 -12 OFFCURVE",
"327 -12 CURVE SMOOTH",
"480 -12 OFFCURVE",
"572 107 OFFCURVE",
"616 211 CURVE",
"601 221 LINE",
"569 170 OFFCURVE",
"509 105 OFFCURVE",
"388 105 CURVE SMOOTH",
"248 105 OFFCURVE",
"180 237 OFFCURVE",
"180 406 CURVE SMOOTH",
"180 538 OFFCURVE",
"230 644 OFFCURVE",
"347 644 CURVE SMOOTH",
"451 644 OFFCURVE",
"519 566 OFFCURVE",
"552 482 CURVE",
"565 482 LINE"
);
},
{
closed = 1;
nodes = (
"310 -12 LINE",
"265 -76 LINE",
"265 -79 LINE",
"305 -89 OFFCURVE",
"374 -92 OFFCURVE",
"374 -124 CURVE SMOOTH",
"374 -138 OFFCURVE",
"350 -147 OFFCURVE",
"323 -147 CURVE SMOOTH",
"294 -147 OFFCURVE",
"270 -138 OFFCURVE",
"250 -119 CURVE",
"239 -137 LINE",
"265 -160 OFFCURVE",
"287 -171 OFFCURVE",
"321 -171 CURVE SMOOTH",
"371 -171 OFFCURVE",
"419 -145 OFFCURVE",
"419 -96 CURVE SMOOTH",
"419 -63 OFFCURVE",
"358 -45 OFFCURVE",
"329 -34 CURVE",
"341 -12 LINE"
);
}
);
width = 651;
}
);
unicode = 00C7;
},
{
glyphname = Ccircumflex;
lastChange = "2019-07-27 02:39:24 +0000";
layers = (
{
layerId = master01;
paths = (
{
closed = 1;
nodes = (
"279 740 LINE",
"368 810 LINE",
"457 740 LINE",
"472 740 LINE",
"409 869 LINE",
"326 869 LINE",
"264 740 LINE"
);
},
{
closed = 1;
nodes = (
"565 685 LINE",
"409 685 LINE SMOOTH",
"168 685 OFFCURVE",
"35 497 OFFCURVE",
"35 319 CURVE SMOOTH",
"35 123 OFFCURVE",
"147 -12 OFFCURVE",
"327 -12 CURVE SMOOTH",
"480 -12 OFFCURVE",
"572 107 OFFCURVE",
"616 211 CURVE",
"601 221 LINE",
"569 170 OFFCURVE",
"509 105 OFFCURVE",
"388 105 CURVE SMOOTH",
"248 105 OFFCURVE",
"180 237 OFFCURVE",
"180 406 CURVE SMOOTH",
"180 538 OFFCURVE",
"230 644 OFFCURVE",
"347 644 CURVE SMOOTH",
"451 644 OFFCURVE",
"519 566 OFFCURVE",
"552 482 CURVE",
"565 482 LINE"
);
}
);
width = 651;
},
{
layerId = "E2F25E8D-4609-4642-A608-BE80737248C7";
paths = (
{
closed = 1;
nodes = (
"279 740 LINE",
"368 810 LINE",
"457 740 LINE",
"472 740 LINE",
"409 869 LINE",
"326 869 LINE",
"264 740 LINE"
);
},
{
closed = 1;
nodes = (
"565 685 LINE",
"409 685 LINE SMOOTH",
"168 685 OFFCURVE",
"35 497 OFFCURVE",
"35 319 CURVE SMOOTH",
"35 123 OFFCURVE",
"147 -12 OFFCURVE",
"327 -12 CURVE SMOOTH",
"480 -12 OFFCURVE",
"572 107 OFFCURVE",
"616 211 CURVE",
"601 221 LINE",
"569 170 OFFCURVE",
"509 105 OFFCURVE",
"388 105 CURVE SMOOTH",
"248 105 OFFCURVE",
"180 237 OFFCURVE",
"180 406 CURVE SMOOTH",
"180 538 OFFCURVE",
"230 644 OFFCURVE",
"347 644 CURVE SMOOTH",
"451 644 OFFCURVE",
"519 566 OFFCURVE",
"552 482 CURVE",
"565 482 LINE"
);
}
);
width = 651;
}
);
unicode = 0108;
},
{
glyphname = D;
lastChange = "2019-07-27 02:39:24 +0000";
layers = (
{
layerId = master01;
paths = (
{
closed = 1;
nodes = (
"114 579 LINE",
"114 106 LINE",
"40 0 LINE",
"289 0 LINE SMOOTH",
"535 0 OFFCURVE",
"700 141 OFFCURVE",
"700 372 CURVE SMOOTH",
"700 514 OFFCURVE",
"608 685 OFFCURVE",
"306 685 CURVE SMOOTH",
"40 685 LINE"
);
},
{
closed = 1;
nodes = (
"244 653 LINE",
"314 653 LINE SMOOTH",
"472 653 OFFCURVE",
"562 544 OFFCURVE",
"562 344 CURVE SMOOTH",
"562 222 OFFCURVE",
"519 38 OFFCURVE",
"307 38 CURVE SMOOTH",
"244 38 LINE"
);
}
);
width = 735;
},
{
layerId = "E2F25E8D-4609-4642-A608-BE80737248C7";
paths = (
{
closed = 1;
nodes = (
"114 579 LINE",
"114 106 LINE",
"40 0 LINE",
"289 0 LINE SMOOTH",
"535 0 OFFCURVE",
"700 141 OFFCURVE",
"700 372 CURVE SMOOTH",
"700 514 OFFCURVE",
"608 685 OFFCURVE",
"306 685 CURVE SMOOTH",
"40 685 LINE"
);
},
{
closed = 1;
nodes = (
"244 653 LINE",
"314 653 LINE SMOOTH",
"472 653 OFFCURVE",
"562 544 OFFCURVE",
"562 344 CURVE SMOOTH",
"562 222 OFFCURVE",
"519 38 OFFCURVE",
"307 38 CURVE SMOOTH",
"244 38 LINE"
);
}
);
width = 735;
}
);
unicode = 0044;
},
{
glyphname = Eth;
lastChange = "2019-07-27 02:39:24 +0000";
layers = (
{
layerId = master01;
paths = (
{
closed = 1;
nodes = (
"99 579 LINE",
"99 378 LINE",
"25 378 LINE",
"25 328 LINE",
"99 328 LINE",
"99 106 LINE",
"25 0 LINE",
"274 0 LINE SMOOTH",
"520 0 OFFCURVE",
"673 140 OFFCURVE",
"673 382 CURVE SMOOTH",
"673 524 OFFCURVE",
"593 685 OFFCURVE",
"291 685 CURVE SMOOTH",
"25 685 LINE"
);
},
{
closed = 1;
nodes = (
"229 328 LINE",
"375 328 LINE",
"375 378 LINE",
"229 378 LINE",
"229 653 LINE",
"299 653 LINE SMOOTH",
"457 653 OFFCURVE",
"533 544 OFFCURVE",
"533 344 CURVE SMOOTH",
"533 222 OFFCURVE",
"504 38 OFFCURVE",
"292 38 CURVE SMOOTH",
"229 38 LINE"
);
}
);
width = 708;
},
{
layerId = "E2F25E8D-4609-4642-A608-BE80737248C7";
paths = (
{
closed = 1;
nodes = (
"99 579 LINE",
"99 378 LINE",
"25 378 LINE",
"25 328 LINE",
"99 328 LINE",
"99 106 LINE",
"25 0 LINE",
"274 0 LINE SMOOTH",
"520 0 OFFCURVE",
"673 140 OFFCURVE",
"673 382 CURVE SMOOTH",
"673 524 OFFCURVE",
"593 685 OFFCURVE",
"291 685 CURVE SMOOTH",
"25 685 LINE"
);
},
{
closed = 1;
nodes = (
"229 328 LINE",
"375 328 LINE",
"375 378 LINE",
"229 378 LINE",
"229 653 LINE",
"299 653 LINE SMOOTH",
"457 653 OFFCURVE",
"533 544 OFFCURVE",
"533 344 CURVE SMOOTH",
"533 222 OFFCURVE",
"504 38 OFFCURVE",
"292 38 CURVE SMOOTH",
"229 38 LINE"
);
}
);
width = 708;
}
);
unicode = 00D0;
},
{
glyphname = Dcaron;
lastChange = "2019-07-27 02:39:24 +0000";
layers = (
{
layerId = master01;
paths = (
{
closed = 1;
nodes = (
"259 869 LINE",
"244 869 LINE",
"306 740 LINE",
"389 740 LINE",
"452 869 LINE",
"437 869 LINE",
"348 799 LINE"
);
},
{
closed = 1;
nodes = (
"114 579 LINE",
"114 106 LINE",
"40 0 LINE",
"289 0 LINE SMOOTH",
"535 0 OFFCURVE",
"700 141 OFFCURVE",
"700 372 CURVE SMOOTH",
"700 514 OFFCURVE",
"608 685 OFFCURVE",
"306 685 CURVE SMOOTH",
"40 685 LINE"
);
},
{
closed = 1;
nodes = (
"244 653 LINE",
"314 653 LINE SMOOTH",
"472 653 OFFCURVE",
"562 544 OFFCURVE",
"562 344 CURVE SMOOTH",
"562 222 OFFCURVE",
"519 38 OFFCURVE",
"307 38 CURVE SMOOTH",
"244 38 LINE"
);
}
);
width = 735;
},
{
layerId = "E2F25E8D-4609-4642-A608-BE80737248C7";
paths = (
{
closed = 1;
nodes = (
"259 869 LINE",
"244 869 LINE",
"306 740 LINE",
"389 740 LINE",
"452 869 LINE",
"437 869 LINE",
"348 799 LINE"
);
},
{
closed = 1;
nodes = (
"114 579 LINE",
"114 106 LINE",
"40 0 LINE",
"289 0 LINE SMOOTH",
"535 0 OFFCURVE",
"700 141 OFFCURVE",
"700 372 CURVE SMOOTH",
"700 514 OFFCURVE",
"608 685 OFFCURVE",
"306 685 CURVE SMOOTH",
"40 685 LINE"
);
},
{
closed = 1;
nodes = (
"244 653 LINE",
"314 653 LINE SMOOTH",
"472 653 OFFCURVE",
"562 544 OFFCURVE",
"562 344 CURVE SMOOTH",
"562 222 OFFCURVE",
"519 38 OFFCURVE",
"307 38 CURVE SMOOTH",
"244 38 LINE"
);
}
);
width = 735;
}
);
unicode = 010E;
},
{
glyphname = E;
lastChange = "2019-07-27 02:39:24 +0000";
layers = (
{
layerId = master01;
paths = (
{
closed = 1;
nodes = (
"541 219 LINE",
"409 36 LINE",
"230 36 LINE",
"230 327 LINE",
"503 327 LINE",
"503 372 LINE",
"230 372 LINE",
"230 649 LINE",
"400 649 LINE",
"510 475 LINE",
"522 475 LINE",
"522 685 LINE",
"40 685 LINE",
"100 581 LINE",
"100 106 LINE",
"40 0 LINE",
"541 0 LINE",
"552 217 LINE"
);
}
);
width = 592;
},
{
layerId = "E2F25E8D-4609-4642-A608-BE80737248C7";
paths = (
{
closed = 1;
nodes = (
"541 219 LINE",
"409 36 LINE",
"230 36 LINE",
"230 327 LINE",
"503 327 LINE",
"503 372 LINE",
"230 372 LINE",
"230 649 LINE",
"400 649 LINE",
"510 475 LINE",
"522 475 LINE",
"522 685 LINE",
"40 685 LINE",
"100 581 LINE",
"100 106 LINE",
"40 0 LINE",
"541 0 LINE",
"552 217 LINE"
);
}
);
width = 592;
}
);
unicode = 0045;
},
{
glyphname = Eacute;
lastChange = "2019-07-27 02:39:24 +0000";
layers = (
{
layerId = master01;
paths = (
{
closed = 1;
nodes = (
"273 740 LINE",
"402 869 LINE",
"271 869 LINE",
"258 740 LINE"
);
},
{
closed = 1;
nodes = (
"552 217 LINE",
"541 219 LINE",
"409 36 LINE",
"230 36 LINE",
"230 327 LINE",
"503 327 LINE",
"503 372 LINE",
"230 372 LINE",
"230 649 LINE",
"400 649 LINE",
"510 475 LINE",
"522 475 LINE",
"522 685 LINE",
"40 685 LINE",
"100 581 LINE",
"100 106 LINE",
"40 0 LINE",
"541 0 LINE"
);
}
);
width = 592;
},
{
layerId = "E2F25E8D-4609-4642-A608-BE80737248C7";
paths = (
{
closed = 1;
nodes = (
"273 740 LINE",
"402 869 LINE",
"271 869 LINE",
"258 740 LINE"
);
},
{
closed = 1;
nodes = (
"552 217 LINE",
"541 219 LINE",
"409 36 LINE",
"230 36 LINE",
"230 327 LINE",
"503 327 LINE",
"503 372 LINE",
"230 372 LINE",
"230 649 LINE",
"400 649 LINE",
"510 475 LINE",
"522 475 LINE",
"522 685 LINE",
"40 685 LINE",
"100 581 LINE",
"100 106 LINE",
"40 0 LINE",
"541 0 LINE"
);
}
);
width = 592;
}
);
unicode = 00C9;
},
{
glyphname = Ecaron;
lastChange = "2019-07-27 02:39:24 +0000";
layers = (
{
layerId = master01;
paths = (
{
closed = 1;
nodes = (
"219 869 LINE",
"204 869 LINE",
"266 740 LINE",
"349 740 LINE",
"412 869 LINE",
"397 869 LINE",
"308 799 LINE"
);
},
{
closed = 1;
nodes = (
"552 217 LINE",
"541 219 LINE",
"409 36 LINE",
"230 36 LINE",
"230 327 LINE",
"503 327 LINE",
"503 372 LINE",
"230 372 LINE",
"230 649 LINE",
"400 649 LINE",
"510 475 LINE",
"522 475 LINE",
"522 685 LINE",
"40 685 LINE",
"100 581 LINE",
"100 106 LINE",
"40 0 LINE",
"541 0 LINE"
);
}
);
width = 592;
},
{
layerId = "E2F25E8D-4609-4642-A608-BE80737248C7";
paths = (
{
closed = 1;
nodes = (
"219 869 LINE",
"204 869 LINE",
"266 740 LINE",
"349 740 LINE",
"412 869 LINE",
"397 869 LINE",
"308 799 LINE"
);
},
{
closed = 1;
nodes = (
"552 217 LINE",
"541 219 LINE",
"409 36 LINE",
"230 36 LINE",
"230 327 LINE",
"503 327 LINE",
"503 372 LINE",
"230 372 LINE",
"230 649 LINE",
"400 649 LINE",
"510 475 LINE",
"522 475 LINE",
"522 685 LINE",
"40 685 LINE",
"100 581 LINE",
"100 106 LINE",
"40 0 LINE",
"541 0 LINE"
);
}
);
width = 592;
}
);
unicode = 011A;
},
{
glyphname = Ecircumflex;
lastChange = "2019-07-27 02:39:24 +0000";
layers = (
{
layerId = master01;
paths = (
{
closed = 1;
nodes = (
"214 740 LINE",
"303 810 LINE",
"392 740 LINE",
"407 740 LINE",
"344 869 LINE",
"261 869 LINE",
"199 740 LINE"
);
},
{
closed = 1;
nodes = (
"552 217 LINE",
"541 219 LINE",
"409 36 LINE",
"230 36 LINE",
"230 327 LINE",
"503 327 LINE",
"503 372 LINE",
"230 372 LINE",
"230 649 LINE",
"400 649 LINE",
"510 475 LINE",
"522 475 LINE",
"522 685 LINE",
"40 685 LINE",
"100 581 LINE",
"100 106 LINE",
"40 0 LINE",
"541 0 LINE"
);
}
);
width = 592;
},
{
layerId = "E2F25E8D-4609-4642-A608-BE80737248C7";
paths = (
{
closed = 1;
nodes = (
"214 740 LINE",
"303 810 LINE",
"392 740 LINE",
"407 740 LINE",
"344 869 LINE",
"261 869 LINE",
"199 740 LINE"
);
},
{
closed = 1;
nodes = (
"552 217 LINE",
"541 219 LINE",
"409 36 LINE",
"230 36 LINE",
"230 327 LINE",
"503 327 LINE",
"503 372 LINE",
"230 372 LINE",
"230 649 LINE",
"400 649 LINE",
"510 475 LINE",
"522 475 LINE",
"522 685 LINE",
"40 685 LINE",
"100 581 LINE",
"100 106 LINE",
"40 0 LINE",
"541 0 LINE"
);
}
);
width = 592;
}
);
unicode = 00CA;
},
{
glyphname = Edieresis;
lastChange = "2019-07-27 02:39:24 +0000";
layers = (
{
layerId = master01;
paths = (
{
closed = 1;
nodes = (
"188 741 LINE",
"264 829 LINE",
"188 916 LINE",
"110 829 LINE"
);
},
{
closed = 1;
nodes = (
"422 741 LINE",
"498 829 LINE",
"422 916 LINE",
"344 829 LINE"
);
},
{
closed = 1;
nodes = (
"552 217 LINE",
"541 219 LINE",
"409 36 LINE",
"230 36 LINE",
"230 327 LINE",
"503 327 LINE",
"503 372 LINE",
"230 372 LINE",
"230 649 LINE",
"400 649 LINE",
"510 475 LINE",
"522 475 LINE",
"522 685 LINE",
"40 685 LINE",
"100 581 LINE",
"100 106 LINE",
"40 0 LINE",
"541 0 LINE"
);
}
);
width = 592;
},
{
layerId = "E2F25E8D-4609-4642-A608-BE80737248C7";
paths = (
{
closed = 1;
nodes = (
"188 741 LINE",
"264 829 LINE",
"188 916 LINE",
"110 829 LINE"
);
},
{
closed = 1;
nodes = (
"422 741 LINE",
"498 829 LINE",
"422 916 LINE",
"344 829 LINE"
);
},
{
closed = 1;
nodes = (
"552 217 LINE",
"541 219 LINE",
"409 36 LINE",
"230 36 LINE",
"230 327 LINE",
"503 327 LINE",
"503 372 LINE",
"230 372 LINE",
"230 649 LINE",
"400 649 LINE",
"510 475 LINE",
"522 475 LINE",
"522 685 LINE",
"40 685 LINE",
"100 581 LINE",
"100 106 LINE",
"40 0 LINE",
"541 0 LINE"
);
}
);
width = 592;
}
);
unicode = 00CB;
},
{
glyphname = Edotaccent;
lastChange = "2019-07-27 02:39:24 +0000";
layers = (
{
layerId = master01;
paths = (
{
closed = 1;
nodes = (
"302 739 LINE",
"372 820 LINE",
"302 900 LINE",
"231 820 LINE"
);
},
{
closed = 1;
nodes = (
"552 217 LINE",
"541 219 LINE",
"409 36 LINE",
"230 36 LINE",
"230 327 LINE",
"503 327 LINE",
"503 372 LINE",
"230 372 LINE",
"230 649 LINE",
"400 649 LINE",
"510 475 LINE",
"522 475 LINE",
"522 685 LINE",
"40 685 LINE",
"100 581 LINE",
"100 106 LINE",
"40 0 LINE",
"541 0 LINE"
);
}
);
width = 592;
},
{
layerId = "E2F25E8D-4609-4642-A608-BE80737248C7";
paths = (
{
closed = 1;
nodes = (
"302 739 LINE",
"372 820 LINE",
"302 900 LINE",
"231 820 LINE"
);
},
{
closed = 1;
nodes = (
"552 217 LINE",
"541 219 LINE",
"409 36 LINE",
"230 36 LINE",
"230 327 LINE",
"503 327 LINE",
"503 372 LINE",
"230 372 LINE",
"230 649 LINE",
"400 649 LINE",
"510 475 LINE",
"522 475 LINE",
"522 685 LINE",
"40 685 LINE",
"100 581 LINE",
"100 106 LINE",
"40 0 LINE",
"541 0 LINE"
);
}
);
width = 592;
}
);
unicode = 0116;
},
{
glyphname = Egrave;
lastChange = "2019-07-27 02:39:24 +0000";
layers = (
{
layerId = master01;
paths = (
{
closed = 1;
nodes = (
"342 740 LINE",
"329 869 LINE",
"198 869 LINE",
"327 740 LINE"
);
},
{
closed = 1;
nodes = (
"552 217 LINE",
"541 219 LINE",
"409 36 LINE",
"230 36 LINE",
"230 327 LINE",
"503 327 LINE",
"503 372 LINE",
"230 372 LINE",
"230 649 LINE",
"400 649 LINE",
"510 475 LINE",
"522 475 LINE",
"522 685 LINE",
"40 685 LINE",
"100 581 LINE",
"100 106 LINE",
"40 0 LINE",
"541 0 LINE"
);
}
);
width = 592;
},
{
layerId = "E2F25E8D-4609-4642-A608-BE80737248C7";
paths = (
{
closed = 1;
nodes = (
"342 740 LINE",
"329 869 LINE",
"198 869 LINE",
"327 740 LINE"
);
},
{
closed = 1;
nodes = (
"552 217 LINE",
"541 219 LINE",
"409 36 LINE",
"230 36 LINE",
"230 327 LINE",
"503 327 LINE",
"503 372 LINE",
"230 372 LINE",
"230 649 LINE",
"400 649 LINE",
"510 475 LINE",
"522 475 LINE",
"522 685 LINE",
"40 685 LINE",
"100 581 LINE",
"100 106 LINE",
"40 0 LINE",
"541 0 LINE"
);
}
);
width = 592;
}
);
unicode = 00C8;
},
{
glyphname = F;
lastChange = "2019-07-27 02:39:24 +0000";
layers = (
{
layerId = master01;
paths = (
{
closed = 1;
nodes = (
"40 0 LINE",
"337 0 LINE",
"230 106 LINE",
"230 323 LINE",
"495 323 LINE",
"495 369 LINE",
"230 369 LINE",
"230 649 LINE",
"400 649 LINE",
"512 481 LINE",
"522 481 LINE",
"522 685 LINE",
"40 685 LINE",
"100 581 LINE",
"100 106 LINE",
"40 6 LINE"
);
}
);
width = 562;
},
{
layerId = "E2F25E8D-4609-4642-A608-BE80737248C7";
paths = (
{
closed = 1;
nodes = (
"40 0 LINE",
"337 0 LINE",
"230 106 LINE",
"230 323 LINE",
"495 323 LINE",
"495 369 LINE",
"230 369 LINE",
"230 649 LINE",
"400 649 LINE",
"512 481 LINE",
"522 481 LINE",
"522 685 LINE",
"40 685 LINE",
"100 581 LINE",
"100 106 LINE",
"40 6 LINE"
);
}
);
width = 562;
}
);
unicode = 0046;
},
{
glyphname = G;
lastChange = "2019-07-27 02:39:24 +0000";
layers = (
{
layerId = master01;
paths = (
{
closed = 1;
nodes = (
"377 309 LINE",
"377 298 LINE",
"482 245 LINE",
"482 79 LINE",
"455 66 OFFCURVE",
"419 60 OFFCURVE",
"399 60 CURVE SMOOTH",
"221 60 OFFCURVE",
"184 251 OFFCURVE",
"184 405 CURVE SMOOTH",
"184 562 OFFCURVE",
"239 643 OFFCURVE",
"340 643 CURVE SMOOTH",
"453 643 OFFCURVE",
"506 561 OFFCURVE",
"552 481 CURVE",
"565 481 LINE",
"565 684 LINE",
"409 684 LINE SMOOTH",
"168 684 OFFCURVE",
"35 496 OFFCURVE",
"35 318 CURVE SMOOTH",
"35 122 OFFCURVE",
"147 -13 OFFCURVE",
"327 -13 CURVE SMOOTH",
"393 -13 OFFCURVE",
"452 14 OFFCURVE",
"500 47 CURVE",
"595 -6 LINE",
"610 -6 LINE",
"610 262 LINE",
"663 299 LINE",
"663 309 LINE"
);
}
);
width = 687;
},
{
layerId = "E2F25E8D-4609-4642-A608-BE80737248C7";
paths = (
{
closed = 1;
nodes = (
"377 309 LINE",
"377 298 LINE",
"482 245 LINE",
"482 79 LINE",
"455 66 OFFCURVE",
"419 60 OFFCURVE",
"399 60 CURVE SMOOTH",
"221 60 OFFCURVE",
"184 251 OFFCURVE",
"184 405 CURVE SMOOTH",
"184 562 OFFCURVE",
"239 643 OFFCURVE",
"340 643 CURVE SMOOTH",
"453 643 OFFCURVE",
"506 561 OFFCURVE",
"552 481 CURVE",
"565 481 LINE",
"565 684 LINE",
"409 684 LINE SMOOTH",
"168 684 OFFCURVE",
"35 496 OFFCURVE",
"35 318 CURVE SMOOTH",
"35 122 OFFCURVE",
"147 -13 OFFCURVE",
"327 -13 CURVE SMOOTH",
"393 -13 OFFCURVE",
"452 14 OFFCURVE",
"500 47 CURVE",
"595 -6 LINE",
"610 -6 LINE",
"610 262 LINE",
"663 299 LINE",
"663 309 LINE"
);
}
);
width = 687;
}
);
unicode = 0047;
},
{
color = 4;
glyphname = H;
lastChange = "2019-07-27 03:13:50 +0000";
layers = (
{
layerId = master01;
paths = (
{
closed = 1;
nodes = (
"665 579 LINE",
"740 685 LINE",
"462 685 LINE",
"535 580 LINE",
"535 378 LINE",
"234 378 LINE",
"234 579 LINE",
"309 685 LINE",
"31 685 LINE",
"104 580 LINE",
"104 106 LINE",
"30 0 LINE",
"308 0 LINE",
"234 106 LINE",
"234 333 LINE",
"535 333 LINE",
"535 106 LINE",
"461 0 LINE",
"739 0 LINE",
"665 106 LINE"
);
}
);
width = 780;
},
{
layerId = "E2F25E8D-4609-4642-A608-BE80737248C7";
paths = (
{
closed = 1;
nodes = (
"665 639 LINE",
"720 685 LINE",
"542 685 LINE",
"595 640 LINE",
"595 364 LINE",
"174 364 LINE",
"174 639 LINE",
"229 685 LINE",
"51 685 LINE",
"104 640 LINE",
"104 46 LINE",
"50 0 LINE",
"228 0 LINE",
"174 46 LINE",
"174 349 LINE",
"595 349 LINE",
"595 46 LINE",
"541 0 LINE",
"719 0 LINE",
"665 46 LINE"
);
}
);
width = 780;
}
);
unicode = 0048;
},
{
color = 4;
glyphname = I;
lastChange = "2019-07-27 02:55:24 +0000";
layers = (
{
layerId = master01;
paths = (
{
closed = 1;
nodes = (
"244 106 LINE",
"244 579 LINE",
"318 685 LINE",
"40 685 LINE",
"114 579 LINE",
"114 106 LINE",
"40 0 LINE",
"318 0 LINE"
);
}
);
width = 358;
},
{
layerId = "E2F25E8D-4609-4642-A608-BE80737248C7";
paths = (
{
closed = 1;
nodes = (
"194 26 LINE",
"194 659 LINE",
"298 685 LINE",
"60 685 LINE",
"164 659 LINE",
"164 26 LINE",
"60 0 LINE",
"298 0 LINE"
);
}
);
width = 358;
}
);
unicode = 0049;
},
{
glyphname = IJ;
lastChange = "2019-07-27 02:39:24 +0000";
layers = (
{
layerId = master01;
paths = (
{
closed = 1;
nodes = (
"244 106 LINE",
"244 579 LINE",
"318 685 LINE",
"40 685 LINE",
"114 579 LINE",
"114 106 LINE",
"40 0 LINE",
"318 0 LINE"
);
},
{
closed = 1;
nodes = (
"373 685 LINE",
"447 579 LINE",
"447 -73 LINE SMOOTH",
"447 -106 OFFCURVE",
"437 -147 OFFCURVE",
"425 -172 CURVE",
"432 -176 LINE",
"488 -142 OFFCURVE",
"577 -73 OFFCURVE",
"577 4 CURVE SMOOTH",
"577 579 LINE",
"651 685 LINE"
);
}
);
width = 691;
},
{
layerId = "E2F25E8D-4609-4642-A608-BE80737248C7";
paths = (
{
closed = 1;
nodes = (
"244 106 LINE",
"244 579 LINE",
"318 685 LINE",
"40 685 LINE",
"114 579 LINE",
"114 106 LINE",
"40 0 LINE",
"318 0 LINE"
);
},
{
closed = 1;
nodes = (
"373 685 LINE",
"447 579 LINE",
"447 -73 LINE SMOOTH",
"447 -106 OFFCURVE",
"437 -147 OFFCURVE",
"425 -172 CURVE",
"432 -176 LINE",
"488 -142 OFFCURVE",
"577 -73 OFFCURVE",
"577 4 CURVE SMOOTH",
"577 579 LINE",
"651 685 LINE"
);
}
);
width = 691;
}
);
unicode = 0132;
},
{
glyphname = Iacute;
lastChange = "2019-07-27 02:39:24 +0000";
layers = (
{
layerId = master01;
paths = (
{
closed = 1;
nodes = (
"285 869 LINE",
"154 869 LINE",
"141 740 LINE",
"156 740 LINE"
);
},
{
closed = 1;
nodes = (
"244 106 LINE",
"244 579 LINE",
"318 685 LINE",
"40 685 LINE",
"114 579 LINE",
"114 106 LINE",
"40 0 LINE",
"318 0 LINE"
);
}
);
width = 358;
},
{
layerId = "E2F25E8D-4609-4642-A608-BE80737248C7";
paths = (
{
closed = 1;
nodes = (
"285 869 LINE",
"154 869 LINE",
"141 740 LINE",
"156 740 LINE"
);
},
{
closed = 1;
nodes = (
"244 106 LINE",
"244 579 LINE",
"318 685 LINE",
"40 685 LINE",
"114 579 LINE",
"114 106 LINE",
"40 0 LINE",
"318 0 LINE"
);
}
);
width = 358;
}
);
unicode = 00CD;
},
{
glyphname = Icircumflex;
lastChange = "2019-07-27 02:39:24 +0000";
layers = (
{
layerId = master01;
paths = (
{
closed = 1;
nodes = (
"93 740 LINE",
"182 810 LINE",
"271 740 LINE",
"286 740 LINE",
"223 869 LINE",
"140 869 LINE",
"78 740 LINE"
);
},
{
closed = 1;
nodes = (
"244 106 LINE",
"244 579 LINE",
"318 685 LINE",
"40 685 LINE",
"114 579 LINE",
"114 106 LINE",
"40 0 LINE",
"318 0 LINE"
);
}
);
width = 358;
},
{
layerId = "E2F25E8D-4609-4642-A608-BE80737248C7";
paths = (
{
closed = 1;
nodes = (
"93 740 LINE",
"182 810 LINE",
"271 740 LINE",
"286 740 LINE",
"223 869 LINE",
"140 869 LINE",
"78 740 LINE"
);
},
{
closed = 1;
nodes = (
"244 106 LINE",
"244 579 LINE",
"318 685 LINE",
"40 685 LINE",
"114 579 LINE",
"114 106 LINE",
"40 0 LINE",
"318 0 LINE"
);
}
);
width = 358;
}
);
unicode = 00CE;
},
{
glyphname = Idieresis;
lastChange = "2019-07-27 02:39:24 +0000";
layers = (
{
layerId = master01;
paths = (
{
closed = 1;
nodes = (
"106 742 LINE",
"184 830 LINE",
"106 917 LINE",
"30 830 LINE"
);
},
{
closed = 1;
nodes = (
"340 742 LINE",
"416 830 LINE",
"340 917 LINE",
"262 830 LINE"
);
},
{
closed = 1;
nodes = (
"288 106 LINE",
"288 579 LINE",
"362 685 LINE",
"84 685 LINE",
"158 579 LINE",
"158 106 LINE",
"84 0 LINE",
"362 0 LINE"
);
}
);
width = 446;
},
{
layerId = "E2F25E8D-4609-4642-A608-BE80737248C7";
paths = (
{
closed = 1;
nodes = (
"106 742 LINE",
"184 830 LINE",
"106 917 LINE",
"30 830 LINE"
);
},
{
closed = 1;
nodes = (
"340 742 LINE",
"416 830 LINE",
"340 917 LINE",
"262 830 LINE"
);
},
{
closed = 1;
nodes = (
"288 106 LINE",
"288 579 LINE",
"362 685 LINE",
"84 685 LINE",
"158 579 LINE",
"158 106 LINE",
"84 0 LINE",
"362 0 LINE"
);
}
);
width = 446;
}
);
unicode = 00CF;
},
{
glyphname = Igrave;
lastChange = "2019-07-27 02:39:24 +0000";
layers = (
{
layerId = master01;
paths = (
{
closed = 1;
nodes = (
"218 740 LINE",
"205 869 LINE",
"74 869 LINE",
"203 740 LINE"
);
},
{
closed = 1;
nodes = (
"244 106 LINE",
"244 579 LINE",
"318 685 LINE",
"40 685 LINE",
"114 579 LINE",
"114 106 LINE",
"40 0 LINE",
"318 0 LINE"
);
}
);
width = 358;
},
{
layerId = "E2F25E8D-4609-4642-A608-BE80737248C7";
paths = (
{
closed = 1;
nodes = (
"218 740 LINE",
"205 869 LINE",
"74 869 LINE",
"203 740 LINE"
);
},
{
closed = 1;
nodes = (
"244 106 LINE",
"244 579 LINE",
"318 685 LINE",
"40 685 LINE",
"114 579 LINE",
"114 106 LINE",
"40 0 LINE",
"318 0 LINE"
);
}
);
width = 358;
}
);
unicode = 00CC;
},
{
glyphname = J;
lastChange = "2019-07-27 02:39:24 +0000";
layers = (
{
layerId = master01;
paths = (
{
closed = 1;
nodes = (
"30 685 LINE",
"104 579 LINE",
"104 -73 LINE SMOOTH",
"104 -106 OFFCURVE",
"94 -147 OFFCURVE",
"82 -172 CURVE",
"89 -176 LINE",
"145 -142 OFFCURVE",
"234 -73 OFFCURVE",
"234 4 CURVE SMOOTH",
"234 579 LINE",
"308 685 LINE"
);
}
);
width = 338;
},
{
layerId = "E2F25E8D-4609-4642-A608-BE80737248C7";
paths = (
{
closed = 1;
nodes = (
"30 685 LINE",
"104 579 LINE",
"104 -73 LINE SMOOTH",
"104 -106 OFFCURVE",
"94 -147 OFFCURVE",
"82 -172 CURVE",
"89 -176 LINE",
"145 -142 OFFCURVE",
"234 -73 OFFCURVE",
"234 4 CURVE SMOOTH",
"234 579 LINE",
"308 685 LINE"
);
}
);
width = 338;
}
);
unicode = 004A;
},
{
glyphname = K;
lastChange = "2019-07-27 02:39:24 +0000";
layers = (
{
layerId = master01;
paths = (
{
closed = 1;
nodes = (
"757 0 LINE",
"639 76 LINE",
"382 421 LINE",
"557 596 LINE",
"702 686 LINE",
"470 686 LINE",
"502 611 LINE",
"392 495 LINE",
"244 345 LINE",
"244 580 LINE",
"318 686 LINE",
"40 686 LINE",
"114 580 LINE",
"114 106 LINE",
"40 0 LINE",
"318 0 LINE",
"244 106 LINE",
"244 282 LINE",
"286 324 LINE",
"474 63 LINE",
"428 0 LINE"
);
}
);
width = 769;
},
{
layerId = "E2F25E8D-4609-4642-A608-BE80737248C7";
paths = (
{
closed = 1;
nodes = (
"757 0 LINE",
"639 76 LINE",
"382 421 LINE",
"557 596 LINE",
"702 686 LINE",
"470 686 LINE",
"502 611 LINE",
"392 495 LINE",
"244 345 LINE",
"244 580 LINE",
"318 686 LINE",
"40 686 LINE",
"114 580 LINE",
"114 106 LINE",
"40 0 LINE",
"318 0 LINE",
"244 106 LINE",
"244 282 LINE",
"286 324 LINE",
"474 63 LINE",
"428 0 LINE"
);
}
);
width = 769;
}
);
unicode = 004B;
},
{
glyphname = L;
lastChange = "2019-07-27 02:39:24 +0000";
layers = (
{
layerId = master01;
paths = (
{
closed = 1;
nodes = (
"570 216 LINE",
"438 45 LINE",
"230 45 LINE",
"230 580 LINE",
"306 685 LINE",
"40 685 LINE",
"100 581 LINE",
"100 106 LINE",
"40 0 LINE",
"569 0 LINE",
"580 216 LINE"
);
}
);
width = 610;
},
{
layerId = "E2F25E8D-4609-4642-A608-BE80737248C7";
paths = (
{
closed = 1;
nodes = (
"570 216 LINE",
"438 45 LINE",
"230 45 LINE",
"230 580 LINE",
"306 685 LINE",
"40 685 LINE",
"100 581 LINE",
"100 106 LINE",
"40 0 LINE",
"569 0 LINE",
"580 216 LINE"
);
}
);
width = 610;
}
);
unicode = 004C;
},
{
glyphname = Lacute;
lastChange = "2019-07-27 02:39:24 +0000";
layers = (
{
layerId = master01;
paths = (
{
closed = 1;
nodes = (
"292 869 LINE",
"161 869 LINE",
"148 740 LINE",
"163 740 LINE"
);
},
{
closed = 1;
nodes = (
"570 216 LINE",
"438 45 LINE",
"230 45 LINE",
"230 580 LINE",
"306 685 LINE",
"40 685 LINE",
"100 581 LINE",
"100 106 LINE",
"40 0 LINE",
"569 0 LINE",
"580 216 LINE"
);
}
);
width = 610;
},
{
layerId = "E2F25E8D-4609-4642-A608-BE80737248C7";
paths = (
{
closed = 1;
nodes = (
"292 869 LINE",
"161 869 LINE",
"148 740 LINE",
"163 740 LINE"
);
},
{
closed = 1;
nodes = (
"570 216 LINE",
"438 45 LINE",
"230 45 LINE",
"230 580 LINE",
"306 685 LINE",
"40 685 LINE",
"100 581 LINE",
"100 106 LINE",
"40 0 LINE",
"569 0 LINE",
"580 216 LINE"
);
}
);
width = 610;
}
);
unicode = 0139;
},
{
glyphname = Lcaron;
lastChange = "2019-07-27 02:39:24 +0000";
layers = (
{
layerId = master01;
paths = (
{
closed = 1;
nodes = (
"435 443 OFFCURVE",
"560 516 OFFCURVE",
"560 614 CURVE SMOOTH",
"560 648 OFFCURVE",
"512 691 OFFCURVE",
"479 711 CURVE",
"396 626 LINE",
"435 595 LINE",
"448 581 OFFCURVE",
"464 569 OFFCURVE",
"464 543 CURVE SMOOTH",
"464 505 OFFCURVE",
"433 467 OFFCURVE",
"399 439 CURVE",
"413 429 LINE"
);
},
{
closed = 1;
nodes = (
"570 216 LINE",
"438 45 LINE",
"230 45 LINE",
"230 580 LINE",
"306 685 LINE",
"40 685 LINE",
"100 581 LINE",
"100 106 LINE",
"40 0 LINE",
"569 0 LINE",
"580 216 LINE"
);
}
);
width = 614;
},
{
layerId = "E2F25E8D-4609-4642-A608-BE80737248C7";
paths = (
{
closed = 1;
nodes = (
"435 443 OFFCURVE",
"560 516 OFFCURVE",
"560 614 CURVE SMOOTH",
"560 648 OFFCURVE",
"512 691 OFFCURVE",
"479 711 CURVE",
"396 626 LINE",
"435 595 LINE",
"448 581 OFFCURVE",
"464 569 OFFCURVE",
"464 543 CURVE SMOOTH",
"464 505 OFFCURVE",
"433 467 OFFCURVE",
"399 439 CURVE",
"413 429 LINE"
);
},
{
closed = 1;
nodes = (
"570 216 LINE",
"438 45 LINE",
"230 45 LINE",
"230 580 LINE",
"306 685 LINE",
"40 685 LINE",
"100 581 LINE",
"100 106 LINE",
"40 0 LINE",
"569 0 LINE",
"580 216 LINE"
);
}
);
width = 614;
}
);
unicode = 013D;
},
{
glyphname = Ldot;
lastChange = "2019-07-27 02:39:24 +0000";
layers = (
{
layerId = master01;
paths = (
{
closed = 1;
nodes = (
"570 216 LINE",
"438 45 LINE",
"230 45 LINE",
"230 580 LINE",
"306 685 LINE",
"40 685 LINE",
"100 581 LINE",
"100 106 LINE",
"40 0 LINE",
"569 0 LINE",
"580 216 LINE"
);
},
{
closed = 1;
nodes = (
"542 379 LINE",
"457 472 LINE",
"371 379 LINE",
"457 287 LINE"
);
}
);
width = 614;
},
{
layerId = "E2F25E8D-4609-4642-A608-BE80737248C7";
paths = (
{
closed = 1;
nodes = (
"570 216 LINE",
"438 45 LINE",
"230 45 LINE",
"230 580 LINE",
"306 685 LINE",
"40 685 LINE",
"100 581 LINE",
"100 106 LINE",
"40 0 LINE",
"569 0 LINE",
"580 216 LINE"
);
},
{
closed = 1;
nodes = (
"542 379 LINE",
"457 472 LINE",
"371 379 LINE",
"457 287 LINE"
);
}
);
width = 614;
}
);
unicode = 013F;
},
{
glyphname = Lslash;
lastChange = "2019-07-27 02:39:24 +0000";
layers = (
{
layerId = master01;
paths = (
{
closed = 1;
nodes = (
"589 215 LINE",
"579 215 LINE",
"440 36 LINE",
"239 36 LINE",
"239 326 LINE",
"370 364 LINE",
"370 428 LINE",
"239 389 LINE",
"239 580 LINE",
"315 685 LINE",
"49 685 LINE",
"109 581 LINE",
"109 351 LINE",
"10 322 LINE",
"10 260 LINE",
"109 289 LINE",
"109 106 LINE",
"49 0 LINE",
"578 0 LINE"
);
}
);
width = 624;
},
{
layerId = "E2F25E8D-4609-4642-A608-BE80737248C7";
paths = (
{
closed = 1;
nodes = (
"589 215 LINE",
"579 215 LINE",
"440 36 LINE",
"239 36 LINE",
"239 326 LINE",
"370 364 LINE",
"370 428 LINE",
"239 389 LINE",
"239 580 LINE",
"315 685 LINE",
"49 685 LINE",
"109 581 LINE",
"109 351 LINE",
"10 322 LINE",
"10 260 LINE",
"109 289 LINE",
"109 106 LINE",
"49 0 LINE",
"578 0 LINE"
);
}
);
width = 624;
}
);
unicode = 0141;
},
{
glyphname = M;
lastChange = "2019-07-27 02:39:24 +0000";
layers = (
{
layerId = master01;
paths = (
{
closed = 1;
nodes = (
"153 508 LINE",
"410 -12 LINE",
"417 -12 LINE",
"676 587 LINE",
"676 104 LINE",
"592 0 LINE",
"881 0 LINE",
"806 105 LINE",
"806 603 LINE",
"880 685 LINE",
"671 685 LINE",
"456 185 LINE",
"218 685 LINE",
"20 685 LINE",
"106 581 LINE",
"106 96 LINE",
"29 0 LINE",
"234 0 LINE",
"153 96 LINE"
);
}
);
width = 916;
},
{
layerId = "E2F25E8D-4609-4642-A608-BE80737248C7";
paths = (
{
closed = 1;
nodes = (
"153 508 LINE",
"410 -12 LINE",
"417 -12 LINE",
"676 587 LINE",
"676 104 LINE",
"592 0 LINE",
"881 0 LINE",
"806 105 LINE",
"806 603 LINE",
"880 685 LINE",
"671 685 LINE",
"456 185 LINE",
"218 685 LINE",
"20 685 LINE",
"106 581 LINE",
"106 96 LINE",
"29 0 LINE",
"234 0 LINE",
"153 96 LINE"
);
}
);
width = 916;
}
);
unicode = 004D;
},
{
glyphname = N;
lastChange = "2019-07-27 02:39:24 +0000";
layers = (
{
layerId = master01;
paths = (
{
closed = 1;
nodes = (
"647 592 LINE",
"721 685 LINE",
"513 685 LINE",
"599 599 LINE",
"599 114 LINE",
"189 685 LINE",
"24 685 LINE",
"121 558 LINE",
"121 93 LINE",
"47 0 LINE",
"253 0 LINE",
"168 86 LINE",
"168 489 LINE",
"535 0 LINE",
"690 0 LINE",
"647 58 LINE"
);
}
);
width = 756;
},
{
layerId = "E2F25E8D-4609-4642-A608-BE80737248C7";
paths = (
{
closed = 1;
nodes = (
"647 592 LINE",
"721 685 LINE",
"513 685 LINE",
"599 599 LINE",
"599 114 LINE",
"189 685 LINE",
"24 685 LINE",
"121 558 LINE",
"121 93 LINE",
"47 0 LINE",
"253 0 LINE",
"168 86 LINE",
"168 489 LINE",
"535 0 LINE",
"690 0 LINE",
"647 58 LINE"
);
}
);
width = 756;
}
);
unicode = 004E;
},
{
glyphname = Nacute;
lastChange = "2019-07-27 02:39:24 +0000";
layers = (
{
layerId = master01;
paths = (
{
closed = 1;
nodes = (
"490 869 LINE",
"359 869 LINE",
"346 740 LINE",
"361 740 LINE"
);
},
{
closed = 1;
nodes = (
"535 0 LINE",
"690 0 LINE",
"647 58 LINE",
"647 592 LINE",
"721 685 LINE",
"507 685 LINE",
"593 599 LINE",
"593 130 LINE",
"178 685 LINE",
"13 685 LINE",
"110 558 LINE",
"110 93 LINE",
"36 0 LINE",
"250 0 LINE",
"164 86 LINE",
"164 487 LINE"
);
}
);
width = 756;
},
{
layerId = "E2F25E8D-4609-4642-A608-BE80737248C7";
paths = (
{
closed = 1;
nodes = (
"490 869 LINE",
"359 869 LINE",
"346 740 LINE",
"361 740 LINE"
);
},
{
closed = 1;
nodes = (
"535 0 LINE",
"690 0 LINE",
"647 58 LINE",
"647 592 LINE",
"721 685 LINE",
"507 685 LINE",
"593 599 LINE",
"593 130 LINE",
"178 685 LINE",
"13 685 LINE",
"110 558 LINE",
"110 93 LINE",
"36 0 LINE",
"250 0 LINE",
"164 86 LINE",
"164 487 LINE"
);
}
);
width = 756;
}
);
unicode = 0143;
},
{
glyphname = Ncaron;
lastChange = "2019-07-27 02:39:24 +0000";
layers = (
{
layerId = master01;
paths = (
{
closed = 1;
nodes = (
"291 869 LINE",
"276 869 LINE",
"338 740 LINE",
"421 740 LINE",
"484 869 LINE",
"469 869 LINE",
"380 799 LINE"
);
},
{
closed = 1;
nodes = (
"535 0 LINE",
"690 0 LINE",
"647 58 LINE",
"647 592 LINE",
"721 685 LINE",
"507 685 LINE",
"593 599 LINE",
"593 130 LINE",
"178 685 LINE",
"13 685 LINE",
"110 558 LINE",
"110 93 LINE",
"36 0 LINE",
"250 0 LINE",
"164 86 LINE",
"164 487 LINE"
);
}
);
width = 756;
},
{
layerId = "E2F25E8D-4609-4642-A608-BE80737248C7";
paths = (
{
closed = 1;
nodes = (
"291 869 LINE",
"276 869 LINE",
"338 740 LINE",
"421 740 LINE",
"484 869 LINE",
"469 869 LINE",
"380 799 LINE"
);
},
{
closed = 1;
nodes = (
"535 0 LINE",
"690 0 LINE",
"647 58 LINE",
"647 592 LINE",
"721 685 LINE",
"507 685 LINE",
"593 599 LINE",
"593 130 LINE",
"178 685 LINE",
"13 685 LINE",
"110 558 LINE",
"110 93 LINE",
"36 0 LINE",
"250 0 LINE",
"164 86 LINE",
"164 487 LINE"
);
}
);
width = 756;
}
);
unicode = 0147;
},
{
glyphname = Ntilde;
lastChange = "2019-07-27 02:39:24 +0000";
layers = (
{
layerId = master01;
paths = (
{
closed = 1;
nodes = (
"496 842 LINE",
"481 823 OFFCURVE",
"467 808 OFFCURVE",
"452 808 CURVE SMOOTH",
"406 808 OFFCURVE",
"353 815 OFFCURVE",
"307 819 CURVE",
"244 712 LINE",
"258 703 LINE",
"271 725 OFFCURVE",
"285 746 OFFCURVE",
"298 746 CURVE SMOOTH",
"347 746 OFFCURVE",
"403 739 OFFCURVE",
"452 735 CURVE",
"511 836 LINE"
);
},
{
closed = 1;
nodes = (
"647 592 LINE",
"721 685 LINE",
"513 685 LINE",
"599 599 LINE",
"599 114 LINE",
"189 685 LINE",
"24 685 LINE",
"121 558 LINE",
"121 93 LINE",
"47 0 LINE",
"253 0 LINE",
"168 86 LINE",
"168 489 LINE",
"535 0 LINE",
"690 0 LINE",
"647 58 LINE"
);
}
);
width = 756;
},
{
layerId = "E2F25E8D-4609-4642-A608-BE80737248C7";
paths = (
{
closed = 1;
nodes = (
"496 842 LINE",
"481 823 OFFCURVE",
"467 808 OFFCURVE",
"452 808 CURVE SMOOTH",
"406 808 OFFCURVE",
"353 815 OFFCURVE",
"307 819 CURVE",
"244 712 LINE",
"258 703 LINE",
"271 725 OFFCURVE",
"285 746 OFFCURVE",
"298 746 CURVE SMOOTH",
"347 746 OFFCURVE",
"403 739 OFFCURVE",
"452 735 CURVE",
"511 836 LINE"
);
},
{
closed = 1;
nodes = (
"647 592 LINE",
"721 685 LINE",
"513 685 LINE",
"599 599 LINE",
"599 114 LINE",
"189 685 LINE",
"24 685 LINE",
"121 558 LINE",
"121 93 LINE",
"47 0 LINE",
"253 0 LINE",
"168 86 LINE",
"168 489 LINE",
"535 0 LINE",
"690 0 LINE",
"647 58 LINE"
);
}
);
width = 756;
}
);
unicode = 00D1;
},
{
glyphname = O;
lastChange = "2019-07-27 02:39:24 +0000";
layers = (
{
layerId = master01;
paths = (
{
closed = 1;
nodes = (
"703 536 OFFCURVE",
"591 698 OFFCURVE",
"407 698 CURVE SMOOTH",
"163 698 OFFCURVE",
"35 514 OFFCURVE",
"35 313 CURVE SMOOTH",
"35 150 OFFCURVE",
"147 -12 OFFCURVE",
"331 -12 CURVE SMOOTH",
"575 -12 OFFCURVE",
"703 172 OFFCURVE",
"703 373 CURVE SMOOTH"
);
},
{
closed = 1;
nodes = (
"478 655 OFFCURVE",
"563 458 OFFCURVE",
"563 252 CURVE SMOOTH",
"563 173 OFFCURVE",
"522 30 OFFCURVE",
"402 30 CURVE SMOOTH",
"260 30 OFFCURVE",
"177 228 OFFCURVE",
"177 434 CURVE SMOOTH",
"177 513 OFFCURVE",
"201 655 OFFCURVE",
"336 655 CURVE SMOOTH"
);
}
);
width = 738;
},
{
layerId = "E2F25E8D-4609-4642-A608-BE80737248C7";
paths = (
{
closed = 1;
nodes = (
"703 536 OFFCURVE",
"591 698 OFFCURVE",
"407 698 CURVE SMOOTH",
"163 698 OFFCURVE",
"35 514 OFFCURVE",
"35 313 CURVE SMOOTH",
"35 150 OFFCURVE",
"147 -12 OFFCURVE",
"331 -12 CURVE SMOOTH",
"575 -12 OFFCURVE",
"703 172 OFFCURVE",
"703 373 CURVE SMOOTH"
);
},
{
closed = 1;
nodes = (
"478 655 OFFCURVE",
"563 458 OFFCURVE",
"563 252 CURVE SMOOTH",
"563 173 OFFCURVE",
"522 30 OFFCURVE",
"402 30 CURVE SMOOTH",
"260 30 OFFCURVE",
"177 228 OFFCURVE",
"177 434 CURVE SMOOTH",
"177 513 OFFCURVE",
"201 655 OFFCURVE",
"336 655 CURVE SMOOTH"
);
}
);
width = 738;
}
);
unicode = 004F;
},
{
glyphname = Oacute;
lastChange = "2019-07-27 02:39:24 +0000";
layers = (
{
layerId = master01;
paths = (
{
closed = 1;
nodes = (
"475 869 LINE",
"344 869 LINE",
"331 740 LINE",
"346 740 LINE"
);
},
{
closed = 1;
nodes = (
"703 536 OFFCURVE",
"591 698 OFFCURVE",
"407 698 CURVE SMOOTH",
"163 698 OFFCURVE",
"35 514 OFFCURVE",
"35 313 CURVE SMOOTH",
"35 150 OFFCURVE",
"147 -12 OFFCURVE",
"331 -12 CURVE SMOOTH",
"575 -12 OFFCURVE",
"703 172 OFFCURVE",
"703 373 CURVE SMOOTH"
);
},
{
closed = 1;
nodes = (
"478 655 OFFCURVE",
"563 458 OFFCURVE",
"563 252 CURVE SMOOTH",
"563 173 OFFCURVE",
"522 30 OFFCURVE",
"402 30 CURVE SMOOTH",
"260 30 OFFCURVE",
"177 228 OFFCURVE",
"177 434 CURVE SMOOTH",
"177 513 OFFCURVE",
"201 655 OFFCURVE",
"336 655 CURVE SMOOTH"
);
}
);
width = 738;
},
{
layerId = "E2F25E8D-4609-4642-A608-BE80737248C7";
paths = (
{
closed = 1;
nodes = (
"475 869 LINE",
"344 869 LINE",
"331 740 LINE",
"346 740 LINE"
);
},
{
closed = 1;
nodes = (
"703 536 OFFCURVE",
"591 698 OFFCURVE",
"407 698 CURVE SMOOTH",
"163 698 OFFCURVE",
"35 514 OFFCURVE",
"35 313 CURVE SMOOTH",
"35 150 OFFCURVE",
"147 -12 OFFCURVE",
"331 -12 CURVE SMOOTH",
"575 -12 OFFCURVE",
"703 172 OFFCURVE",
"703 373 CURVE SMOOTH"
);
},
{
closed = 1;
nodes = (
"478 655 OFFCURVE",
"563 458 OFFCURVE",
"563 252 CURVE SMOOTH",
"563 173 OFFCURVE",
"522 30 OFFCURVE",
"402 30 CURVE SMOOTH",
"260 30 OFFCURVE",
"177 228 OFFCURVE",
"177 434 CURVE SMOOTH",
"177 513 OFFCURVE",
"201 655 OFFCURVE",
"336 655 CURVE SMOOTH"
);
}
);
width = 738;
}
);
unicode = 00D3;
},
{
glyphname = Ocircumflex;
lastChange = "2019-07-27 02:39:24 +0000";
layers = (
{
layerId = master01;
paths = (
{
closed = 1;
nodes = (
"278 740 LINE",
"367 810 LINE",
"456 740 LINE",
"471 740 LINE",
"408 869 LINE",
"325 869 LINE",
"263 740 LINE"
);
},
{
closed = 1;
nodes = (
"703 536 OFFCURVE",
"591 698 OFFCURVE",
"407 698 CURVE SMOOTH",
"163 698 OFFCURVE",
"35 514 OFFCURVE",
"35 313 CURVE SMOOTH",
"35 150 OFFCURVE",
"147 -12 OFFCURVE",
"331 -12 CURVE SMOOTH",
"575 -12 OFFCURVE",
"703 172 OFFCURVE",
"703 373 CURVE SMOOTH"
);
},
{
closed = 1;
nodes = (
"478 655 OFFCURVE",
"563 458 OFFCURVE",
"563 252 CURVE SMOOTH",
"563 173 OFFCURVE",
"522 30 OFFCURVE",
"402 30 CURVE SMOOTH",
"260 30 OFFCURVE",
"177 228 OFFCURVE",
"177 434 CURVE SMOOTH",
"177 513 OFFCURVE",
"201 655 OFFCURVE",
"336 655 CURVE SMOOTH"
);
}
);
width = 738;
},
{
layerId = "E2F25E8D-4609-4642-A608-BE80737248C7";
paths = (
{
closed = 1;
nodes = (
"278 740 LINE",
"367 810 LINE",
"456 740 LINE",
"471 740 LINE",
"408 869 LINE",
"325 869 LINE",
"263 740 LINE"
);
},
{
closed = 1;
nodes = (
"703 536 OFFCURVE",
"591 698 OFFCURVE",
"407 698 CURVE SMOOTH",
"163 698 OFFCURVE",
"35 514 OFFCURVE",
"35 313 CURVE SMOOTH",
"35 150 OFFCURVE",
"147 -12 OFFCURVE",
"331 -12 CURVE SMOOTH",
"575 -12 OFFCURVE",
"703 172 OFFCURVE",
"703 373 CURVE SMOOTH"
);
},
{
closed = 1;
nodes = (
"478 655 OFFCURVE",
"563 458 OFFCURVE",
"563 252 CURVE SMOOTH",
"563 173 OFFCURVE",
"522 30 OFFCURVE",
"402 30 CURVE SMOOTH",
"260 30 OFFCURVE",
"177 228 OFFCURVE",
"177 434 CURVE SMOOTH",
"177 513 OFFCURVE",
"201 655 OFFCURVE",
"336 655 CURVE SMOOTH"
);
}
);
width = 738;
}
);
unicode = 00D4;
},
{
glyphname = Odieresis;
lastChange = "2019-07-27 02:39:24 +0000";
layers = (
{
layerId = master01;
paths = (
{
closed = 1;
nodes = (
"249 740 LINE",
"325 828 LINE",
"249 915 LINE",
"171 828 LINE"
);
},
{
closed = 1;
nodes = (
"483 740 LINE",
"559 828 LINE",
"483 915 LINE",
"405 828 LINE"
);
},
{
closed = 1;
nodes = (
"703 536 OFFCURVE",
"591 698 OFFCURVE",
"407 698 CURVE SMOOTH",
"163 698 OFFCURVE",
"35 514 OFFCURVE",
"35 313 CURVE SMOOTH",
"35 150 OFFCURVE",
"147 -12 OFFCURVE",
"331 -12 CURVE SMOOTH",
"575 -12 OFFCURVE",
"703 172 OFFCURVE",
"703 373 CURVE SMOOTH"
);
},
{
closed = 1;
nodes = (
"478 655 OFFCURVE",
"563 458 OFFCURVE",
"563 252 CURVE SMOOTH",
"563 173 OFFCURVE",
"522 30 OFFCURVE",
"402 30 CURVE SMOOTH",
"260 30 OFFCURVE",
"177 228 OFFCURVE",
"177 434 CURVE SMOOTH",
"177 513 OFFCURVE",
"201 655 OFFCURVE",
"336 655 CURVE SMOOTH"
);
}
);
width = 738;
},
{
layerId = "E2F25E8D-4609-4642-A608-BE80737248C7";
paths = (
{
closed = 1;
nodes = (
"249 740 LINE",
"325 828 LINE",
"249 915 LINE",
"171 828 LINE"
);
},
{
closed = 1;
nodes = (
"483 740 LINE",
"559 828 LINE",
"483 915 LINE",
"405 828 LINE"
);
},
{
closed = 1;
nodes = (
"703 536 OFFCURVE",
"591 698 OFFCURVE",
"407 698 CURVE SMOOTH",
"163 698 OFFCURVE",
"35 514 OFFCURVE",
"35 313 CURVE SMOOTH",
"35 150 OFFCURVE",
"147 -12 OFFCURVE",
"331 -12 CURVE SMOOTH",
"575 -12 OFFCURVE",
"703 172 OFFCURVE",
"703 373 CURVE SMOOTH"
);
},
{
closed = 1;
nodes = (
"478 655 OFFCURVE",
"563 458 OFFCURVE",
"563 252 CURVE SMOOTH",
"563 173 OFFCURVE",
"522 30 OFFCURVE",
"402 30 CURVE SMOOTH",
"260 30 OFFCURVE",
"177 228 OFFCURVE",
"177 434 CURVE SMOOTH",
"177 513 OFFCURVE",
"201 655 OFFCURVE",
"336 655 CURVE SMOOTH"
);
}
);
width = 738;
}
);
unicode = 00D6;
},
{
glyphname = Ograve;
lastChange = "2019-07-27 02:39:24 +0000";
layers = (
{
layerId = master01;
paths = (
{
closed = 1;
nodes = (
"352 740 LINE",
"339 869 LINE",
"208 869 LINE",
"337 740 LINE"
);
},
{
closed = 1;
nodes = (
"703 536 OFFCURVE",
"591 698 OFFCURVE",
"407 698 CURVE SMOOTH",
"163 698 OFFCURVE",
"35 514 OFFCURVE",
"35 313 CURVE SMOOTH",
"35 150 OFFCURVE",
"147 -12 OFFCURVE",
"331 -12 CURVE SMOOTH",
"575 -12 OFFCURVE",
"703 172 OFFCURVE",
"703 373 CURVE SMOOTH"
);
},
{
closed = 1;
nodes = (
"478 655 OFFCURVE",
"563 458 OFFCURVE",
"563 252 CURVE SMOOTH",
"563 173 OFFCURVE",
"522 30 OFFCURVE",
"402 30 CURVE SMOOTH",
"260 30 OFFCURVE",
"177 228 OFFCURVE",
"177 434 CURVE SMOOTH",
"177 513 OFFCURVE",
"201 655 OFFCURVE",
"336 655 CURVE SMOOTH"
);
}
);
width = 738;
},
{
layerId = "E2F25E8D-4609-4642-A608-BE80737248C7";
paths = (
{
closed = 1;
nodes = (
"352 740 LINE",
"339 869 LINE",
"208 869 LINE",
"337 740 LINE"
);
},
{
closed = 1;
nodes = (
"703 536 OFFCURVE",
"591 698 OFFCURVE",
"407 698 CURVE SMOOTH",
"163 698 OFFCURVE",
"35 514 OFFCURVE",
"35 313 CURVE SMOOTH",
"35 150 OFFCURVE",
"147 -12 OFFCURVE",
"331 -12 CURVE SMOOTH",
"575 -12 OFFCURVE",
"703 172 OFFCURVE",
"703 373 CURVE SMOOTH"
);
},
{
closed = 1;
nodes = (
"478 655 OFFCURVE",
"563 458 OFFCURVE",
"563 252 CURVE SMOOTH",
"563 173 OFFCURVE",
"522 30 OFFCURVE",
"402 30 CURVE SMOOTH",
"260 30 OFFCURVE",
"177 228 OFFCURVE",
"177 434 CURVE SMOOTH",
"177 513 OFFCURVE",
"201 655 OFFCURVE",
"336 655 CURVE SMOOTH"
);
}
);
width = 738;
}
);
unicode = 00D2;
},
{
glyphname = Oslash;
lastChange = "2019-07-27 02:39:24 +0000";
layers = (
{
layerId = master01;
paths = (
{
closed = 1;
nodes = (
"655 690 LINE",
"601 630 LINE",
"553 672 OFFCURVE",
"491 698 OFFCURVE",
"417 698 CURVE SMOOTH",
"173 698 OFFCURVE",
"45 514 OFFCURVE",
"45 313 CURVE SMOOTH",
"45 234 OFFCURVE",
"71 155 OFFCURVE",
"120 95 CURVE",
"30 -5 LINE",
"97 -5 LINE",
"154 58 LINE",
"202 15 OFFCURVE",
"266 -12 OFFCURVE",
"341 -12 CURVE SMOOTH",
"585 -12 OFFCURVE",
"713 172 OFFCURVE",
"713 373 CURVE SMOOTH",
"713 453 OFFCURVE",
"686 534 OFFCURVE",
"636 594 CURVE",
"722 690 LINE"
);
},
{
closed = 1;
nodes = (
"199 276 OFFCURVE",
"187 354 OFFCURVE",
"187 434 CURVE SMOOTH",
"187 513 OFFCURVE",
"211 655 OFFCURVE",
"346 655 CURVE SMOOTH",
"417 655 OFFCURVE",
"473 606 OFFCURVE",
"512 531 CURVE",
"223 209 LINE"
);
},
{
closed = 1;
nodes = (
"560 414 OFFCURVE",
"573 334 OFFCURVE",
"573 252 CURVE SMOOTH",
"573 173 OFFCURVE",
"532 30 OFFCURVE",
"412 30 CURVE SMOOTH",
"340 30 OFFCURVE",
"283 81 OFFCURVE",
"244 159 CURVE",
"534 481 LINE"
);
}
);
width = 752;
},
{
layerId = "E2F25E8D-4609-4642-A608-BE80737248C7";
paths = (
{
closed = 1;
nodes = (
"655 690 LINE",
"601 630 LINE",
"553 672 OFFCURVE",
"491 698 OFFCURVE",
"417 698 CURVE SMOOTH",
"173 698 OFFCURVE",
"45 514 OFFCURVE",
"45 313 CURVE SMOOTH",
"45 234 OFFCURVE",
"71 155 OFFCURVE",
"120 95 CURVE",
"30 -5 LINE",
"97 -5 LINE",
"154 58 LINE",
"202 15 OFFCURVE",
"266 -12 OFFCURVE",
"341 -12 CURVE SMOOTH",
"585 -12 OFFCURVE",
"713 172 OFFCURVE",
"713 373 CURVE SMOOTH",
"713 453 OFFCURVE",
"686 534 OFFCURVE",
"636 594 CURVE",
"722 690 LINE"
);
},
{
closed = 1;
nodes = (
"199 276 OFFCURVE",
"187 354 OFFCURVE",
"187 434 CURVE SMOOTH",
"187 513 OFFCURVE",
"211 655 OFFCURVE",
"346 655 CURVE SMOOTH",
"417 655 OFFCURVE",
"473 606 OFFCURVE",
"512 531 CURVE",
"223 209 LINE"
);
},
{
closed = 1;
nodes = (
"560 414 OFFCURVE",
"573 334 OFFCURVE",
"573 252 CURVE SMOOTH",
"573 173 OFFCURVE",
"532 30 OFFCURVE",
"412 30 CURVE SMOOTH",
"340 30 OFFCURVE",
"283 81 OFFCURVE",
"244 159 CURVE",
"534 481 LINE"
);
}
);
width = 752;
}
);
unicode = 00D8;
},
{
glyphname = Otilde;
lastChange = "2019-07-27 02:39:24 +0000";
layers = (
{
layerId = master01;
paths = (
{
closed = 1;
nodes = (
"236 730 LINE",
"249 752 OFFCURVE",
"263 773 OFFCURVE",
"276 773 CURVE SMOOTH",
"325 773 OFFCURVE",
"381 766 OFFCURVE",
"430 762 CURVE",
"489 863 LINE",
"474 869 LINE",
"459 850 OFFCURVE",
"445 835 OFFCURVE",
"430 835 CURVE SMOOTH",
"384 835 OFFCURVE",
"331 842 OFFCURVE",
"285 846 CURVE",
"222 739 LINE"
);
},
{
closed = 1;
nodes = (
"703 536 OFFCURVE",
"591 698 OFFCURVE",
"407 698 CURVE SMOOTH",
"163 698 OFFCURVE",
"35 514 OFFCURVE",
"35 313 CURVE SMOOTH",
"35 150 OFFCURVE",
"147 -12 OFFCURVE",
"331 -12 CURVE SMOOTH",
"575 -12 OFFCURVE",
"703 172 OFFCURVE",
"703 373 CURVE SMOOTH"
);
},
{
closed = 1;
nodes = (
"478 655 OFFCURVE",
"563 458 OFFCURVE",
"563 252 CURVE SMOOTH",
"563 173 OFFCURVE",
"522 30 OFFCURVE",
"402 30 CURVE SMOOTH",
"260 30 OFFCURVE",
"177 228 OFFCURVE",
"177 434 CURVE SMOOTH",
"177 513 OFFCURVE",
"201 655 OFFCURVE",
"336 655 CURVE SMOOTH"
);
}
);
width = 738;
},
{
layerId = "E2F25E8D-4609-4642-A608-BE80737248C7";
paths = (
{
closed = 1;
nodes = (
"236 730 LINE",
"249 752 OFFCURVE",
"263 773 OFFCURVE",
"276 773 CURVE SMOOTH",
"325 773 OFFCURVE",
"381 766 OFFCURVE",
"430 762 CURVE",
"489 863 LINE",
"474 869 LINE",
"459 850 OFFCURVE",
"445 835 OFFCURVE",
"430 835 CURVE SMOOTH",
"384 835 OFFCURVE",
"331 842 OFFCURVE",
"285 846 CURVE",
"222 739 LINE"
);
},
{
closed = 1;
nodes = (
"703 536 OFFCURVE",
"591 698 OFFCURVE",
"407 698 CURVE SMOOTH",
"163 698 OFFCURVE",
"35 514 OFFCURVE",
"35 313 CURVE SMOOTH",
"35 150 OFFCURVE",
"147 -12 OFFCURVE",
"331 -12 CURVE SMOOTH",
"575 -12 OFFCURVE",
"703 172 OFFCURVE",
"703 373 CURVE SMOOTH"
);
},
{
closed = 1;
nodes = (
"478 655 OFFCURVE",
"563 458 OFFCURVE",
"563 252 CURVE SMOOTH",
"563 173 OFFCURVE",
"522 30 OFFCURVE",
"402 30 CURVE SMOOTH",
"260 30 OFFCURVE",
"177 228 OFFCURVE",
"177 434 CURVE SMOOTH",
"177 513 OFFCURVE",
"201 655 OFFCURVE",
"336 655 CURVE SMOOTH"
);
}
);
width = 738;
}
);
unicode = 00D5;
},
{
glyphname = OE;
lastChange = "2019-07-27 02:39:24 +0000";
layers = (
{
layerId = master01;
paths = (
{
closed = 1;
nodes = (
"632 372 LINE",
"632 649 LINE",
"802 649 LINE",
"912 481 LINE",
"924 481 LINE",
"924 685 LINE",
"407 685 LINE SMOOTH",
"163 685 OFFCURVE",
"35 514 OFFCURVE",
"35 313 CURVE SMOOTH",
"35 150 OFFCURVE",
"147 0 OFFCURVE",
"331 0 CURVE SMOOTH",
"943 0 LINE",
"954 211 LINE",
"943 213 LINE",
"811 36 LINE",
"632 36 LINE",
"632 332 LINE",
"905 332 LINE",
"905 372 LINE"
);
},
{
closed = 1;
nodes = (
"501 36 LINE",
"402 36 LINE SMOOTH",
"260 36 OFFCURVE",
"177 200 OFFCURVE",
"177 396 CURVE SMOOTH",
"177 471 OFFCURVE",
"208 648 OFFCURVE",
"378 648 CURVE SMOOTH",
"501 648 LINE"
);
}
);
width = 994;
},
{
layerId = "E2F25E8D-4609-4642-A608-BE80737248C7";
paths = (
{
closed = 1;
nodes = (
"632 372 LINE",
"632 649 LINE",
"802 649 LINE",
"912 481 LINE",
"924 481 LINE",
"924 685 LINE",
"407 685 LINE SMOOTH",
"163 685 OFFCURVE",
"35 514 OFFCURVE",
"35 313 CURVE SMOOTH",
"35 150 OFFCURVE",
"147 0 OFFCURVE",
"331 0 CURVE SMOOTH",
"943 0 LINE",
"954 211 LINE",
"943 213 LINE",
"811 36 LINE",
"632 36 LINE",
"632 332 LINE",
"905 332 LINE",
"905 372 LINE"
);
},
{
closed = 1;
nodes = (
"501 36 LINE",
"402 36 LINE SMOOTH",
"260 36 OFFCURVE",
"177 200 OFFCURVE",
"177 396 CURVE SMOOTH",
"177 471 OFFCURVE",
"208 648 OFFCURVE",
"378 648 CURVE SMOOTH",
"501 648 LINE"
);
}
);
width = 994;
}
);
unicode = 0152;
},
{
glyphname = P;
lastChange = "2019-07-27 02:39:24 +0000";
layers = (
{
layerId = master01;
paths = (
{
closed = 1;
nodes = (
"334 0 LINE",
"244 106 LINE",
"244 290 LINE",
"267 290 OFFCURVE",
"304 292 OFFCURVE",
"336 297 CURVE SMOOTH",
"441 310 OFFCURVE",
"558 379 OFFCURVE",
"558 502 CURVE SMOOTH",
"558 668 OFFCURVE",
"377 685 OFFCURVE",
"280 685 CURVE SMOOTH",
"40 685 LINE",
"114 579 LINE",
"114 106 LINE",
"40 0 LINE"
);
},
{
closed = 1;
nodes = (
"351 655 OFFCURVE",
"416 602 OFFCURVE",
"416 490 CURVE SMOOTH",
"416 378 OFFCURVE",
"353 324 OFFCURVE",
"244 324 CURVE",
"244 655 LINE"
);
}
);
width = 588;
},
{
layerId = "E2F25E8D-4609-4642-A608-BE80737248C7";
paths = (
{
closed = 1;
nodes = (
"334 0 LINE",
"244 106 LINE",
"244 290 LINE",
"267 290 OFFCURVE",
"304 292 OFFCURVE",
"336 297 CURVE SMOOTH",
"441 310 OFFCURVE",
"558 379 OFFCURVE",
"558 502 CURVE SMOOTH",
"558 668 OFFCURVE",
"377 685 OFFCURVE",
"280 685 CURVE SMOOTH",
"40 685 LINE",
"114 579 LINE",
"114 106 LINE",
"40 0 LINE"
);
},
{
closed = 1;
nodes = (
"351 655 OFFCURVE",
"416 602 OFFCURVE",
"416 490 CURVE SMOOTH",
"416 378 OFFCURVE",
"353 324 OFFCURVE",
"244 324 CURVE",
"244 655 LINE"
);
}
);
width = 588;
}
);
unicode = 0050;
},
{
glyphname = Thorn;
lastChange = "2019-07-27 02:39:24 +0000";
layers = (
{
layerId = master01;
paths = (
{
closed = 1;
nodes = (
"244 579 LINE",
"318 685 LINE",
"40 685 LINE",
"114 579 LINE",
"114 106 LINE",
"40 0 LINE",
"334 0 LINE",
"244 106 LINE",
"244 163 LINE",
"267 163 OFFCURVE",
"304 165 OFFCURVE",
"336 170 CURVE SMOOTH",
"441 183 OFFCURVE",
"558 252 OFFCURVE",
"558 375 CURVE SMOOTH",
"558 541 OFFCURVE",
"351 558 OFFCURVE",
"280 558 CURVE SMOOTH",
"244 558 LINE"
);
},
{
closed = 1;
nodes = (
"351 528 OFFCURVE",
"416 475 OFFCURVE",
"416 363 CURVE SMOOTH",
"416 251 OFFCURVE",
"353 197 OFFCURVE",
"244 197 CURVE",
"244 528 LINE"
);
}
);
width = 605;
},
{
layerId = "E2F25E8D-4609-4642-A608-BE80737248C7";
paths = (
{
closed = 1;
nodes = (
"244 579 LINE",
"318 685 LINE",
"40 685 LINE",
"114 579 LINE",
"114 106 LINE",
"40 0 LINE",
"334 0 LINE",
"244 106 LINE",
"244 163 LINE",
"267 163 OFFCURVE",
"304 165 OFFCURVE",
"336 170 CURVE SMOOTH",
"441 183 OFFCURVE",
"558 252 OFFCURVE",
"558 375 CURVE SMOOTH",
"558 541 OFFCURVE",
"351 558 OFFCURVE",
"280 558 CURVE SMOOTH",
"244 558 LINE"
);
},
{
closed = 1;
nodes = (
"351 528 OFFCURVE",
"416 475 OFFCURVE",
"416 363 CURVE SMOOTH",
"416 251 OFFCURVE",
"353 197 OFFCURVE",
"244 197 CURVE",
"244 528 LINE"
);
}
);
width = 605;
}
);
unicode = 00DE;
},
{
glyphname = Q;
lastChange = "2019-07-27 02:39:24 +0000";
layers = (
{
layerId = master01;
paths = (
{
closed = 1;
nodes = (
"548 54 LINE",
"650 124 OFFCURVE",
"703 244 OFFCURVE",
"703 373 CURVE SMOOTH",
"703 536 OFFCURVE",
"591 693 OFFCURVE",
"407 693 CURVE SMOOTH",
"163 693 OFFCURVE",
"35 514 OFFCURVE",
"35 313 CURVE SMOOTH",
"35 150 OFFCURVE",
"147 -7 OFFCURVE",
"331 -7 CURVE SMOOTH",
"345 -7 OFFCURVE",
"358 -6 OFFCURVE",
"371 -5 CURVE",
"440 -56 OFFCURVE",
"510 -99 OFFCURVE",
"582 -125 CURVE",
"586 -119 LINE"
);
},
{
closed = 1;
nodes = (
"478 650 OFFCURVE",
"563 458 OFFCURVE",
"563 252 CURVE SMOOTH",
"563 173 OFFCURVE",
"522 35 OFFCURVE",
"402 35 CURVE SMOOTH",
"260 35 OFFCURVE",
"177 228 OFFCURVE",
"177 434 CURVE SMOOTH",
"177 513 OFFCURVE",
"201 650 OFFCURVE",
"336 650 CURVE SMOOTH"
);
}
);
width = 738;
},
{
layerId = "E2F25E8D-4609-4642-A608-BE80737248C7";
paths = (
{
closed = 1;
nodes = (
"548 54 LINE",
"650 124 OFFCURVE",
"703 244 OFFCURVE",
"703 373 CURVE SMOOTH",
"703 536 OFFCURVE",
"591 693 OFFCURVE",
"407 693 CURVE SMOOTH",
"163 693 OFFCURVE",
"35 514 OFFCURVE",
"35 313 CURVE SMOOTH",
"35 150 OFFCURVE",
"147 -7 OFFCURVE",
"331 -7 CURVE SMOOTH",
"345 -7 OFFCURVE",
"358 -6 OFFCURVE",
"371 -5 CURVE",
"440 -56 OFFCURVE",
"510 -99 OFFCURVE",
"582 -125 CURVE",
"586 -119 LINE"
);
},
{
closed = 1;
nodes = (
"478 650 OFFCURVE",
"563 458 OFFCURVE",
"563 252 CURVE SMOOTH",
"563 173 OFFCURVE",
"522 35 OFFCURVE",
"402 35 CURVE SMOOTH",
"260 35 OFFCURVE",
"177 228 OFFCURVE",
"177 434 CURVE SMOOTH",
"177 513 OFFCURVE",
"201 650 OFFCURVE",
"336 650 CURVE SMOOTH"
);
}
);
width = 738;
}
);
unicode = 0051;
},
{
glyphname = R;
lastChange = "2019-07-27 02:39:24 +0000";
layers = (
{
layerId = master01;
paths = (
{
closed = 1;
nodes = (
"580 98 LINE",
"425 339 LINE",
"506 369 OFFCURVE",
"580 426 OFFCURVE",
"580 508 CURVE SMOOTH",
"580 674 OFFCURVE",
"383 685 OFFCURVE",
"293 685 CURVE SMOOTH",
"40 685 LINE",
"114 579 LINE",
"114 106 LINE",
"40 0 LINE",
"318 0 LINE",
"244 106 LINE",
"244 308 LINE",
"292 312 LINE",
"349 233 OFFCURVE",
"416 116 OFFCURVE",
"484 0 CURVE",
"686 0 LINE"
);
},
{
closed = 1;
nodes = (
"351 655 OFFCURVE",
"433 616 OFFCURVE",
"433 496 CURVE SMOOTH",
"433 394 OFFCURVE",
"340 343 OFFCURVE",
"244 341 CURVE",
"244 655 LINE"
);
}
);
width = 696;
},
{
layerId = "E2F25E8D-4609-4642-A608-BE80737248C7";
paths = (
{
closed = 1;
nodes = (
"580 98 LINE",
"425 339 LINE",
"506 369 OFFCURVE",
"580 426 OFFCURVE",
"580 508 CURVE SMOOTH",
"580 674 OFFCURVE",
"383 685 OFFCURVE",
"293 685 CURVE SMOOTH",
"40 685 LINE",
"114 579 LINE",
"114 106 LINE",
"40 0 LINE",
"318 0 LINE",
"244 106 LINE",
"244 308 LINE",
"292 312 LINE",
"349 233 OFFCURVE",
"416 116 OFFCURVE",
"484 0 CURVE",
"686 0 LINE"
);
},
{
closed = 1;
nodes = (
"351 655 OFFCURVE",
"433 616 OFFCURVE",
"433 496 CURVE SMOOTH",
"433 394 OFFCURVE",
"340 343 OFFCURVE",
"244 341 CURVE",
"244 655 LINE"
);
}
);
width = 696;
}
);
unicode = 0052;
},
{
glyphname = Racute;
lastChange = "2019-07-27 02:39:24 +0000";
layers = (
{
layerId = master01;
paths = (
{
closed = 1;
nodes = (
"430 869 LINE",
"299 869 LINE",
"286 740 LINE",
"301 740 LINE"
);
},
{
closed = 1;
nodes = (
"580 98 LINE",
"425 339 LINE",
"506 369 OFFCURVE",
"580 426 OFFCURVE",
"580 508 CURVE SMOOTH",
"580 674 OFFCURVE",
"383 685 OFFCURVE",
"293 685 CURVE SMOOTH",
"40 685 LINE",
"114 579 LINE",
"114 106 LINE",
"40 0 LINE",
"318 0 LINE",
"244 106 LINE",
"244 308 LINE",
"292 312 LINE",
"349 233 OFFCURVE",
"416 116 OFFCURVE",
"484 0 CURVE",
"686 0 LINE"
);
},
{
closed = 1;
nodes = (
"351 655 OFFCURVE",
"433 616 OFFCURVE",
"433 496 CURVE SMOOTH",
"433 394 OFFCURVE",
"340 343 OFFCURVE",
"244 341 CURVE",
"244 655 LINE"
);
}
);
width = 696;
},
{
layerId = "E2F25E8D-4609-4642-A608-BE80737248C7";
paths = (
{
closed = 1;
nodes = (
"430 869 LINE",
"299 869 LINE",
"286 740 LINE",
"301 740 LINE"
);
},
{
closed = 1;
nodes = (
"580 98 LINE",
"425 339 LINE",
"506 369 OFFCURVE",
"580 426 OFFCURVE",
"580 508 CURVE SMOOTH",
"580 674 OFFCURVE",
"383 685 OFFCURVE",
"293 685 CURVE SMOOTH",
"40 685 LINE",
"114 579 LINE",
"114 106 LINE",
"40 0 LINE",
"318 0 LINE",
"244 106 LINE",
"244 308 LINE",
"292 312 LINE",
"349 233 OFFCURVE",
"416 116 OFFCURVE",
"484 0 CURVE",
"686 0 LINE"
);
},
{
closed = 1;
nodes = (
"351 655 OFFCURVE",
"433 616 OFFCURVE",
"433 496 CURVE SMOOTH",
"433 394 OFFCURVE",
"340 343 OFFCURVE",
"244 341 CURVE",
"244 655 LINE"
);
}
);
width = 696;
}
);
unicode = 0154;
},
{
glyphname = Rcaron;
lastChange = "2019-07-27 02:39:24 +0000";
layers = (
{
layerId = master01;
paths = (
{
closed = 1;
nodes = (
"221 869 LINE",
"206 869 LINE",
"268 740 LINE",
"351 740 LINE",
"414 869 LINE",
"399 869 LINE",
"310 799 LINE"
);
},
{
closed = 1;
nodes = (
"580 98 LINE",
"425 339 LINE",
"506 369 OFFCURVE",
"580 426 OFFCURVE",
"580 508 CURVE SMOOTH",
"580 674 OFFCURVE",
"383 685 OFFCURVE",
"293 685 CURVE SMOOTH",
"40 685 LINE",
"114 579 LINE",
"114 106 LINE",
"40 0 LINE",
"318 0 LINE",
"244 106 LINE",
"244 308 LINE",
"292 312 LINE",
"349 233 OFFCURVE",
"416 116 OFFCURVE",
"484 0 CURVE",
"686 0 LINE"
);
},
{
closed = 1;
nodes = (
"351 655 OFFCURVE",
"433 616 OFFCURVE",
"433 496 CURVE SMOOTH",
"433 394 OFFCURVE",
"340 343 OFFCURVE",
"244 341 CURVE",
"244 655 LINE"
);
}
);
width = 696;
},
{
layerId = "E2F25E8D-4609-4642-A608-BE80737248C7";
paths = (
{
closed = 1;
nodes = (
"221 869 LINE",
"206 869 LINE",
"268 740 LINE",
"351 740 LINE",
"414 869 LINE",
"399 869 LINE",
"310 799 LINE"
);
},
{
closed = 1;
nodes = (
"580 98 LINE",
"425 339 LINE",
"506 369 OFFCURVE",
"580 426 OFFCURVE",
"580 508 CURVE SMOOTH",
"580 674 OFFCURVE",
"383 685 OFFCURVE",
"293 685 CURVE SMOOTH",
"40 685 LINE",
"114 579 LINE",
"114 106 LINE",
"40 0 LINE",
"318 0 LINE",
"244 106 LINE",
"244 308 LINE",
"292 312 LINE",
"349 233 OFFCURVE",
"416 116 OFFCURVE",
"484 0 CURVE",
"686 0 LINE"
);
},
{
closed = 1;
nodes = (
"351 655 OFFCURVE",
"433 616 OFFCURVE",
"433 496 CURVE SMOOTH",
"433 394 OFFCURVE",
"340 343 OFFCURVE",
"244 341 CURVE",
"244 655 LINE"
);
}
);
width = 696;
}
);
unicode = 0158;
},
{
glyphname = S;
lastChange = "2019-07-27 02:39:24 +0000";
layers = (
{
layerId = master01;
paths = (
{
closed = 1;
nodes = (
"47 28 LINE",
"96 6 OFFCURVE",
"181 -8 OFFCURVE",
"246 -8 CURVE SMOOTH",
"378 -8 OFFCURVE",
"493 55 OFFCURVE",
"493 204 CURVE SMOOTH",
"493 416 OFFCURVE",
"136 395 OFFCURVE",
"136 562 CURVE SMOOTH",
"136 620 OFFCURVE",
"176 653 OFFCURVE",
"231 653 CURVE SMOOTH",
"322 653 OFFCURVE",
"401 591 OFFCURVE",
"434 485 CURVE",
"446 484 LINE",
"446 700 LINE",
"398 685 LINE",
"255 685 LINE SMOOTH",
"107 685 OFFCURVE",
"38 595 OFFCURVE",
"38 500 CURVE SMOOTH",
"38 268 OFFCURVE",
"383 320 OFFCURVE",
"383 130 CURVE SMOOTH",
"383 57 OFFCURVE",
"324 30 OFFCURVE",
"279 30 CURVE SMOOTH",
"172 30 OFFCURVE",
"80 138 OFFCURVE",
"47 268 CURVE",
"35 268 LINE"
);
}
);
width = 533;
},
{
layerId = "E2F25E8D-4609-4642-A608-BE80737248C7";
paths = (
{
closed = 1;
nodes = (
"47 28 LINE",
"96 6 OFFCURVE",
"181 -8 OFFCURVE",
"246 -8 CURVE SMOOTH",
"378 -8 OFFCURVE",
"493 55 OFFCURVE",
"493 204 CURVE SMOOTH",
"493 416 OFFCURVE",
"136 395 OFFCURVE",
"136 562 CURVE SMOOTH",
"136 620 OFFCURVE",
"176 653 OFFCURVE",
"231 653 CURVE SMOOTH",
"322 653 OFFCURVE",
"401 591 OFFCURVE",
"434 485 CURVE",
"446 484 LINE",
"446 700 LINE",
"398 685 LINE",
"255 685 LINE SMOOTH",
"107 685 OFFCURVE",
"38 595 OFFCURVE",
"38 500 CURVE SMOOTH",
"38 268 OFFCURVE",
"383 320 OFFCURVE",
"383 130 CURVE SMOOTH",
"383 57 OFFCURVE",
"324 30 OFFCURVE",
"279 30 CURVE SMOOTH",
"172 30 OFFCURVE",
"80 138 OFFCURVE",
"47 268 CURVE",
"35 268 LINE"
);
}
);
width = 533;
}
);
unicode = 0053;
},
{
glyphname = Sacute;
lastChange = "2019-07-27 02:39:24 +0000";
layers = (
{
layerId = master01;
paths = (
{
closed = 1;
nodes = (
"382 869 LINE",
"251 869 LINE",
"238 740 LINE",
"253 740 LINE"
);
},
{
closed = 1;
nodes = (
"47 28 LINE",
"96 6 OFFCURVE",
"181 -8 OFFCURVE",
"246 -8 CURVE SMOOTH",
"378 -8 OFFCURVE",
"493 55 OFFCURVE",
"493 204 CURVE SMOOTH",
"493 416 OFFCURVE",
"136 395 OFFCURVE",
"136 562 CURVE SMOOTH",
"136 620 OFFCURVE",
"176 653 OFFCURVE",
"231 653 CURVE SMOOTH",
"322 653 OFFCURVE",
"401 591 OFFCURVE",
"434 485 CURVE",
"446 484 LINE",
"446 700 LINE",
"398 685 LINE",
"255 685 LINE SMOOTH",
"107 685 OFFCURVE",
"38 595 OFFCURVE",
"38 500 CURVE SMOOTH",
"38 268 OFFCURVE",
"383 320 OFFCURVE",
"383 130 CURVE SMOOTH",
"383 70 OFFCURVE",
"336 30 OFFCURVE",
"279 30 CURVE SMOOTH",
"172 30 OFFCURVE",
"80 138 OFFCURVE",
"47 268 CURVE",
"35 268 LINE"
);
}
);
width = 533;
},
{
layerId = "E2F25E8D-4609-4642-A608-BE80737248C7";
paths = (
{
closed = 1;
nodes = (
"382 869 LINE",
"251 869 LINE",
"238 740 LINE",
"253 740 LINE"
);
},
{
closed = 1;
nodes = (
"47 28 LINE",
"96 6 OFFCURVE",
"181 -8 OFFCURVE",
"246 -8 CURVE SMOOTH",
"378 -8 OFFCURVE",
"493 55 OFFCURVE",
"493 204 CURVE SMOOTH",
"493 416 OFFCURVE",
"136 395 OFFCURVE",
"136 562 CURVE SMOOTH",
"136 620 OFFCURVE",
"176 653 OFFCURVE",
"231 653 CURVE SMOOTH",
"322 653 OFFCURVE",
"401 591 OFFCURVE",
"434 485 CURVE",
"446 484 LINE",
"446 700 LINE",
"398 685 LINE",
"255 685 LINE SMOOTH",
"107 685 OFFCURVE",
"38 595 OFFCURVE",
"38 500 CURVE SMOOTH",
"38 268 OFFCURVE",
"383 320 OFFCURVE",
"383 130 CURVE SMOOTH",
"383 70 OFFCURVE",
"336 30 OFFCURVE",
"279 30 CURVE SMOOTH",
"172 30 OFFCURVE",
"80 138 OFFCURVE",
"47 268 CURVE",
"35 268 LINE"
);
}
);
width = 533;
}
);
unicode = 015A;
},
{
glyphname = Scaron;
lastChange = "2019-07-27 02:39:24 +0000";
layers = (
{
layerId = master01;
paths = (
{
closed = 1;
nodes = (
"190 869 LINE",
"175 869 LINE",
"237 740 LINE",
"320 740 LINE",
"383 869 LINE",
"368 869 LINE",
"279 799 LINE"
);
},
{
closed = 1;
nodes = (
"47 28 LINE",
"96 6 OFFCURVE",
"181 -8 OFFCURVE",
"246 -8 CURVE SMOOTH",
"378 -8 OFFCURVE",
"493 55 OFFCURVE",
"493 204 CURVE SMOOTH",
"493 416 OFFCURVE",
"136 395 OFFCURVE",
"136 562 CURVE SMOOTH",
"136 620 OFFCURVE",
"176 653 OFFCURVE",
"231 653 CURVE SMOOTH",
"322 653 OFFCURVE",
"401 591 OFFCURVE",
"434 485 CURVE",
"446 484 LINE",
"446 700 LINE",
"398 685 LINE",
"255 685 LINE SMOOTH",
"107 685 OFFCURVE",
"38 595 OFFCURVE",
"38 500 CURVE SMOOTH",
"38 268 OFFCURVE",
"383 320 OFFCURVE",
"383 130 CURVE SMOOTH",
"383 70 OFFCURVE",
"336 30 OFFCURVE",
"279 30 CURVE SMOOTH",
"172 30 OFFCURVE",
"80 138 OFFCURVE",
"47 268 CURVE",
"35 268 LINE"
);
}
);
width = 533;
},
{
layerId = "E2F25E8D-4609-4642-A608-BE80737248C7";
paths = (
{
closed = 1;
nodes = (
"190 869 LINE",
"175 869 LINE",
"237 740 LINE",
"320 740 LINE",
"383 869 LINE",
"368 869 LINE",
"279 799 LINE"
);
},
{
closed = 1;
nodes = (
"47 28 LINE",
"96 6 OFFCURVE",
"181 -8 OFFCURVE",
"246 -8 CURVE SMOOTH",
"378 -8 OFFCURVE",
"493 55 OFFCURVE",
"493 204 CURVE SMOOTH",
"493 416 OFFCURVE",
"136 395 OFFCURVE",
"136 562 CURVE SMOOTH",
"136 620 OFFCURVE",
"176 653 OFFCURVE",
"231 653 CURVE SMOOTH",
"322 653 OFFCURVE",
"401 591 OFFCURVE",
"434 485 CURVE",
"446 484 LINE",
"446 700 LINE",
"398 685 LINE",
"255 685 LINE SMOOTH",
"107 685 OFFCURVE",
"38 595 OFFCURVE",
"38 500 CURVE SMOOTH",
"38 268 OFFCURVE",
"383 320 OFFCURVE",
"383 130 CURVE SMOOTH",
"383 70 OFFCURVE",
"336 30 OFFCURVE",
"279 30 CURVE SMOOTH",
"172 30 OFFCURVE",
"80 138 OFFCURVE",
"47 268 CURVE",
"35 268 LINE"
);
}
);
width = 533;
}
);
unicode = 0160;
},
{
glyphname = T;
lastChange = "2019-07-27 02:39:24 +0000";
layers = (
{
layerId = master01;
paths = (
{
closed = 1;
nodes = (
"27 465 LINE",
"155 649 LINE",
"255 649 LINE",
"255 106 LINE",
"181 0 LINE",
"459 0 LINE",
"385 106 LINE",
"385 650 LINE",
"485 650 LINE",
"614 465 LINE",
"622 466 LINE",
"622 685 LINE",
"19 685 LINE",
"19 466 LINE"
);
}
);
width = 660;
},
{
layerId = "E2F25E8D-4609-4642-A608-BE80737248C7";
paths = (
{
closed = 1;
nodes = (
"27 465 LINE",
"155 649 LINE",
"255 649 LINE",
"255 106 LINE",
"181 0 LINE",
"459 0 LINE",
"385 106 LINE",
"385 650 LINE",
"485 650 LINE",
"614 465 LINE",
"622 466 LINE",
"622 685 LINE",
"19 685 LINE",
"19 466 LINE"
);
}
);
width = 660;
}
);
unicode = 0054;
},
{
glyphname = Tcaron;
lastChange = "2019-07-27 02:39:24 +0000";
layers = (
{
layerId = master01;
paths = (
{
closed = 1;
nodes = (
"225 869 LINE",
"210 869 LINE",
"272 740 LINE",
"355 740 LINE",
"418 869 LINE",
"403 869 LINE",
"314 799 LINE"
);
},
{
closed = 1;
nodes = (
"27 465 LINE",
"155 649 LINE",
"255 649 LINE",
"255 106 LINE",
"181 0 LINE",
"459 0 LINE",
"385 106 LINE",
"385 650 LINE",
"485 650 LINE",
"614 465 LINE",
"622 466 LINE",
"622 685 LINE",
"19 685 LINE",
"19 466 LINE"
);
}
);
width = 660;
},
{
layerId = "E2F25E8D-4609-4642-A608-BE80737248C7";
paths = (
{
closed = 1;
nodes = (
"225 869 LINE",
"210 869 LINE",
"272 740 LINE",
"355 740 LINE",
"418 869 LINE",
"403 869 LINE",
"314 799 LINE"
);
},
{
closed = 1;
nodes = (
"27 465 LINE",
"155 649 LINE",
"255 649 LINE",
"255 106 LINE",
"181 0 LINE",
"459 0 LINE",
"385 106 LINE",
"385 650 LINE",
"485 650 LINE",
"614 465 LINE",
"622 466 LINE",
"622 685 LINE",
"19 685 LINE",
"19 466 LINE"
);
}
);
width = 660;
}
);
unicode = 0164;
},
{
glyphname = U;
lastChange = "2019-07-27 02:39:24 +0000";
layers = (
{
layerId = master01;
paths = (
{
closed = 1;
nodes = (
"746 685 LINE",
"521 685 LINE",
"606 595 LINE",
"606 301 LINE SMOOTH",
"606 77 OFFCURVE",
"514 33 OFFCURVE",
"434 33 CURVE SMOOTH",
"337 33 OFFCURVE",
"244 51 OFFCURVE",
"244 236 CURVE SMOOTH",
"244 579 LINE",
"318 685 LINE",
"40 685 LINE",
"113 580 LINE",
"113 221 LINE SMOOTH",
"113 -15 OFFCURVE",
"336 -15 OFFCURVE",
"397 -15 CURVE SMOOTH",
"500 -15 OFFCURVE",
"577 30 OFFCURVE",
"613 96 CURVE SMOOTH",
"641 148 OFFCURVE",
"654 186 OFFCURVE",
"654 277 CURVE SMOOTH",
"654 592 LINE",
"655 595 LINE"
);
}
);
width = 781;
},
{
layerId = "E2F25E8D-4609-4642-A608-BE80737248C7";
paths = (
{
closed = 1;
nodes = (
"746 685 LINE",
"521 685 LINE",
"606 595 LINE",
"606 301 LINE SMOOTH",
"606 77 OFFCURVE",
"514 33 OFFCURVE",
"434 33 CURVE SMOOTH",
"337 33 OFFCURVE",
"244 51 OFFCURVE",
"244 236 CURVE SMOOTH",
"244 579 LINE",
"318 685 LINE",
"40 685 LINE",
"113 580 LINE",
"113 221 LINE SMOOTH",
"113 -15 OFFCURVE",
"336 -15 OFFCURVE",
"397 -15 CURVE SMOOTH",
"500 -15 OFFCURVE",
"577 30 OFFCURVE",
"613 96 CURVE SMOOTH",
"641 148 OFFCURVE",
"654 186 OFFCURVE",
"654 277 CURVE SMOOTH",
"654 592 LINE",
"655 595 LINE"
);
}
);
width = 781;
}
);
unicode = 0055;
},
{
glyphname = Uacute;
lastChange = "2019-07-27 02:39:24 +0000";
layers = (
{
layerId = master01;
paths = (
{
closed = 1;
nodes = (
"527 869 LINE",
"396 869 LINE",
"383 740 LINE",
"398 740 LINE"
);
},
{
closed = 1;
nodes = (
"318 685 LINE",
"40 685 LINE",
"113 580 LINE",
"113 221 LINE SMOOTH",
"113 -15 OFFCURVE",
"336 -15 OFFCURVE",
"397 -15 CURVE SMOOTH",
"500 -15 OFFCURVE",
"577 30 OFFCURVE",
"613 96 CURVE SMOOTH",
"641 148 OFFCURVE",
"654 186 OFFCURVE",
"654 277 CURVE SMOOTH",
"654 595 LINE",
"728 685 LINE",
"529 685 LINE",
"606 595 LINE",
"606 301 LINE SMOOTH",
"606 77 OFFCURVE",
"514 33 OFFCURVE",
"434 33 CURVE SMOOTH",
"337 33 OFFCURVE",
"244 51 OFFCURVE",
"244 236 CURVE SMOOTH",
"244 579 LINE"
);
}
);
width = 763;
},
{
layerId = "E2F25E8D-4609-4642-A608-BE80737248C7";
paths = (
{
closed = 1;
nodes = (
"527 869 LINE",
"396 869 LINE",
"383 740 LINE",
"398 740 LINE"
);
},
{
closed = 1;
nodes = (
"318 685 LINE",
"40 685 LINE",
"113 580 LINE",
"113 221 LINE SMOOTH",
"113 -15 OFFCURVE",
"336 -15 OFFCURVE",
"397 -15 CURVE SMOOTH",
"500 -15 OFFCURVE",
"577 30 OFFCURVE",
"613 96 CURVE SMOOTH",
"641 148 OFFCURVE",
"654 186 OFFCURVE",
"654 277 CURVE SMOOTH",
"654 595 LINE",
"728 685 LINE",
"529 685 LINE",
"606 595 LINE",
"606 301 LINE SMOOTH",
"606 77 OFFCURVE",
"514 33 OFFCURVE",
"434 33 CURVE SMOOTH",
"337 33 OFFCURVE",
"244 51 OFFCURVE",
"244 236 CURVE SMOOTH",
"244 579 LINE"
);
}
);
width = 763;
}
);
unicode = 00DA;
},
{
glyphname = Ucircumflex;
lastChange = "2019-07-27 02:39:24 +0000";
layers = (
{
layerId = master01;
paths = (
{
closed = 1;
nodes = (
"324 740 LINE",
"413 810 LINE",
"502 740 LINE",
"517 740 LINE",
"454 869 LINE",
"371 869 LINE",
"309 740 LINE"
);
},
{
closed = 1;
nodes = (
"318 685 LINE",
"40 685 LINE",
"113 580 LINE",
"113 221 LINE SMOOTH",
"113 -15 OFFCURVE",
"336 -15 OFFCURVE",
"397 -15 CURVE SMOOTH",
"500 -15 OFFCURVE",
"577 30 OFFCURVE",
"613 96 CURVE SMOOTH",
"641 148 OFFCURVE",
"654 186 OFFCURVE",
"654 277 CURVE SMOOTH",
"654 595 LINE",
"728 685 LINE",
"529 685 LINE",
"606 595 LINE",
"606 301 LINE SMOOTH",
"606 77 OFFCURVE",
"514 33 OFFCURVE",
"434 33 CURVE SMOOTH",
"337 33 OFFCURVE",
"244 51 OFFCURVE",
"244 236 CURVE SMOOTH",
"244 579 LINE"
);
}
);
width = 763;
},
{
layerId = "E2F25E8D-4609-4642-A608-BE80737248C7";
paths = (
{
closed = 1;
nodes = (
"324 740 LINE",
"413 810 LINE",
"502 740 LINE",
"517 740 LINE",
"454 869 LINE",
"371 869 LINE",
"309 740 LINE"
);
},
{
closed = 1;
nodes = (
"318 685 LINE",
"40 685 LINE",
"113 580 LINE",
"113 221 LINE SMOOTH",
"113 -15 OFFCURVE",
"336 -15 OFFCURVE",
"397 -15 CURVE SMOOTH",
"500 -15 OFFCURVE",
"577 30 OFFCURVE",
"613 96 CURVE SMOOTH",
"641 148 OFFCURVE",
"654 186 OFFCURVE",
"654 277 CURVE SMOOTH",
"654 595 LINE",
"728 685 LINE",
"529 685 LINE",
"606 595 LINE",
"606 301 LINE SMOOTH",
"606 77 OFFCURVE",
"514 33 OFFCURVE",
"434 33 CURVE SMOOTH",
"337 33 OFFCURVE",
"244 51 OFFCURVE",
"244 236 CURVE SMOOTH",
"244 579 LINE"
);
}
);
width = 763;
}
);
unicode = 00DB;
},
{
glyphname = Udieresis;
lastChange = "2019-07-27 02:39:24 +0000";
layers = (
{
layerId = master01;
paths = (
{
closed = 1;
nodes = (
"303 736 LINE",
"384 828 LINE",
"303 919 LINE",
"222 828 LINE"
);
},
{
closed = 1;
nodes = (
"549 736 LINE",
"629 828 LINE",
"549 919 LINE",
"467 828 LINE"
);
},
{
closed = 1;
nodes = (
"318 685 LINE",
"40 685 LINE",
"113 580 LINE",
"113 221 LINE SMOOTH",
"113 -15 OFFCURVE",
"336 -15 OFFCURVE",
"397 -15 CURVE SMOOTH",
"500 -15 OFFCURVE",
"577 30 OFFCURVE",
"613 96 CURVE SMOOTH",
"641 148 OFFCURVE",
"654 186 OFFCURVE",
"654 277 CURVE SMOOTH",
"654 595 LINE",
"728 685 LINE",
"529 685 LINE",
"606 595 LINE",
"606 301 LINE SMOOTH",
"606 77 OFFCURVE",
"514 33 OFFCURVE",
"434 33 CURVE SMOOTH",
"337 33 OFFCURVE",
"244 51 OFFCURVE",
"244 236 CURVE SMOOTH",
"244 579 LINE"
);
}
);
width = 763;
},
{
layerId = "E2F25E8D-4609-4642-A608-BE80737248C7";
paths = (
{
closed = 1;
nodes = (
"303 736 LINE",
"384 828 LINE",
"303 919 LINE",
"222 828 LINE"
);
},
{
closed = 1;
nodes = (
"549 736 LINE",
"629 828 LINE",
"549 919 LINE",
"467 828 LINE"
);
},
{
closed = 1;
nodes = (
"318 685 LINE",
"40 685 LINE",
"113 580 LINE",
"113 221 LINE SMOOTH",
"113 -15 OFFCURVE",
"336 -15 OFFCURVE",
"397 -15 CURVE SMOOTH",
"500 -15 OFFCURVE",
"577 30 OFFCURVE",
"613 96 CURVE SMOOTH",
"641 148 OFFCURVE",
"654 186 OFFCURVE",
"654 277 CURVE SMOOTH",
"654 595 LINE",
"728 685 LINE",
"529 685 LINE",
"606 595 LINE",
"606 301 LINE SMOOTH",
"606 77 OFFCURVE",
"514 33 OFFCURVE",
"434 33 CURVE SMOOTH",
"337 33 OFFCURVE",
"244 51 OFFCURVE",
"244 236 CURVE SMOOTH",
"244 579 LINE"
);
}
);
width = 763;
}
);
unicode = 00DC;
},
{
glyphname = Ugrave;
lastChange = "2019-07-27 02:39:24 +0000";
layers = (
{
layerId = master01;
paths = (
{
closed = 1;
nodes = (
"453 740 LINE",
"440 869 LINE",
"309 869 LINE",
"438 740 LINE"
);
},
{
closed = 1;
nodes = (
"318 685 LINE",
"40 685 LINE",
"113 580 LINE",
"113 221 LINE SMOOTH",
"113 -15 OFFCURVE",
"336 -15 OFFCURVE",
"397 -15 CURVE SMOOTH",
"500 -15 OFFCURVE",
"577 30 OFFCURVE",
"613 96 CURVE SMOOTH",
"641 148 OFFCURVE",
"654 186 OFFCURVE",
"654 277 CURVE SMOOTH",
"654 595 LINE",
"728 685 LINE",
"529 685 LINE",
"606 595 LINE",
"606 301 LINE SMOOTH",
"606 77 OFFCURVE",
"514 33 OFFCURVE",
"434 33 CURVE SMOOTH",
"337 33 OFFCURVE",
"244 51 OFFCURVE",
"244 236 CURVE SMOOTH",
"244 579 LINE"
);
}
);
width = 763;
},
{
layerId = "E2F25E8D-4609-4642-A608-BE80737248C7";
paths = (
{
closed = 1;
nodes = (
"453 740 LINE",
"440 869 LINE",
"309 869 LINE",
"438 740 LINE"
);
},
{
closed = 1;
nodes = (
"318 685 LINE",
"40 685 LINE",
"113 580 LINE",
"113 221 LINE SMOOTH",
"113 -15 OFFCURVE",
"336 -15 OFFCURVE",
"397 -15 CURVE SMOOTH",
"500 -15 OFFCURVE",
"577 30 OFFCURVE",
"613 96 CURVE SMOOTH",
"641 148 OFFCURVE",
"654 186 OFFCURVE",
"654 277 CURVE SMOOTH",
"654 595 LINE",
"728 685 LINE",
"529 685 LINE",
"606 595 LINE",
"606 301 LINE SMOOTH",
"606 77 OFFCURVE",
"514 33 OFFCURVE",
"434 33 CURVE SMOOTH",
"337 33 OFFCURVE",
"244 51 OFFCURVE",
"244 236 CURVE SMOOTH",
"244 579 LINE"
);
}
);
width = 763;
}
);
unicode = 00D9;
},
{
glyphname = Uring;
lastChange = "2019-07-27 02:39:24 +0000";
layers = (
{
layerId = master01;
paths = (
{
closed = 1;
nodes = (
"315 754 OFFCURVE",
"359 710 OFFCURVE",
"413 710 CURVE SMOOTH",
"467 710 OFFCURVE",
"511 754 OFFCURVE",
"511 808 CURVE SMOOTH",
"511 862 OFFCURVE",
"467 906 OFFCURVE",
"413 906 CURVE SMOOTH",
"359 906 OFFCURVE",
"315 862 OFFCURVE",
"315 808 CURVE SMOOTH"
);
},
{
closed = 1;
nodes = (
"349 843 OFFCURVE",
"378 872 OFFCURVE",
"413 872 CURVE SMOOTH",
"448 872 OFFCURVE",
"477 843 OFFCURVE",
"477 808 CURVE SMOOTH",
"477 773 OFFCURVE",
"448 744 OFFCURVE",
"413 744 CURVE SMOOTH",
"378 744 OFFCURVE",
"349 773 OFFCURVE",
"349 808 CURVE SMOOTH"
);
},
{
closed = 1;
nodes = (
"318 685 LINE",
"40 685 LINE",
"113 580 LINE",
"113 221 LINE SMOOTH",
"113 -15 OFFCURVE",
"336 -15 OFFCURVE",
"397 -15 CURVE SMOOTH",
"500 -15 OFFCURVE",
"577 30 OFFCURVE",
"613 96 CURVE SMOOTH",
"641 148 OFFCURVE",
"654 186 OFFCURVE",
"654 277 CURVE SMOOTH",
"654 595 LINE",
"728 685 LINE",
"529 685 LINE",
"606 595 LINE",
"606 301 LINE SMOOTH",
"606 77 OFFCURVE",
"514 33 OFFCURVE",
"434 33 CURVE SMOOTH",
"337 33 OFFCURVE",
"244 51 OFFCURVE",
"244 236 CURVE SMOOTH",
"244 579 LINE"
);
}
);
width = 763;
},
{
layerId = "E2F25E8D-4609-4642-A608-BE80737248C7";
paths = (
{
closed = 1;
nodes = (
"315 754 OFFCURVE",
"359 710 OFFCURVE",
"413 710 CURVE SMOOTH",
"467 710 OFFCURVE",
"511 754 OFFCURVE",
"511 808 CURVE SMOOTH",
"511 862 OFFCURVE",
"467 906 OFFCURVE",
"413 906 CURVE SMOOTH",
"359 906 OFFCURVE",
"315 862 OFFCURVE",
"315 808 CURVE SMOOTH"
);
},
{
closed = 1;
nodes = (
"349 843 OFFCURVE",
"378 872 OFFCURVE",
"413 872 CURVE SMOOTH",
"448 872 OFFCURVE",
"477 843 OFFCURVE",
"477 808 CURVE SMOOTH",
"477 773 OFFCURVE",
"448 744 OFFCURVE",
"413 744 CURVE SMOOTH",
"378 744 OFFCURVE",
"349 773 OFFCURVE",
"349 808 CURVE SMOOTH"
);
},
{
closed = 1;
nodes = (
"318 685 LINE",
"40 685 LINE",
"113 580 LINE",
"113 221 LINE SMOOTH",
"113 -15 OFFCURVE",
"336 -15 OFFCURVE",
"397 -15 CURVE SMOOTH",
"500 -15 OFFCURVE",
"577 30 OFFCURVE",
"613 96 CURVE SMOOTH",
"641 148 OFFCURVE",
"654 186 OFFCURVE",
"654 277 CURVE SMOOTH",
"654 595 LINE",
"728 685 LINE",
"529 685 LINE",
"606 595 LINE",
"606 301 LINE SMOOTH",
"606 77 OFFCURVE",
"514 33 OFFCURVE",
"434 33 CURVE SMOOTH",
"337 33 OFFCURVE",
"244 51 OFFCURVE",
"244 236 CURVE SMOOTH",
"244 579 LINE"
);
}
);
width = 763;
}
);
unicode = 016E;
},
{
glyphname = V;
lastChange = "2019-07-27 02:39:24 +0000";
layers = (
{
layerId = master01;
paths = (
{
closed = 1;
nodes = (
"370 185 LINE",
"196 624 LINE",
"276 685 LINE",
"3 685 LINE",
"55 626 LINE",
"319 -20 LINE",
"367 -20 LINE",
"606 596 LINE",
"676 685 LINE",
"467 685 LINE",
"552 599 LINE",
"383 138 LINE"
);
}
);
width = 681;
},
{
layerId = "E2F25E8D-4609-4642-A608-BE80737248C7";
paths = (
{
closed = 1;
nodes = (
"370 185 LINE",
"196 624 LINE",
"276 685 LINE",
"3 685 LINE",
"55 626 LINE",
"319 -20 LINE",
"367 -20 LINE",
"606 596 LINE",
"676 685 LINE",
"467 685 LINE",
"552 599 LINE",
"383 138 LINE"
);
}
);
width = 681;
}
);
unicode = 0056;
},
{
glyphname = W;
lastChange = "2019-07-27 02:39:24 +0000";
layers = (
{
layerId = master01;
paths = (
{
closed = 1;
nodes = (
"719 185 LINE",
"564 624 LINE",
"645 685 LINE",
"372 685 LINE",
"422 628 LINE",
"494 436 LINE",
"380 148 LINE",
"370 185 LINE",
"206 624 LINE",
"286 685 LINE",
"13 685 LINE",
"65 626 LINE",
"313 -12 LINE",
"374 -12 LINE",
"516 377 LINE",
"661 -12 LINE",
"722 -12 LINE",
"936 599 LINE",
"1004 685 LINE",
"795 685 LINE",
"881 598 LINE",
"731 141 LINE"
);
}
);
width = 1005;
},
{
layerId = "E2F25E8D-4609-4642-A608-BE80737248C7";
paths = (
{
closed = 1;
nodes = (
"719 185 LINE",
"564 624 LINE",
"645 685 LINE",
"372 685 LINE",
"422 628 LINE",
"494 436 LINE",
"380 148 LINE",
"370 185 LINE",
"206 624 LINE",
"286 685 LINE",
"13 685 LINE",
"65 626 LINE",
"313 -12 LINE",
"374 -12 LINE",
"516 377 LINE",
"661 -12 LINE",
"722 -12 LINE",
"936 599 LINE",
"1004 685 LINE",
"795 685 LINE",
"881 598 LINE",
"731 141 LINE"
);
}
);
width = 1005;
}
);
unicode = 0057;
},
{
glyphname = Wacute;
lastChange = "2019-07-27 02:39:24 +0000";
layers = (
{
layerId = master01;
paths = (
{
closed = 1;
nodes = (
"638 869 LINE",
"507 869 LINE",
"494 740 LINE",
"509 740 LINE"
);
},
{
closed = 1;
nodes = (
"719 185 LINE",
"564 624 LINE",
"645 685 LINE",
"372 685 LINE",
"422 628 LINE",
"494 436 LINE",
"380 148 LINE",
"370 185 LINE",
"206 624 LINE",
"286 685 LINE",
"13 685 LINE",
"65 626 LINE",
"313 -12 LINE",
"374 -12 LINE",
"516 377 LINE",
"661 -12 LINE",
"722 -12 LINE",
"936 599 LINE",
"1004 685 LINE",
"795 685 LINE",
"881 598 LINE",
"731 141 LINE"
);
}
);
width = 1005;
},
{
layerId = "E2F25E8D-4609-4642-A608-BE80737248C7";
paths = (
{
closed = 1;
nodes = (
"638 869 LINE",
"507 869 LINE",
"494 740 LINE",
"509 740 LINE"
);
},
{
closed = 1;
nodes = (
"719 185 LINE",
"564 624 LINE",
"645 685 LINE",
"372 685 LINE",
"422 628 LINE",
"494 436 LINE",
"380 148 LINE",
"370 185 LINE",
"206 624 LINE",
"286 685 LINE",
"13 685 LINE",
"65 626 LINE",
"313 -12 LINE",
"374 -12 LINE",
"516 377 LINE",
"661 -12 LINE",
"722 -12 LINE",
"936 599 LINE",
"1004 685 LINE",
"795 685 LINE",
"881 598 LINE",
"731 141 LINE"
);
}
);
width = 1005;
}
);
unicode = 1E82;
},
{
glyphname = Wcircumflex;
lastChange = "2019-07-27 02:39:24 +0000";
layers = (
{
layerId = master01;
paths = (
{
closed = 1;
nodes = (
"423 740 LINE",
"512 810 LINE",
"601 740 LINE",
"616 740 LINE",
"553 869 LINE",
"470 869 LINE",
"408 740 LINE"
);
},
{
closed = 1;
nodes = (
"719 185 LINE",
"564 624 LINE",
"645 685 LINE",
"372 685 LINE",
"422 628 LINE",
"494 436 LINE",
"380 148 LINE",
"370 185 LINE",
"206 624 LINE",
"286 685 LINE",
"13 685 LINE",
"65 626 LINE",
"313 -12 LINE",
"374 -12 LINE",
"516 377 LINE",
"661 -12 LINE",
"722 -12 LINE",
"936 599 LINE",
"1004 685 LINE",
"795 685 LINE",
"881 598 LINE",
"731 141 LINE"
);
}
);
width = 1005;
},
{
layerId = "E2F25E8D-4609-4642-A608-BE80737248C7";
paths = (
{
closed = 1;
nodes = (
"423 740 LINE",
"512 810 LINE",
"601 740 LINE",
"616 740 LINE",
"553 869 LINE",
"470 869 LINE",
"408 740 LINE"
);
},
{
closed = 1;
nodes = (
"719 185 LINE",
"564 624 LINE",
"645 685 LINE",
"372 685 LINE",
"422 628 LINE",
"494 436 LINE",
"380 148 LINE",
"370 185 LINE",
"206 624 LINE",
"286 685 LINE",
"13 685 LINE",
"65 626 LINE",
"313 -12 LINE",
"374 -12 LINE",
"516 377 LINE",
"661 -12 LINE",
"722 -12 LINE",
"936 599 LINE",
"1004 685 LINE",
"795 685 LINE",
"881 598 LINE",
"731 141 LINE"
);
}
);
width = 1005;
}
);
unicode = 0174;
},
{
glyphname = Wdieresis;
lastChange = "2019-07-27 02:39:24 +0000";
layers = (
{
layerId = master01;
paths = (
{
closed = 1;
nodes = (
"391 741 LINE",
"467 829 LINE",
"391 916 LINE",
"313 829 LINE"
);
},
{
closed = 1;
nodes = (
"625 741 LINE",
"701 829 LINE",
"625 916 LINE",
"547 829 LINE"
);
},
{
closed = 1;
nodes = (
"719 185 LINE",
"564 624 LINE",
"645 685 LINE",
"372 685 LINE",
"422 628 LINE",
"494 436 LINE",
"380 148 LINE",
"370 185 LINE",
"206 624 LINE",
"286 685 LINE",
"13 685 LINE",
"65 626 LINE",
"313 -12 LINE",
"374 -12 LINE",
"516 377 LINE",
"661 -12 LINE",
"722 -12 LINE",
"936 599 LINE",
"1004 685 LINE",
"795 685 LINE",
"881 598 LINE",
"731 141 LINE"
);
}
);
width = 1005;
},
{
layerId = "E2F25E8D-4609-4642-A608-BE80737248C7";
paths = (
{
closed = 1;
nodes = (
"391 741 LINE",
"467 829 LINE",
"391 916 LINE",
"313 829 LINE"
);
},
{
closed = 1;
nodes = (
"625 741 LINE",
"701 829 LINE",
"625 916 LINE",
"547 829 LINE"
);
},
{
closed = 1;
nodes = (
"719 185 LINE",
"564 624 LINE",
"645 685 LINE",
"372 685 LINE",
"422 628 LINE",
"494 436 LINE",
"380 148 LINE",
"370 185 LINE",
"206 624 LINE",
"286 685 LINE",
"13 685 LINE",
"65 626 LINE",
"313 -12 LINE",
"374 -12 LINE",
"516 377 LINE",
"661 -12 LINE",
"722 -12 LINE",
"936 599 LINE",
"1004 685 LINE",
"795 685 LINE",
"881 598 LINE",
"731 141 LINE"
);
}
);
width = 1005;
}
);
unicode = 1E84;
},
{
glyphname = Wgrave;
lastChange = "2019-07-27 02:39:24 +0000";
layers = (
{
layerId = master01;
paths = (
{
closed = 1;
nodes = (
"527 740 LINE",
"514 869 LINE",
"383 869 LINE",
"512 740 LINE"
);
},
{
closed = 1;
nodes = (
"719 185 LINE",
"564 624 LINE",
"645 685 LINE",
"372 685 LINE",
"422 628 LINE",
"494 436 LINE",
"380 148 LINE",
"370 185 LINE",
"206 624 LINE",
"286 685 LINE",
"13 685 LINE",
"65 626 LINE",
"313 -12 LINE",
"374 -12 LINE",
"516 377 LINE",
"661 -12 LINE",
"722 -12 LINE",
"936 599 LINE",
"1004 685 LINE",
"795 685 LINE",
"881 598 LINE",
"731 141 LINE"
);
}
);
width = 1005;
},
{
layerId = "E2F25E8D-4609-4642-A608-BE80737248C7";
paths = (
{
closed = 1;
nodes = (
"527 740 LINE",
"514 869 LINE",
"383 869 LINE",
"512 740 LINE"
);
},
{
closed = 1;
nodes = (
"719 185 LINE",
"564 624 LINE",
"645 685 LINE",
"372 685 LINE",
"422 628 LINE",
"494 436 LINE",
"380 148 LINE",
"370 185 LINE",
"206 624 LINE",
"286 685 LINE",
"13 685 LINE",
"65 626 LINE",
"313 -12 LINE",
"374 -12 LINE",
"516 377 LINE",
"661 -12 LINE",
"722 -12 LINE",
"936 599 LINE",
"1004 685 LINE",
"795 685 LINE",
"881 598 LINE",
"731 141 LINE"
);
}
);
width = 1005;
}
);
unicode = 1E80;
},
{
glyphname = X;
lastChange = "2019-07-27 02:39:24 +0000";
layers = (
{
layerId = master01;
paths = (
{
closed = 1;
nodes = (
"382 0 LINE",
"722 0 LINE",
"615 106 LINE",
"418 371 LINE",
"577 582 LINE",
"695 685 LINE",
"435 685 LINE",
"508 584 LINE",
"384 413 LINE",
"250 588 LINE",
"330 685 LINE",
"14 685 LINE",
"117 579 LINE",
"292 341 LINE",
"109 104 LINE",
"4 0 LINE",
"263 0 LINE",
"183 94 LINE",
"327 294 LINE",
"471 99 LINE"
);
}
);
width = 722;
},
{
layerId = "E2F25E8D-4609-4642-A608-BE80737248C7";
paths = (
{
closed = 1;
nodes = (
"382 0 LINE",
"722 0 LINE",
"615 106 LINE",
"418 371 LINE",
"577 582 LINE",
"695 685 LINE",
"435 685 LINE",
"508 584 LINE",
"384 413 LINE",
"250 588 LINE",
"330 685 LINE",
"14 685 LINE",
"117 579 LINE",
"292 341 LINE",
"109 104 LINE",
"4 0 LINE",
"263 0 LINE",
"183 94 LINE",
"327 294 LINE",
"471 99 LINE"
);
}
);
width = 722;
}
);
unicode = 0058;
},
{
glyphname = Y;
lastChange = "2019-07-27 02:39:24 +0000";
layers = (
{
layerId = master01;
paths = (
{
closed = 1;
nodes = (
"409 318 LINE",
"576 591 LINE",
"679 685 LINE",
"425 685 LINE",
"510 581 LINE",
"379 357 LINE",
"363 390 LINE",
"245 579 LINE",
"246 579 LINE",
"331 685 LINE",
"10 685 LINE",
"101 579 LINE",
"279 281 LINE",
"279 106 LINE",
"205 0 LINE",
"483 0 LINE",
"409 106 LINE"
);
}
);
width = 689;
},
{
layerId = "E2F25E8D-4609-4642-A608-BE80737248C7";
paths = (
{
closed = 1;
nodes = (
"409 318 LINE",
"576 591 LINE",
"679 685 LINE",
"425 685 LINE",
"510 581 LINE",
"379 357 LINE",
"363 390 LINE",
"245 579 LINE",
"246 579 LINE",
"331 685 LINE",
"10 685 LINE",
"101 579 LINE",
"279 281 LINE",
"279 106 LINE",
"205 0 LINE",
"483 0 LINE",
"409 106 LINE"
);
}
);
width = 689;
}
);
unicode = 0059;
},
{
glyphname = Yacute;
lastChange = "2019-07-27 02:39:24 +0000";
layers = (
{
layerId = master01;
paths = (
{
closed = 1;
nodes = (
"365 740 LINE",
"494 869 LINE",
"363 869 LINE",
"350 740 LINE"
);
},
{
closed = 1;
nodes = (
"409 101 LINE",
"409 318 LINE",
"576 591 LINE",
"679 685 LINE",
"425 685 LINE",
"510 581 LINE",
"379 357 LINE",
"363 390 LINE",
"245 579 LINE",
"246 579 LINE",
"331 685 LINE",
"10 685 LINE",
"101 579 LINE",
"279 281 LINE",
"279 101 LINE",
"195 0 LINE",
"493 0 LINE"
);
}
);
width = 689;
},
{
layerId = "E2F25E8D-4609-4642-A608-BE80737248C7";
paths = (
{
closed = 1;
nodes = (
"365 740 LINE",
"494 869 LINE",
"363 869 LINE",
"350 740 LINE"
);
},
{
closed = 1;
nodes = (
"409 101 LINE",
"409 318 LINE",
"576 591 LINE",
"679 685 LINE",
"425 685 LINE",
"510 581 LINE",
"379 357 LINE",
"363 390 LINE",
"245 579 LINE",
"246 579 LINE",
"331 685 LINE",
"10 685 LINE",
"101 579 LINE",
"279 281 LINE",
"279 101 LINE",
"195 0 LINE",
"493 0 LINE"
);
}
);
width = 689;
}
);
unicode = 00DD;
},
{
glyphname = Ycircumflex;
lastChange = "2019-07-27 02:39:24 +0000";
layers = (
{
layerId = master01;
paths = (
{
closed = 1;
nodes = (
"287 740 LINE",
"376 810 LINE",
"465 740 LINE",
"480 740 LINE",
"417 869 LINE",
"334 869 LINE",
"272 740 LINE"
);
},
{
closed = 1;
nodes = (
"409 318 LINE",
"576 591 LINE",
"679 685 LINE",
"425 685 LINE",
"510 581 LINE",
"379 357 LINE",
"363 390 LINE",
"245 579 LINE",
"246 579 LINE",
"331 685 LINE",
"10 685 LINE",
"101 579 LINE",
"279 281 LINE",
"279 101 LINE",
"195 0 LINE",
"493 0 LINE",
"409 101 LINE"
);
}
);
width = 689;
},
{
layerId = "E2F25E8D-4609-4642-A608-BE80737248C7";
paths = (
{
closed = 1;
nodes = (
"287 740 LINE",
"376 810 LINE",
"465 740 LINE",
"480 740 LINE",
"417 869 LINE",
"334 869 LINE",
"272 740 LINE"
);
},
{
closed = 1;
nodes = (
"409 318 LINE",
"576 591 LINE",
"679 685 LINE",
"425 685 LINE",
"510 581 LINE",
"379 357 LINE",
"363 390 LINE",
"245 579 LINE",
"246 579 LINE",
"331 685 LINE",
"10 685 LINE",
"101 579 LINE",
"279 281 LINE",
"279 101 LINE",
"195 0 LINE",
"493 0 LINE",
"409 101 LINE"
);
}
);
width = 689;
}
);
unicode = 0176;
},
{
glyphname = Ydieresis;
lastChange = "2019-07-27 02:39:24 +0000";
layers = (
{
layerId = master01;
paths = (
{
closed = 1;
nodes = (
"250 742 LINE",
"327 830 LINE",
"250 917 LINE",
"173 830 LINE"
);
},
{
closed = 1;
nodes = (
"484 742 LINE",
"560 830 LINE",
"484 917 LINE",
"406 830 LINE"
);
},
{
closed = 1;
nodes = (
"409 318 LINE",
"576 591 LINE",
"679 685 LINE",
"425 685 LINE",
"510 581 LINE",
"379 357 LINE",
"363 390 LINE",
"245 579 LINE",
"246 579 LINE",
"331 685 LINE",
"10 685 LINE",
"101 579 LINE",
"279 281 LINE",
"279 101 LINE",
"195 0 LINE",
"493 0 LINE",
"409 101 LINE"
);
}
);
width = 689;
},
{
layerId = "E2F25E8D-4609-4642-A608-BE80737248C7";
paths = (
{
closed = 1;
nodes = (
"250 742 LINE",
"327 830 LINE",
"250 917 LINE",
"173 830 LINE"
);
},
{
closed = 1;
nodes = (
"484 742 LINE",
"560 830 LINE",
"484 917 LINE",
"406 830 LINE"
);
},
{
closed = 1;
nodes = (
"409 318 LINE",
"576 591 LINE",
"679 685 LINE",
"425 685 LINE",
"510 581 LINE",
"379 357 LINE",
"363 390 LINE",
"245 579 LINE",
"246 579 LINE",
"331 685 LINE",
"10 685 LINE",
"101 579 LINE",
"279 281 LINE",
"279 101 LINE",
"195 0 LINE",
"493 0 LINE",
"409 101 LINE"
);
}
);
width = 689;
}
);
unicode = 0178;
},
{
glyphname = Ygrave;
lastChange = "2019-07-27 02:39:24 +0000";
layers = (
{
layerId = master01;
paths = (
{
closed = 1;
nodes = (
"390 740 LINE",
"377 869 LINE",
"246 869 LINE",
"375 740 LINE"
);
},
{
closed = 1;
nodes = (
"409 318 LINE",
"576 591 LINE",
"679 685 LINE",
"425 685 LINE",
"510 581 LINE",
"379 357 LINE",
"363 390 LINE",
"245 579 LINE",
"246 579 LINE",
"331 685 LINE",
"10 685 LINE",
"101 579 LINE",
"279 281 LINE",
"279 101 LINE",
"195 0 LINE",
"493 0 LINE",
"409 101 LINE"
);
}
);
width = 689;
},
{
layerId = "E2F25E8D-4609-4642-A608-BE80737248C7";
paths = (
{
closed = 1;
nodes = (
"390 740 LINE",
"377 869 LINE",
"246 869 LINE",
"375 740 LINE"
);
},
{
closed = 1;
nodes = (
"409 318 LINE",
"576 591 LINE",
"679 685 LINE",
"425 685 LINE",
"510 581 LINE",
"379 357 LINE",
"363 390 LINE",
"245 579 LINE",
"246 579 LINE",
"331 685 LINE",
"10 685 LINE",
"101 579 LINE",
"279 281 LINE",
"279 101 LINE",
"195 0 LINE",
"493 0 LINE",
"409 101 LINE"
);
}
);
width = 689;
}
);
unicode = 1EF2;
},
{
glyphname = Z;
lastChange = "2019-07-27 02:39:24 +0000";
layers = (
{
layerId = master01;
paths = (
{
closed = 1;
nodes = (
"619 216 LINE",
"481 44 LINE",
"198 44 LINE",
"622 670 LINE",
"615 684 LINE",
"186 684 LINE",
"80 694 LINE",
"74 465 LINE",
"78 465 LINE",
"210 638 LINE",
"448 638 LINE",
"30 11 LINE",
"37 -1 LINE",
"612 -1 LINE",
"623 216 LINE"
);
}
);
width = 668;
},
{
layerId = "E2F25E8D-4609-4642-A608-BE80737248C7";
paths = (
{
closed = 1;
nodes = (
"619 216 LINE",
"481 44 LINE",
"198 44 LINE",
"622 670 LINE",
"615 684 LINE",
"186 684 LINE",
"80 694 LINE",
"74 465 LINE",
"78 465 LINE",
"210 638 LINE",
"448 638 LINE",
"30 11 LINE",
"37 -1 LINE",
"612 -1 LINE",
"623 216 LINE"
);
}
);
width = 668;
}
);
unicode = 005A;
},
{
glyphname = Zacute;
lastChange = "2019-07-27 02:39:24 +0000";
layers = (
{
layerId = master01;
paths = (
{
closed = 1;
nodes = (
"431 869 LINE",
"305 869 LINE",
"287 740 LINE",
"302 740 LINE"
);
},
{
closed = 1;
nodes = (
"622 671 LINE",
"615 685 LINE",
"186 685 LINE",
"80 695 LINE",
"74 468 LINE",
"82 468 LINE",
"216 649 LINE",
"455 649 LINE",
"30 12 LINE",
"37 0 LINE",
"612 0 LINE",
"623 215 LINE",
"615 215 LINE",
"476 36 LINE",
"192 36 LINE"
);
}
);
width = 668;
},
{
layerId = "E2F25E8D-4609-4642-A608-BE80737248C7";
paths = (
{
closed = 1;
nodes = (
"431 869 LINE",
"305 869 LINE",
"287 740 LINE",
"302 740 LINE"
);
},
{
closed = 1;
nodes = (
"622 671 LINE",
"615 685 LINE",
"186 685 LINE",
"80 695 LINE",
"74 468 LINE",
"82 468 LINE",
"216 649 LINE",
"455 649 LINE",
"30 12 LINE",
"37 0 LINE",
"612 0 LINE",
"623 215 LINE",
"615 215 LINE",
"476 36 LINE",
"192 36 LINE"
);
}
);
width = 668;
}
);
unicode = 0179;
},
{
glyphname = Zcaron;
lastChange = "2019-07-27 02:39:24 +0000";
layers = (
{
layerId = master01;
paths = (
{
closed = 1;
nodes = (
"253 869 LINE",
"238 869 LINE",
"300 740 LINE",
"383 740 LINE",
"446 869 LINE",
"431 869 LINE",
"342 799 LINE"
);
},
{
closed = 1;
nodes = (
"622 671 LINE",
"615 685 LINE",
"186 685 LINE",
"80 695 LINE",
"74 468 LINE",
"82 468 LINE",
"216 649 LINE",
"455 649 LINE",
"30 12 LINE",
"37 0 LINE",
"612 0 LINE",
"623 215 LINE",
"615 215 LINE",
"476 36 LINE",
"192 36 LINE"
);
}
);
width = 668;
},
{
layerId = "E2F25E8D-4609-4642-A608-BE80737248C7";
paths = (
{
closed = 1;
nodes = (
"253 869 LINE",
"238 869 LINE",
"300 740 LINE",
"383 740 LINE",
"446 869 LINE",
"431 869 LINE",
"342 799 LINE"
);
},
{
closed = 1;
nodes = (
"622 671 LINE",
"615 685 LINE",
"186 685 LINE",
"80 695 LINE",
"74 468 LINE",
"82 468 LINE",
"216 649 LINE",
"455 649 LINE",
"30 12 LINE",
"37 0 LINE",
"612 0 LINE",
"623 215 LINE",
"615 215 LINE",
"476 36 LINE",
"192 36 LINE"
);
}
);
width = 668;
}
);
unicode = 017D;
},
{
glyphname = Zdotaccent;
lastChange = "2019-07-27 02:39:24 +0000";
layers = (
{
layerId = master01;
paths = (
{
closed = 1;
nodes = (
"332 739 LINE",
"402 820 LINE",
"332 900 LINE",
"261 820 LINE"
);
},
{
closed = 1;
nodes = (
"622 671 LINE",
"615 685 LINE",
"186 685 LINE",
"80 695 LINE",
"74 468 LINE",
"82 468 LINE",
"216 649 LINE",
"455 649 LINE",
"30 12 LINE",
"37 0 LINE",
"612 0 LINE",
"623 215 LINE",
"615 215 LINE",
"476 36 LINE",
"192 36 LINE"
);
}
);
width = 668;
},
{
layerId = "E2F25E8D-4609-4642-A608-BE80737248C7";
paths = (
{
closed = 1;
nodes = (
"332 739 LINE",
"402 820 LINE",
"332 900 LINE",
"261 820 LINE"
);
},
{
closed = 1;
nodes = (
"622 671 LINE",
"615 685 LINE",
"186 685 LINE",
"80 695 LINE",
"74 468 LINE",
"82 468 LINE",
"216 649 LINE",
"455 649 LINE",
"30 12 LINE",
"37 0 LINE",
"612 0 LINE",
"623 215 LINE",
"615 215 LINE",
"476 36 LINE",
"192 36 LINE"
);
}
);
width = 668;
}
);
unicode = 017B;
},
{
glyphname = a;
lastChange = "2019-07-27 02:47:01 +0000";
layers = (
{
layerId = master01;
paths = (
{
closed = 1;
nodes = (
"514 0 LINE",
"440 65 LINE",
"439 65 LINE",
"439 404 LINE",
"461 490 LINE",
"49 490 LINE",
"49 330 LINE",
"56 330 LINE",
"107 406 OFFCURVE",
"155 462 OFFCURVE",
"235 462 CURVE SMOOTH",
"317 462 OFFCURVE",
"319 400 OFFCURVE",
"319 320 CURVE",
"146 259 OFFCURVE",
"25 207 OFFCURVE",
"25 105 CURVE SMOOTH",
"25 24 OFFCURVE",
"76 -10 OFFCURVE",
"145 -10 CURVE SMOOTH",
"211 -10 OFFCURVE",
"281 47 OFFCURVE",
"319 84 CURVE",
"319 0 LINE"
);
},
{
closed = 1;
nodes = (
"294 85 OFFCURVE",
"263 69 OFFCURVE",
"232 69 CURVE SMOOTH",
"190 69 OFFCURVE",
"157 90 OFFCURVE",
"157 138 CURVE SMOOTH",
"157 186 OFFCURVE",
"162 229 OFFCURVE",
"319 292 CURVE",
"319 111 LINE"
);
}
);
width = 534;
},
{
layerId = "E2F25E8D-4609-4642-A608-BE80737248C7";
paths = (
{
closed = 1;
nodes = (
"514 0 LINE",
"440 46 LINE",
"439 78 LINE",
"439 451 LINE",
"461 490 LINE",
"49 490 LINE",
"49 376 LINE",
"56 376 LINE",
"71 467 OFFCURVE",
"195 467 OFFCURVE",
"275 467 CURVE SMOOTH",
"350 467 OFFCURVE",
"391 410 OFFCURVE",
"391 330 CURVE",
"178 259 OFFCURVE",
"25 197 OFFCURVE",
"25 105 CURVE SMOOTH",
"25 24 OFFCURVE",
"56 -10 OFFCURVE",
"145 -10 CURVE SMOOTH",
"281 -10 OFFCURVE",
"353 47 OFFCURVE",
"391 84 CURVE",
"391 0 LINE"
);
},
{
closed = 1;
nodes = (
"366 80 OFFCURVE",
"294 26 OFFCURVE",
"193 26 CURVE SMOOTH",
"131 26 OFFCURVE",
"111 73 OFFCURVE",
"111 121 CURVE SMOOTH",
"111 159 OFFCURVE",
"194 241 OFFCURVE",
"391 314 CURVE",
"391 106 LINE"
);
}
);
width = 534;
}
);
unicode = 0061;
},
{
glyphname = aacute;
lastChange = "2019-07-27 02:39:24 +0000";
layers = (
{
layerId = master01;
paths = (
{
closed = 1;
nodes = (
"356 681 LINE",
"230 681 LINE",
"212 552 LINE",
"227 552 LINE"
);
},
{
closed = 1;
nodes = (
"514 0 LINE",
"440 65 LINE",
"439 65 LINE",
"439 425 LINE",
"487 490 LINE",
"49 490 LINE",
"49 330 LINE",
"56 330 LINE",
"93 404 OFFCURVE",
"142 455 OFFCURVE",
"226 455 CURVE SMOOTH",
"317 455 OFFCURVE",
"319 400 OFFCURVE",
"319 310 CURVE",
"146 259 OFFCURVE",
"25 207 OFFCURVE",
"25 105 CURVE SMOOTH",
"25 24 OFFCURVE",
"76 -10 OFFCURVE",
"145 -10 CURVE SMOOTH",
"211 -10 OFFCURVE",
"281 47 OFFCURVE",
"319 84 CURVE",
"319 0 LINE"
);
},
{
closed = 1;
nodes = (
"294 85 OFFCURVE",
"263 69 OFFCURVE",
"232 69 CURVE SMOOTH",
"190 69 OFFCURVE",
"157 90 OFFCURVE",
"157 138 CURVE SMOOTH",
"157 186 OFFCURVE",
"197 245 OFFCURVE",
"319 283 CURVE",
"319 111 LINE"
);
}
);
width = 534;
},
{
layerId = "E2F25E8D-4609-4642-A608-BE80737248C7";
paths = (
{
closed = 1;
nodes = (
"356 681 LINE",
"230 681 LINE",
"212 552 LINE",
"227 552 LINE"
);
},
{
closed = 1;
nodes = (
"514 0 LINE",
"440 65 LINE",
"439 65 LINE",
"439 425 LINE",
"487 490 LINE",
"49 490 LINE",
"49 330 LINE",
"56 330 LINE",
"93 404 OFFCURVE",
"142 455 OFFCURVE",
"226 455 CURVE SMOOTH",
"317 455 OFFCURVE",
"319 400 OFFCURVE",
"319 310 CURVE",
"146 259 OFFCURVE",
"25 207 OFFCURVE",
"25 105 CURVE SMOOTH",
"25 24 OFFCURVE",
"76 -10 OFFCURVE",
"145 -10 CURVE SMOOTH",
"211 -10 OFFCURVE",
"281 47 OFFCURVE",
"319 84 CURVE",
"319 0 LINE"
);
},
{
closed = 1;
nodes = (
"294 85 OFFCURVE",
"263 69 OFFCURVE",
"232 69 CURVE SMOOTH",
"190 69 OFFCURVE",
"157 90 OFFCURVE",
"157 138 CURVE SMOOTH",
"157 186 OFFCURVE",
"197 245 OFFCURVE",
"319 283 CURVE",
"319 111 LINE"
);
}
);
width = 534;
}
);
unicode = 00E1;
},
{
glyphname = acircumflex;
lastChange = "2019-07-27 02:39:24 +0000";
layers = (
{
layerId = master01;
paths = (
{
closed = 1;
nodes = (
"170 552 LINE",
"255 625 LINE",
"338 552 LINE",
"354 552 LINE",
"296 681 LINE",
"213 681 LINE",
"156 552 LINE"
);
},
{
closed = 1;
nodes = (
"514 0 LINE",
"440 65 LINE",
"439 65 LINE",
"439 425 LINE",
"487 490 LINE",
"49 490 LINE",
"49 330 LINE",
"56 330 LINE",
"93 404 OFFCURVE",
"142 455 OFFCURVE",
"226 455 CURVE SMOOTH",
"317 455 OFFCURVE",
"319 400 OFFCURVE",
"319 310 CURVE",
"146 259 OFFCURVE",
"25 207 OFFCURVE",
"25 105 CURVE SMOOTH",
"25 24 OFFCURVE",
"76 -10 OFFCURVE",
"145 -10 CURVE SMOOTH",
"211 -10 OFFCURVE",
"281 47 OFFCURVE",
"319 84 CURVE",
"319 0 LINE"
);
},
{
closed = 1;
nodes = (
"294 85 OFFCURVE",
"263 69 OFFCURVE",
"232 69 CURVE SMOOTH",
"190 69 OFFCURVE",
"157 90 OFFCURVE",
"157 138 CURVE SMOOTH",
"157 186 OFFCURVE",
"197 245 OFFCURVE",
"319 283 CURVE",
"319 111 LINE"
);
}
);
width = 534;
},
{
layerId = "E2F25E8D-4609-4642-A608-BE80737248C7";
paths = (
{
closed = 1;
nodes = (
"170 552 LINE",
"255 625 LINE",
"338 552 LINE",
"354 552 LINE",
"296 681 LINE",
"213 681 LINE",
"156 552 LINE"
);
},
{
closed = 1;
nodes = (
"514 0 LINE",
"440 65 LINE",
"439 65 LINE",
"439 425 LINE",
"487 490 LINE",
"49 490 LINE",
"49 330 LINE",
"56 330 LINE",
"93 404 OFFCURVE",
"142 455 OFFCURVE",
"226 455 CURVE SMOOTH",
"317 455 OFFCURVE",
"319 400 OFFCURVE",
"319 310 CURVE",
"146 259 OFFCURVE",
"25 207 OFFCURVE",
"25 105 CURVE SMOOTH",
"25 24 OFFCURVE",
"76 -10 OFFCURVE",
"145 -10 CURVE SMOOTH",
"211 -10 OFFCURVE",
"281 47 OFFCURVE",
"319 84 CURVE",
"319 0 LINE"
);
},
{
closed = 1;
nodes = (
"294 85 OFFCURVE",
"263 69 OFFCURVE",
"232 69 CURVE SMOOTH",
"190 69 OFFCURVE",
"157 90 OFFCURVE",
"157 138 CURVE SMOOTH",
"157 186 OFFCURVE",
"197 245 OFFCURVE",
"319 283 CURVE",
"319 111 LINE"
);
}
);
width = 534;
}
);
unicode = 00E2;
},
{
glyphname = adieresis;
lastChange = "2019-07-27 02:39:24 +0000";
layers = (
{
layerId = master01;
paths = (
{
closed = 1;
nodes = (
"160 545 LINE",
"227 622 LINE",
"160 698 LINE",
"92 622 LINE"
);
},
{
closed = 1;
nodes = (
"365 545 LINE",
"432 622 LINE",
"365 698 LINE",
"297 622 LINE"
);
},
{
closed = 1;
nodes = (
"514 0 LINE",
"440 65 LINE",
"439 65 LINE",
"439 425 LINE",
"487 490 LINE",
"49 490 LINE",
"49 330 LINE",
"56 330 LINE",
"93 404 OFFCURVE",
"142 455 OFFCURVE",
"226 455 CURVE SMOOTH",
"317 455 OFFCURVE",
"319 400 OFFCURVE",
"319 310 CURVE",
"146 259 OFFCURVE",
"25 207 OFFCURVE",
"25 105 CURVE SMOOTH",
"25 24 OFFCURVE",
"76 -10 OFFCURVE",
"145 -10 CURVE SMOOTH",
"211 -10 OFFCURVE",
"281 47 OFFCURVE",
"319 84 CURVE",
"319 0 LINE"
);
},
{
closed = 1;
nodes = (
"294 85 OFFCURVE",
"263 69 OFFCURVE",
"232 69 CURVE SMOOTH",
"190 69 OFFCURVE",
"157 90 OFFCURVE",
"157 138 CURVE SMOOTH",
"157 186 OFFCURVE",
"197 245 OFFCURVE",
"319 283 CURVE",
"319 111 LINE"
);
}
);
width = 534;
},
{
layerId = "E2F25E8D-4609-4642-A608-BE80737248C7";
paths = (
{
closed = 1;
nodes = (
"160 545 LINE",
"227 622 LINE",
"160 698 LINE",
"92 622 LINE"
);
},
{
closed = 1;
nodes = (
"365 545 LINE",
"432 622 LINE",
"365 698 LINE",
"297 622 LINE"
);
},
{
closed = 1;
nodes = (
"514 0 LINE",
"440 65 LINE",
"439 65 LINE",
"439 425 LINE",
"487 490 LINE",
"49 490 LINE",
"49 330 LINE",
"56 330 LINE",
"93 404 OFFCURVE",
"142 455 OFFCURVE",
"226 455 CURVE SMOOTH",
"317 455 OFFCURVE",
"319 400 OFFCURVE",
"319 310 CURVE",
"146 259 OFFCURVE",
"25 207 OFFCURVE",
"25 105 CURVE SMOOTH",
"25 24 OFFCURVE",
"76 -10 OFFCURVE",
"145 -10 CURVE SMOOTH",
"211 -10 OFFCURVE",
"281 47 OFFCURVE",
"319 84 CURVE",
"319 0 LINE"
);
},
{
closed = 1;
nodes = (
"294 85 OFFCURVE",
"263 69 OFFCURVE",
"232 69 CURVE SMOOTH",
"190 69 OFFCURVE",
"157 90 OFFCURVE",
"157 138 CURVE SMOOTH",
"157 186 OFFCURVE",
"197 245 OFFCURVE",
"319 283 CURVE",
"319 111 LINE"
);
}
);
width = 534;
}
);
unicode = 00E4;
},
{
glyphname = agrave;
lastChange = "2019-07-27 02:39:24 +0000";
layers = (
{
layerId = master01;
paths = (
{
closed = 1;
nodes = (
"321 552 LINE",
"303 681 LINE",
"177 681 LINE",
"306 552 LINE"
);
},
{
closed = 1;
nodes = (
"514 0 LINE",
"440 65 LINE",
"439 65 LINE",
"439 425 LINE",
"487 490 LINE",
"49 490 LINE",
"49 330 LINE",
"56 330 LINE",
"93 404 OFFCURVE",
"142 455 OFFCURVE",
"226 455 CURVE SMOOTH",
"317 455 OFFCURVE",
"319 400 OFFCURVE",
"319 310 CURVE",
"146 259 OFFCURVE",
"25 207 OFFCURVE",
"25 105 CURVE SMOOTH",
"25 24 OFFCURVE",
"76 -10 OFFCURVE",
"145 -10 CURVE SMOOTH",
"211 -10 OFFCURVE",
"281 47 OFFCURVE",
"319 84 CURVE",
"319 0 LINE"
);
},
{
closed = 1;
nodes = (
"294 85 OFFCURVE",
"263 69 OFFCURVE",
"232 69 CURVE SMOOTH",
"190 69 OFFCURVE",
"157 90 OFFCURVE",
"157 138 CURVE SMOOTH",
"157 186 OFFCURVE",
"197 245 OFFCURVE",
"319 283 CURVE",
"319 111 LINE"
);
}
);
width = 534;
},
{
layerId = "E2F25E8D-4609-4642-A608-BE80737248C7";
paths = (
{
closed = 1;
nodes = (
"321 552 LINE",
"303 681 LINE",
"177 681 LINE",
"306 552 LINE"
);
},
{
closed = 1;
nodes = (
"514 0 LINE",
"440 65 LINE",
"439 65 LINE",
"439 425 LINE",
"487 490 LINE",
"49 490 LINE",
"49 330 LINE",
"56 330 LINE",
"93 404 OFFCURVE",
"142 455 OFFCURVE",
"226 455 CURVE SMOOTH",
"317 455 OFFCURVE",
"319 400 OFFCURVE",
"319 310 CURVE",
"146 259 OFFCURVE",
"25 207 OFFCURVE",
"25 105 CURVE SMOOTH",
"25 24 OFFCURVE",
"76 -10 OFFCURVE",
"145 -10 CURVE SMOOTH",
"211 -10 OFFCURVE",
"281 47 OFFCURVE",
"319 84 CURVE",
"319 0 LINE"
);
},
{
closed = 1;
nodes = (
"294 85 OFFCURVE",
"263 69 OFFCURVE",
"232 69 CURVE SMOOTH",
"190 69 OFFCURVE",
"157 90 OFFCURVE",
"157 138 CURVE SMOOTH",
"157 186 OFFCURVE",
"197 245 OFFCURVE",
"319 283 CURVE",
"319 111 LINE"
);
}
);
width = 534;
}
);
unicode = 00E0;
},
{
glyphname = aring;
lastChange = "2019-07-27 02:39:24 +0000";
layers = (
{
layerId = master01;
paths = (
{
closed = 1;
nodes = (
"174 586 OFFCURVE",
"214 546 OFFCURVE",
"263 546 CURVE SMOOTH",
"312 546 OFFCURVE",
"352 586 OFFCURVE",
"352 635 CURVE SMOOTH",
"352 684 OFFCURVE",
"312 724 OFFCURVE",
"263 724 CURVE SMOOTH",
"214 724 OFFCURVE",
"174 684 OFFCURVE",
"174 635 CURVE SMOOTH"
);
},
{
closed = 1;
nodes = (
"202 669 OFFCURVE",
"229 696 OFFCURVE",
"263 696 CURVE SMOOTH",
"297 696 OFFCURVE",
"324 669 OFFCURVE",
"324 635 CURVE SMOOTH",
"324 601 OFFCURVE",
"297 574 OFFCURVE",
"263 574 CURVE SMOOTH",
"229 574 OFFCURVE",
"202 601 OFFCURVE",
"202 635 CURVE SMOOTH"
);
},
{
closed = 1;
nodes = (
"514 0 LINE",
"440 65 LINE",
"439 65 LINE",
"439 425 LINE",
"487 490 LINE",
"49 490 LINE",
"49 330 LINE",
"56 330 LINE",
"93 404 OFFCURVE",
"142 455 OFFCURVE",
"226 455 CURVE SMOOTH",
"317 455 OFFCURVE",
"319 400 OFFCURVE",
"319 310 CURVE",
"146 259 OFFCURVE",
"25 207 OFFCURVE",
"25 105 CURVE SMOOTH",
"25 24 OFFCURVE",
"76 -10 OFFCURVE",
"145 -10 CURVE SMOOTH",
"211 -10 OFFCURVE",
"281 47 OFFCURVE",
"319 84 CURVE",
"319 0 LINE"
);
},
{
closed = 1;
nodes = (
"294 85 OFFCURVE",
"263 69 OFFCURVE",
"232 69 CURVE SMOOTH",
"190 69 OFFCURVE",
"157 90 OFFCURVE",
"157 138 CURVE SMOOTH",
"157 186 OFFCURVE",
"197 245 OFFCURVE",
"319 283 CURVE",
"319 111 LINE"
);
}
);
width = 534;
},
{
layerId = "E2F25E8D-4609-4642-A608-BE80737248C7";
paths = (
{
closed = 1;
nodes = (
"174 586 OFFCURVE",
"214 546 OFFCURVE",
"263 546 CURVE SMOOTH",
"312 546 OFFCURVE",
"352 586 OFFCURVE",
"352 635 CURVE SMOOTH",
"352 684 OFFCURVE",
"312 724 OFFCURVE",
"263 724 CURVE SMOOTH",
"214 724 OFFCURVE",
"174 684 OFFCURVE",
"174 635 CURVE SMOOTH"
);
},
{
closed = 1;
nodes = (
"202 669 OFFCURVE",
"229 696 OFFCURVE",
"263 696 CURVE SMOOTH",
"297 696 OFFCURVE",
"324 669 OFFCURVE",
"324 635 CURVE SMOOTH",
"324 601 OFFCURVE",
"297 574 OFFCURVE",
"263 574 CURVE SMOOTH",
"229 574 OFFCURVE",
"202 601 OFFCURVE",
"202 635 CURVE SMOOTH"
);
},
{
closed = 1;
nodes = (
"514 0 LINE",
"440 65 LINE",
"439 65 LINE",
"439 425 LINE",
"487 490 LINE",
"49 490 LINE",
"49 330 LINE",
"56 330 LINE",
"93 404 OFFCURVE",
"142 455 OFFCURVE",
"226 455 CURVE SMOOTH",
"317 455 OFFCURVE",
"319 400 OFFCURVE",
"319 310 CURVE",
"146 259 OFFCURVE",
"25 207 OFFCURVE",
"25 105 CURVE SMOOTH",
"25 24 OFFCURVE",
"76 -10 OFFCURVE",
"145 -10 CURVE SMOOTH",
"211 -10 OFFCURVE",
"281 47 OFFCURVE",
"319 84 CURVE",
"319 0 LINE"
);
},
{
closed = 1;
nodes = (
"294 85 OFFCURVE",
"263 69 OFFCURVE",
"232 69 CURVE SMOOTH",
"190 69 OFFCURVE",
"157 90 OFFCURVE",
"157 138 CURVE SMOOTH",
"157 186 OFFCURVE",
"197 245 OFFCURVE",
"319 283 CURVE",
"319 111 LINE"
);
}
);
width = 534;
}
);
unicode = 00E5;
},
{
glyphname = atilde;
lastChange = "2019-07-27 02:39:24 +0000";
layers = (
{
layerId = master01;
paths = (
{
closed = 1;
nodes = (
"147 562 LINE",
"160 584 OFFCURVE",
"174 605 OFFCURVE",
"187 605 CURVE SMOOTH",
"236 605 OFFCURVE",
"286 596 OFFCURVE",
"335 592 CURVE",
"394 695 LINE",
"379 701 LINE",
"364 682 OFFCURVE",
"350 667 OFFCURVE",
"335 667 CURVE SMOOTH",
"289 667 OFFCURVE",
"242 676 OFFCURVE",
"196 680 CURVE",
"133 571 LINE"
);
},
{
closed = 1;
nodes = (
"514 0 LINE",
"440 65 LINE",
"439 65 LINE",
"439 425 LINE",
"487 490 LINE",
"49 490 LINE",
"49 330 LINE",
"56 330 LINE",
"93 404 OFFCURVE",
"142 455 OFFCURVE",
"226 455 CURVE SMOOTH",
"317 455 OFFCURVE",
"319 400 OFFCURVE",
"319 310 CURVE",
"146 259 OFFCURVE",
"25 207 OFFCURVE",
"25 105 CURVE SMOOTH",
"25 24 OFFCURVE",
"76 -10 OFFCURVE",
"145 -10 CURVE SMOOTH",
"211 -10 OFFCURVE",
"281 47 OFFCURVE",
"319 84 CURVE",
"319 0 LINE"
);
},
{
closed = 1;
nodes = (
"294 85 OFFCURVE",
"263 69 OFFCURVE",
"232 69 CURVE SMOOTH",
"190 69 OFFCURVE",
"157 90 OFFCURVE",
"157 138 CURVE SMOOTH",
"157 186 OFFCURVE",
"197 245 OFFCURVE",
"319 283 CURVE",
"319 111 LINE"
);
}
);
width = 534;
},
{
layerId = "E2F25E8D-4609-4642-A608-BE80737248C7";
paths = (
{
closed = 1;
nodes = (
"147 562 LINE",
"160 584 OFFCURVE",
"174 605 OFFCURVE",
"187 605 CURVE SMOOTH",
"236 605 OFFCURVE",
"286 596 OFFCURVE",
"335 592 CURVE",
"394 695 LINE",
"379 701 LINE",
"364 682 OFFCURVE",
"350 667 OFFCURVE",
"335 667 CURVE SMOOTH",
"289 667 OFFCURVE",
"242 676 OFFCURVE",
"196 680 CURVE",
"133 571 LINE"
);
},
{
closed = 1;
nodes = (
"514 0 LINE",
"440 65 LINE",
"439 65 LINE",
"439 425 LINE",
"487 490 LINE",
"49 490 LINE",
"49 330 LINE",
"56 330 LINE",
"93 404 OFFCURVE",
"142 455 OFFCURVE",
"226 455 CURVE SMOOTH",
"317 455 OFFCURVE",
"319 400 OFFCURVE",
"319 310 CURVE",
"146 259 OFFCURVE",
"25 207 OFFCURVE",
"25 105 CURVE SMOOTH",
"25 24 OFFCURVE",
"76 -10 OFFCURVE",
"145 -10 CURVE SMOOTH",
"211 -10 OFFCURVE",
"281 47 OFFCURVE",
"319 84 CURVE",
"319 0 LINE"
);
},
{
closed = 1;
nodes = (
"294 85 OFFCURVE",
"263 69 OFFCURVE",
"232 69 CURVE SMOOTH",
"190 69 OFFCURVE",
"157 90 OFFCURVE",
"157 138 CURVE SMOOTH",
"157 186 OFFCURVE",
"197 245 OFFCURVE",
"319 283 CURVE",
"319 111 LINE"
);
}
);
width = 534;
}
);
unicode = 00E3;
},
{
glyphname = ae;
lastChange = "2019-07-27 02:39:24 +0000";
layers = (
{
layerId = master01;
paths = (
{
closed = 1;
nodes = (
"745 421 OFFCURVE",
"672 502 OFFCURVE",
"552 502 CURVE SMOOTH",
"524 502 OFFCURVE",
"499 498 OFFCURVE",
"476 490 CURVE",
"49 490 LINE",
"49 344 LINE",
"55 344 LINE",
"89 411 OFFCURVE",
"150 458 OFFCURVE",
"226 458 CURVE SMOOTH",
"316 458 OFFCURVE",
"329 400 OFFCURVE",
"319 310 CURVE",
"146 259 OFFCURVE",
"25 207 OFFCURVE",
"25 105 CURVE SMOOTH",
"25 24 OFFCURVE",
"76 -10 OFFCURVE",
"145 -10 CURVE SMOOTH",
"206 -10 OFFCURVE",
"277 28 OFFCURVE",
"339 97 CURVE",
"373 34 OFFCURVE",
"432 -12 OFFCURVE",
"514 -12 CURVE SMOOTH",
"633 -12 OFFCURVE",
"704 80 OFFCURVE",
"740 171 CURVE",
"725 177 LINE",
"710 135 OFFCURVE",
"650 101 OFFCURVE",
"582 101 CURVE SMOOTH",
"504 101 OFFCURVE",
"435 155 OFFCURVE",
"424 284 CURVE",
"745 284 LINE"
);
},
{
closed = 1;
nodes = (
"422 321 LINE SMOOTH",
"422 381 OFFCURVE",
"453 472 OFFCURVE",
"529 472 CURVE SMOOTH",
"573 472 OFFCURVE",
"616 430 OFFCURVE",
"616 323 CURVE SMOOTH",
"616 319 OFFCURVE",
"616 314 OFFCURVE",
"615 310 CURVE",
"422 310 LINE"
);
},
{
closed = 1;
nodes = (
"190 69 OFFCURVE",
"157 90 OFFCURVE",
"157 138 CURVE SMOOTH",
"157 185 OFFCURVE",
"196 243 OFFCURVE",
"314 281 CURVE",
"311 263 OFFCURVE",
"309 244 OFFCURVE",
"309 225 CURVE SMOOTH",
"309 189 OFFCURVE",
"316 153 OFFCURVE",
"328 121 CURVE",
"300 83 OFFCURVE",
"261 69 OFFCURVE",
"232 69 CURVE SMOOTH"
);
}
);
width = 775;
},
{
layerId = "E2F25E8D-4609-4642-A608-BE80737248C7";
paths = (
{
closed = 1;
nodes = (
"745 421 OFFCURVE",
"672 502 OFFCURVE",
"552 502 CURVE SMOOTH",
"524 502 OFFCURVE",
"499 498 OFFCURVE",
"476 490 CURVE",
"49 490 LINE",
"49 344 LINE",
"55 344 LINE",
"89 411 OFFCURVE",
"150 458 OFFCURVE",
"226 458 CURVE SMOOTH",
"316 458 OFFCURVE",
"329 400 OFFCURVE",
"319 310 CURVE",
"146 259 OFFCURVE",
"25 207 OFFCURVE",
"25 105 CURVE SMOOTH",
"25 24 OFFCURVE",
"76 -10 OFFCURVE",
"145 -10 CURVE SMOOTH",
"206 -10 OFFCURVE",
"277 28 OFFCURVE",
"339 97 CURVE",
"373 34 OFFCURVE",
"432 -12 OFFCURVE",
"514 -12 CURVE SMOOTH",
"633 -12 OFFCURVE",
"704 80 OFFCURVE",
"740 171 CURVE",
"725 177 LINE",
"710 135 OFFCURVE",
"650 101 OFFCURVE",
"582 101 CURVE SMOOTH",
"504 101 OFFCURVE",
"435 155 OFFCURVE",
"424 284 CURVE",
"745 284 LINE"
);
},
{
closed = 1;
nodes = (
"422 321 LINE SMOOTH",
"422 381 OFFCURVE",
"453 472 OFFCURVE",
"529 472 CURVE SMOOTH",
"573 472 OFFCURVE",
"616 430 OFFCURVE",
"616 323 CURVE SMOOTH",
"616 319 OFFCURVE",
"616 314 OFFCURVE",
"615 310 CURVE",
"422 310 LINE"
);
},
{
closed = 1;
nodes = (
"190 69 OFFCURVE",
"157 90 OFFCURVE",
"157 138 CURVE SMOOTH",
"157 185 OFFCURVE",
"196 243 OFFCURVE",
"314 281 CURVE",
"311 263 OFFCURVE",
"309 244 OFFCURVE",
"309 225 CURVE SMOOTH",
"309 189 OFFCURVE",
"316 153 OFFCURVE",
"328 121 CURVE",
"300 83 OFFCURVE",
"261 69 OFFCURVE",
"232 69 CURVE SMOOTH"
);
}
);
width = 775;
}
);
unicode = 00E6;
},
{
glyphname = b;
lastChange = "2019-07-27 02:39:24 +0000";
layers = (
{
layerId = master01;
paths = (
{
closed = 1;
nodes = (
"20 653 LINE",
"88 576 LINE",
"88 -11 LINE",
"160 14 LINE",
"210 0 OFFCURVE",
"271 -9 OFFCURVE",
"301 -9 CURVE SMOOTH",
"492 -9 OFFCURVE",
"561 154 OFFCURVE",
"561 265 CURVE SMOOTH",
"561 385 OFFCURVE",
"491 500 OFFCURVE",
"361 500 CURVE SMOOTH",
"288 500 OFFCURVE",
"244 467 OFFCURVE",
"208 425 CURVE",
"208 710 LINE"
);
},
{
closed = 1;
nodes = (
"238 417 OFFCURVE",
"264 426 OFFCURVE",
"291 426 CURVE SMOOTH",
"382 426 OFFCURVE",
"443 330 OFFCURVE",
"443 174 CURVE SMOOTH",
"443 104 OFFCURVE",
"428 35 OFFCURVE",
"340 35 CURVE SMOOTH",
"285 35 OFFCURVE",
"237 70 OFFCURVE",
"208 103 CURVE",
"208 398 LINE"
);
}
);
width = 598;
},
{
layerId = "E2F25E8D-4609-4642-A608-BE80737248C7";
paths = (
{
closed = 1;
nodes = (
"20 653 LINE",
"88 576 LINE",
"88 -11 LINE",
"160 14 LINE",
"210 0 OFFCURVE",
"271 -9 OFFCURVE",
"301 -9 CURVE SMOOTH",
"492 -9 OFFCURVE",
"561 154 OFFCURVE",
"561 265 CURVE SMOOTH",
"561 385 OFFCURVE",
"491 500 OFFCURVE",
"361 500 CURVE SMOOTH",
"288 500 OFFCURVE",
"244 467 OFFCURVE",
"208 425 CURVE",
"208 710 LINE"
);
},
{
closed = 1;
nodes = (
"238 417 OFFCURVE",
"264 426 OFFCURVE",
"291 426 CURVE SMOOTH",
"382 426 OFFCURVE",
"443 330 OFFCURVE",
"443 174 CURVE SMOOTH",
"443 104 OFFCURVE",
"428 35 OFFCURVE",
"340 35 CURVE SMOOTH",
"285 35 OFFCURVE",
"237 70 OFFCURVE",
"208 103 CURVE",
"208 398 LINE"
);
}
);
width = 598;
}
);
unicode = 0062;
},
{
glyphname = c;
lastChange = "2019-07-27 02:39:24 +0000";
layers = (
{
layerId = master01;
paths = (
{
closed = 1;
nodes = (
"414 490 LINE",
"294 490 LINE SMOOTH",
"103 490 OFFCURVE",
"30 344 OFFCURVE",
"30 225 CURVE SMOOTH",
"30 105 OFFCURVE",
"94 -12 OFFCURVE",
"225 -12 CURVE SMOOTH",
"349 -12 OFFCURVE",
"417 112 OFFCURVE",
"438 193 CURVE",
"427 197 LINE",
"415 162 OFFCURVE",
"363 107 OFFCURVE",
"294 107 CURVE SMOOTH",
"215 107 OFFCURVE",
"145 160 OFFCURVE",
"145 316 CURVE SMOOTH",
"145 384 OFFCURVE",
"173 455 OFFCURVE",
"250 455 CURVE SMOOTH",
"327 455 OFFCURVE",
"372 401 OFFCURVE",
"407 330 CURVE",
"414 330 LINE"
);
}
);
width = 468;
},
{
layerId = "E2F25E8D-4609-4642-A608-BE80737248C7";
paths = (
{
closed = 1;
nodes = (
"414 490 LINE",
"294 490 LINE SMOOTH",
"103 490 OFFCURVE",
"30 344 OFFCURVE",
"30 225 CURVE SMOOTH",
"30 105 OFFCURVE",
"94 -12 OFFCURVE",
"225 -12 CURVE SMOOTH",
"349 -12 OFFCURVE",
"417 112 OFFCURVE",
"438 193 CURVE",
"427 197 LINE",
"415 162 OFFCURVE",
"363 107 OFFCURVE",
"294 107 CURVE SMOOTH",
"215 107 OFFCURVE",
"145 160 OFFCURVE",
"145 316 CURVE SMOOTH",
"145 384 OFFCURVE",
"173 455 OFFCURVE",
"250 455 CURVE SMOOTH",
"327 455 OFFCURVE",
"372 401 OFFCURVE",
"407 330 CURVE",
"414 330 LINE"
);
}
);
width = 468;
}
);
unicode = 0063;
},
{
glyphname = cacute;
lastChange = "2019-07-27 02:39:24 +0000";
layers = (
{
layerId = master01;
paths = (
{
closed = 1;
nodes = (
"385 681 LINE",
"259 681 LINE",
"241 552 LINE",
"256 552 LINE"
);
},
{
closed = 1;
nodes = (
"414 490 LINE",
"294 490 LINE SMOOTH",
"103 490 OFFCURVE",
"30 344 OFFCURVE",
"30 225 CURVE SMOOTH",
"30 105 OFFCURVE",
"94 -12 OFFCURVE",
"225 -12 CURVE SMOOTH",
"349 -12 OFFCURVE",
"417 112 OFFCURVE",
"438 193 CURVE",
"427 197 LINE",
"415 162 OFFCURVE",
"363 107 OFFCURVE",
"294 107 CURVE SMOOTH",
"215 107 OFFCURVE",
"145 160 OFFCURVE",
"145 316 CURVE SMOOTH",
"145 386 OFFCURVE",
"171 455 OFFCURVE",
"255 455 CURVE SMOOTH",
"329 455 OFFCURVE",
"380 398 OFFCURVE",
"409 354 CURVE",
"414 354 LINE"
);
}
);
width = 468;
},
{
layerId = "E2F25E8D-4609-4642-A608-BE80737248C7";
paths = (
{
closed = 1;
nodes = (
"385 681 LINE",
"259 681 LINE",
"241 552 LINE",
"256 552 LINE"
);
},
{
closed = 1;
nodes = (
"414 490 LINE",
"294 490 LINE SMOOTH",
"103 490 OFFCURVE",
"30 344 OFFCURVE",
"30 225 CURVE SMOOTH",
"30 105 OFFCURVE",
"94 -12 OFFCURVE",
"225 -12 CURVE SMOOTH",
"349 -12 OFFCURVE",
"417 112 OFFCURVE",
"438 193 CURVE",
"427 197 LINE",
"415 162 OFFCURVE",
"363 107 OFFCURVE",
"294 107 CURVE SMOOTH",
"215 107 OFFCURVE",
"145 160 OFFCURVE",
"145 316 CURVE SMOOTH",
"145 386 OFFCURVE",
"171 455 OFFCURVE",
"255 455 CURVE SMOOTH",
"329 455 OFFCURVE",
"380 398 OFFCURVE",
"409 354 CURVE",
"414 354 LINE"
);
}
);
width = 468;
}
);
unicode = 0107;
},
{
glyphname = ccaron;
lastChange = "2019-07-27 02:39:24 +0000";
layers = (
{
layerId = master01;
paths = (
{
closed = 1;
nodes = (
"174 681 LINE",
"160 681 LINE",
"217 552 LINE",
"300 552 LINE",
"358 681 LINE",
"342 681 LINE",
"259 608 LINE"
);
},
{
closed = 1;
nodes = (
"414 490 LINE",
"294 490 LINE SMOOTH",
"103 490 OFFCURVE",
"30 344 OFFCURVE",
"30 225 CURVE SMOOTH",
"30 105 OFFCURVE",
"94 -12 OFFCURVE",
"225 -12 CURVE SMOOTH",
"349 -12 OFFCURVE",
"417 112 OFFCURVE",
"438 193 CURVE",
"427 197 LINE",
"415 162 OFFCURVE",
"363 107 OFFCURVE",
"294 107 CURVE SMOOTH",
"215 107 OFFCURVE",
"145 160 OFFCURVE",
"145 316 CURVE SMOOTH",
"145 386 OFFCURVE",
"171 455 OFFCURVE",
"255 455 CURVE SMOOTH",
"329 455 OFFCURVE",
"380 398 OFFCURVE",
"409 354 CURVE",
"414 354 LINE"
);
}
);
width = 468;
},
{
layerId = "E2F25E8D-4609-4642-A608-BE80737248C7";
paths = (
{
closed = 1;
nodes = (
"174 681 LINE",
"160 681 LINE",
"217 552 LINE",
"300 552 LINE",
"358 681 LINE",
"342 681 LINE",
"259 608 LINE"
);
},
{
closed = 1;
nodes = (
"414 490 LINE",
"294 490 LINE SMOOTH",
"103 490 OFFCURVE",
"30 344 OFFCURVE",
"30 225 CURVE SMOOTH",
"30 105 OFFCURVE",
"94 -12 OFFCURVE",
"225 -12 CURVE SMOOTH",
"349 -12 OFFCURVE",
"417 112 OFFCURVE",
"438 193 CURVE",
"427 197 LINE",
"415 162 OFFCURVE",
"363 107 OFFCURVE",
"294 107 CURVE SMOOTH",
"215 107 OFFCURVE",
"145 160 OFFCURVE",
"145 316 CURVE SMOOTH",
"145 386 OFFCURVE",
"171 455 OFFCURVE",
"255 455 CURVE SMOOTH",
"329 455 OFFCURVE",
"380 398 OFFCURVE",
"409 354 CURVE",
"414 354 LINE"
);
}
);
width = 468;
}
);
unicode = 010D;
},
{
glyphname = ccedilla;
lastChange = "2019-07-27 02:39:24 +0000";
layers = (
{
layerId = master01;
paths = (
{
closed = 1;
nodes = (
"414 490 LINE",
"294 490 LINE SMOOTH",
"103 490 OFFCURVE",
"30 344 OFFCURVE",
"30 225 CURVE SMOOTH",
"30 111 OFFCURVE",
"88 -1 OFFCURVE",
"207 -11 CURVE",
"165 -72 LINE",
"165 -87 OFFCURVE",
"267 -89 OFFCURVE",
"267 -128 CURVE SMOOTH",
"267 -138 OFFCURVE",
"247 -145 OFFCURVE",
"220 -145 CURVE SMOOTH",
"193 -145 OFFCURVE",
"170 -136 OFFCURVE",
"150 -119 CURVE",
"143 -133 LINE",
"166 -153 OFFCURVE",
"189 -162 OFFCURVE",
"218 -162 CURVE SMOOTH",
"268 -162 OFFCURVE",
"312 -132 OFFCURVE",
"312 -96 CURVE SMOOTH",
"312 -63 OFFCURVE",
"255 -45 OFFCURVE",
"226 -34 CURVE",
"238 -12 LINE",
"354 -3 OFFCURVE",
"418 115 OFFCURVE",
"438 193 CURVE",
"427 197 LINE",
"415 162 OFFCURVE",
"363 107 OFFCURVE",
"294 107 CURVE SMOOTH",
"215 107 OFFCURVE",
"145 160 OFFCURVE",
"145 316 CURVE SMOOTH",
"145 386 OFFCURVE",
"171 455 OFFCURVE",
"255 455 CURVE SMOOTH",
"329 455 OFFCURVE",
"380 398 OFFCURVE",
"409 354 CURVE",
"414 354 LINE"
);
}
);
width = 468;
},
{
layerId = "E2F25E8D-4609-4642-A608-BE80737248C7";
paths = (
{
closed = 1;
nodes = (
"414 490 LINE",
"294 490 LINE SMOOTH",
"103 490 OFFCURVE",
"30 344 OFFCURVE",
"30 225 CURVE SMOOTH",
"30 111 OFFCURVE",
"88 -1 OFFCURVE",
"207 -11 CURVE",
"165 -72 LINE",
"165 -87 OFFCURVE",
"267 -89 OFFCURVE",
"267 -128 CURVE SMOOTH",
"267 -138 OFFCURVE",
"247 -145 OFFCURVE",
"220 -145 CURVE SMOOTH",
"193 -145 OFFCURVE",
"170 -136 OFFCURVE",
"150 -119 CURVE",
"143 -133 LINE",
"166 -153 OFFCURVE",
"189 -162 OFFCURVE",
"218 -162 CURVE SMOOTH",
"268 -162 OFFCURVE",
"312 -132 OFFCURVE",
"312 -96 CURVE SMOOTH",
"312 -63 OFFCURVE",
"255 -45 OFFCURVE",
"226 -34 CURVE",
"238 -12 LINE",
"354 -3 OFFCURVE",
"418 115 OFFCURVE",
"438 193 CURVE",
"427 197 LINE",
"415 162 OFFCURVE",
"363 107 OFFCURVE",
"294 107 CURVE SMOOTH",
"215 107 OFFCURVE",
"145 160 OFFCURVE",
"145 316 CURVE SMOOTH",
"145 386 OFFCURVE",
"171 455 OFFCURVE",
"255 455 CURVE SMOOTH",
"329 455 OFFCURVE",
"380 398 OFFCURVE",
"409 354 CURVE",
"414 354 LINE"
);
}
);
width = 468;
}
);
unicode = 00E7;
},
{
glyphname = ccircumflex;
lastChange = "2019-07-27 02:39:24 +0000";
layers = (
{
layerId = master01;
paths = (
{
closed = 1;
nodes = (
"170 552 LINE",
"255 625 LINE",
"338 552 LINE",
"354 552 LINE",
"296 681 LINE",
"213 681 LINE",
"156 552 LINE"
);
},
{
closed = 1;
nodes = (
"414 490 LINE",
"294 490 LINE SMOOTH",
"103 490 OFFCURVE",
"30 344 OFFCURVE",
"30 225 CURVE SMOOTH",
"30 105 OFFCURVE",
"94 -12 OFFCURVE",
"225 -12 CURVE SMOOTH",
"349 -12 OFFCURVE",
"417 112 OFFCURVE",
"438 193 CURVE",
"427 197 LINE",
"415 162 OFFCURVE",
"363 107 OFFCURVE",
"294 107 CURVE SMOOTH",
"215 107 OFFCURVE",
"145 160 OFFCURVE",
"145 316 CURVE SMOOTH",
"145 386 OFFCURVE",
"171 455 OFFCURVE",
"255 455 CURVE SMOOTH",
"329 455 OFFCURVE",
"380 398 OFFCURVE",
"409 354 CURVE",
"414 354 LINE"
);
}
);
width = 468;
},
{
layerId = "E2F25E8D-4609-4642-A608-BE80737248C7";
paths = (
{
closed = 1;
nodes = (
"170 552 LINE",
"255 625 LINE",
"338 552 LINE",
"354 552 LINE",
"296 681 LINE",
"213 681 LINE",
"156 552 LINE"
);
},
{
closed = 1;
nodes = (
"414 490 LINE",
"294 490 LINE SMOOTH",
"103 490 OFFCURVE",
"30 344 OFFCURVE",
"30 225 CURVE SMOOTH",
"30 105 OFFCURVE",
"94 -12 OFFCURVE",
"225 -12 CURVE SMOOTH",
"349 -12 OFFCURVE",
"417 112 OFFCURVE",
"438 193 CURVE",
"427 197 LINE",
"415 162 OFFCURVE",
"363 107 OFFCURVE",
"294 107 CURVE SMOOTH",
"215 107 OFFCURVE",
"145 160 OFFCURVE",
"145 316 CURVE SMOOTH",
"145 386 OFFCURVE",
"171 455 OFFCURVE",
"255 455 CURVE SMOOTH",
"329 455 OFFCURVE",
"380 398 OFFCURVE",
"409 354 CURVE",
"414 354 LINE"
);
}
);
width = 468;
}
);
unicode = 0109;
},
{
glyphname = cdotaccent;
lastChange = "2019-07-27 02:39:24 +0000";
layers = (
{
layerId = master01;
paths = (
{
closed = 1;
nodes = (
"255 546 LINE",
"325 627 LINE",
"255 707 LINE",
"184 627 LINE"
);
},
{
closed = 1;
nodes = (
"414 490 LINE",
"294 490 LINE SMOOTH",
"103 490 OFFCURVE",
"30 344 OFFCURVE",
"30 225 CURVE SMOOTH",
"30 105 OFFCURVE",
"94 -12 OFFCURVE",
"225 -12 CURVE SMOOTH",
"349 -12 OFFCURVE",
"417 112 OFFCURVE",
"438 193 CURVE",
"427 197 LINE",
"415 162 OFFCURVE",
"363 107 OFFCURVE",
"294 107 CURVE SMOOTH",
"215 107 OFFCURVE",
"145 160 OFFCURVE",
"145 316 CURVE SMOOTH",
"145 386 OFFCURVE",
"171 455 OFFCURVE",
"255 455 CURVE SMOOTH",
"329 455 OFFCURVE",
"380 398 OFFCURVE",
"409 354 CURVE",
"414 354 LINE"
);
}
);
width = 468;
},
{
layerId = "E2F25E8D-4609-4642-A608-BE80737248C7";
paths = (
{
closed = 1;
nodes = (
"255 546 LINE",
"325 627 LINE",
"255 707 LINE",
"184 627 LINE"
);
},
{
closed = 1;
nodes = (
"414 490 LINE",
"294 490 LINE SMOOTH",
"103 490 OFFCURVE",
"30 344 OFFCURVE",
"30 225 CURVE SMOOTH",
"30 105 OFFCURVE",
"94 -12 OFFCURVE",
"225 -12 CURVE SMOOTH",
"349 -12 OFFCURVE",
"417 112 OFFCURVE",
"438 193 CURVE",
"427 197 LINE",
"415 162 OFFCURVE",
"363 107 OFFCURVE",
"294 107 CURVE SMOOTH",
"215 107 OFFCURVE",
"145 160 OFFCURVE",
"145 316 CURVE SMOOTH",
"145 386 OFFCURVE",
"171 455 OFFCURVE",
"255 455 CURVE SMOOTH",
"329 455 OFFCURVE",
"380 398 OFFCURVE",
"409 354 CURVE",
"414 354 LINE"
);
}
);
width = 468;
}
);
unicode = 010B;
},
{
glyphname = d;
lastChange = "2019-07-27 02:39:24 +0000";
layers = (
{
layerId = master01;
paths = (
{
closed = 1;
nodes = (
"577 0 LINE",
"503 70 LINE",
"503 710 LINE",
"315 653 LINE",
"383 576 LINE",
"383 490 LINE",
"299 490 LINE SMOOTH",
"117 490 OFFCURVE",
"35 354 OFFCURVE",
"35 225 CURVE SMOOTH",
"35 105 OFFCURVE",
"99 -10 OFFCURVE",
"230 -10 CURVE SMOOTH",
"307 -10 OFFCURVE",
"353 37 OFFCURVE",
"383 89 CURVE",
"383 -9 LINE"
);
},
{
closed = 1;
nodes = (
"364 110 OFFCURVE",
"343 100 OFFCURVE",
"308 100 CURVE SMOOTH",
"223 100 OFFCURVE",
"154 160 OFFCURVE",
"154 316 CURVE SMOOTH",
"154 376 OFFCURVE",
"172 455 OFFCURVE",
"260 455 CURVE SMOOTH",
"312 455 OFFCURVE",
"353 426 OFFCURVE",
"383 394 CURVE",
"383 125 LINE"
);
}
);
width = 597;
},
{
layerId = "E2F25E8D-4609-4642-A608-BE80737248C7";
paths = (
{
closed = 1;
nodes = (
"577 0 LINE",
"503 70 LINE",
"503 710 LINE",
"315 653 LINE",
"383 576 LINE",
"383 490 LINE",
"299 490 LINE SMOOTH",
"117 490 OFFCURVE",
"35 354 OFFCURVE",
"35 225 CURVE SMOOTH",
"35 105 OFFCURVE",
"99 -10 OFFCURVE",
"230 -10 CURVE SMOOTH",
"307 -10 OFFCURVE",
"353 37 OFFCURVE",
"383 89 CURVE",
"383 -9 LINE"
);
},
{
closed = 1;
nodes = (
"364 110 OFFCURVE",
"343 100 OFFCURVE",
"308 100 CURVE SMOOTH",
"223 100 OFFCURVE",
"154 160 OFFCURVE",
"154 316 CURVE SMOOTH",
"154 376 OFFCURVE",
"172 455 OFFCURVE",
"260 455 CURVE SMOOTH",
"312 455 OFFCURVE",
"353 426 OFFCURVE",
"383 394 CURVE",
"383 125 LINE"
);
}
);
width = 597;
}
);
unicode = 0064;
},
{
glyphname = eth;
lastChange = "2019-07-27 02:39:24 +0000";
layers = (
{
layerId = master01;
paths = (
{
closed = 1;
nodes = (
"424 727 LINE",
"307 660 LINE",
"287 681 OFFCURVE",
"268 700 OFFCURVE",
"251 717 CURVE",
"135 717 LINE",
"169 680 OFFCURVE",
"198 646 OFFCURVE",
"224 613 CURVE",
"131 559 LINE",
"131 525 LINE",
"248 582 LINE",
"267 555 OFFCURVE",
"285 529 OFFCURVE",
"300 502 CURVE",
"298 502 LINE SMOOTH",
"112 502 OFFCURVE",
"30 352 OFFCURVE",
"30 223 CURVE SMOOTH",
"30 103 OFFCURVE",
"100 -12 OFFCURVE",
"242 -12 CURVE SMOOTH",
"428 -12 OFFCURVE",
"510 138 OFFCURVE",
"510 267 CURVE SMOOTH",
"510 401 OFFCURVE",
"423 529 OFFCURVE",
"338 626 CURVE",
"426 669 LINE"
);
},
{
closed = 1;
nodes = (
"332 464 OFFCURVE",
"385 332 OFFCURVE",
"385 176 CURVE SMOOTH",
"385 124 OFFCURVE",
"371 26 OFFCURVE",
"297 26 CURVE SMOOTH",
"209 26 OFFCURVE",
"157 158 OFFCURVE",
"157 314 CURVE SMOOTH",
"157 374 OFFCURVE",
"161 464 OFFCURVE",
"244 464 CURVE SMOOTH"
);
}
);
width = 540;
},
{
layerId = "E2F25E8D-4609-4642-A608-BE80737248C7";
paths = (
{
closed = 1;
nodes = (
"424 727 LINE",
"307 660 LINE",
"287 681 OFFCURVE",
"268 700 OFFCURVE",
"251 717 CURVE",
"135 717 LINE",
"169 680 OFFCURVE",
"198 646 OFFCURVE",
"224 613 CURVE",
"131 559 LINE",
"131 525 LINE",
"248 582 LINE",
"267 555 OFFCURVE",
"285 529 OFFCURVE",
"300 502 CURVE",
"298 502 LINE SMOOTH",
"112 502 OFFCURVE",
"30 352 OFFCURVE",
"30 223 CURVE SMOOTH",
"30 103 OFFCURVE",
"100 -12 OFFCURVE",
"242 -12 CURVE SMOOTH",
"428 -12 OFFCURVE",
"510 138 OFFCURVE",
"510 267 CURVE SMOOTH",
"510 401 OFFCURVE",
"423 529 OFFCURVE",
"338 626 CURVE",
"426 669 LINE"
);
},
{
closed = 1;
nodes = (
"332 464 OFFCURVE",
"385 332 OFFCURVE",
"385 176 CURVE SMOOTH",
"385 124 OFFCURVE",
"371 26 OFFCURVE",
"297 26 CURVE SMOOTH",
"209 26 OFFCURVE",
"157 158 OFFCURVE",
"157 314 CURVE SMOOTH",
"157 374 OFFCURVE",
"161 464 OFFCURVE",
"244 464 CURVE SMOOTH"
);
}
);
width = 540;
}
);
unicode = 00F0;
},
{
glyphname = dcaron;
lastChange = "2019-07-27 02:39:24 +0000";
layers = (
{
layerId = master01;
paths = (
{
closed = 1;
nodes = (
"608 464 OFFCURVE",
"733 516 OFFCURVE",
"733 614 CURVE SMOOTH",
"733 648 OFFCURVE",
"685 691 OFFCURVE",
"652 711 CURVE",
"569 626 LINE",
"608 595 LINE",
"621 581 OFFCURVE",
"640 569 OFFCURVE",
"640 543 CURVE SMOOTH",
"640 505 OFFCURVE",
"606 488 OFFCURVE",
"572 469 CURVE",
"586 459 LINE"
);
},
{
closed = 1;
nodes = (
"577 0 LINE",
"503 70 LINE",
"503 710 LINE",
"315 653 LINE",
"383 576 LINE",
"383 490 LINE",
"299 490 LINE SMOOTH",
"117 490 OFFCURVE",
"35 354 OFFCURVE",
"35 225 CURVE SMOOTH",
"35 105 OFFCURVE",
"99 -10 OFFCURVE",
"230 -10 CURVE SMOOTH",
"307 -10 OFFCURVE",
"353 37 OFFCURVE",
"383 89 CURVE",
"383 -9 LINE"
);
},
{
closed = 1;
nodes = (
"364 110 OFFCURVE",
"343 100 OFFCURVE",
"308 100 CURVE SMOOTH",
"223 100 OFFCURVE",
"154 160 OFFCURVE",
"154 316 CURVE SMOOTH",
"154 376 OFFCURVE",
"172 455 OFFCURVE",
"260 455 CURVE SMOOTH",
"312 455 OFFCURVE",
"353 426 OFFCURVE",
"383 394 CURVE",
"383 125 LINE"
);
}
);
width = 758;
},
{
layerId = "E2F25E8D-4609-4642-A608-BE80737248C7";
paths = (
{
closed = 1;
nodes = (
"608 464 OFFCURVE",
"733 516 OFFCURVE",
"733 614 CURVE SMOOTH",
"733 648 OFFCURVE",
"685 691 OFFCURVE",
"652 711 CURVE",
"569 626 LINE",
"608 595 LINE",
"621 581 OFFCURVE",
"640 569 OFFCURVE",
"640 543 CURVE SMOOTH",
"640 505 OFFCURVE",
"606 488 OFFCURVE",
"572 469 CURVE",
"586 459 LINE"
);
},
{
closed = 1;
nodes = (
"577 0 LINE",
"503 70 LINE",
"503 710 LINE",
"315 653 LINE",
"383 576 LINE",
"383 490 LINE",
"299 490 LINE SMOOTH",
"117 490 OFFCURVE",
"35 354 OFFCURVE",
"35 225 CURVE SMOOTH",
"35 105 OFFCURVE",
"99 -10 OFFCURVE",
"230 -10 CURVE SMOOTH",
"307 -10 OFFCURVE",
"353 37 OFFCURVE",
"383 89 CURVE",
"383 -9 LINE"
);
},
{
closed = 1;
nodes = (
"364 110 OFFCURVE",
"343 100 OFFCURVE",
"308 100 CURVE SMOOTH",
"223 100 OFFCURVE",
"154 160 OFFCURVE",
"154 316 CURVE SMOOTH",
"154 376 OFFCURVE",
"172 455 OFFCURVE",
"260 455 CURVE SMOOTH",
"312 455 OFFCURVE",
"353 426 OFFCURVE",
"383 394 CURVE",
"383 125 LINE"
);
}
);
width = 758;
}
);
unicode = 010F;
},
{
glyphname = e;
lastChange = "2019-07-27 02:39:24 +0000";
layers = (
{
layerId = master01;
paths = (
{
closed = 1;
nodes = (
"462 283 LINE",
"461 285 LINE",
"460 420 OFFCURVE",
"387 500 OFFCURVE",
"268 500 CURVE SMOOTH",
"105 500 OFFCURVE",
"25 352 OFFCURVE",
"25 223 CURVE SMOOTH",
"25 103 OFFCURVE",
"99 -14 OFFCURVE",
"230 -14 CURVE SMOOTH",
"349 -14 OFFCURVE",
"420 78 OFFCURVE",
"456 169 CURVE",
"441 175 LINE",
"426 133 OFFCURVE",
"366 99 OFFCURVE",
"298 99 CURVE SMOOTH",
"220 99 OFFCURVE",
"151 153 OFFCURVE",
"140 282 CURVE",
"461 282 LINE",
"461 283 LINE"
);
},
{
closed = 1;
nodes = (
"138 312 LINE",
"138 319 LINE SMOOTH",
"138 379 OFFCURVE",
"169 470 OFFCURVE",
"245 470 CURVE SMOOTH",
"289 470 OFFCURVE",
"332 428 OFFCURVE",
"332 321 CURVE SMOOTH",
"332 312 LINE"
);
}
);
width = 492;
},
{
layerId = "E2F25E8D-4609-4642-A608-BE80737248C7";
paths = (
{
closed = 1;
nodes = (
"462 283 LINE",
"461 285 LINE",
"460 420 OFFCURVE",
"387 500 OFFCURVE",
"268 500 CURVE SMOOTH",
"105 500 OFFCURVE",
"25 352 OFFCURVE",
"25 223 CURVE SMOOTH",
"25 103 OFFCURVE",
"99 -14 OFFCURVE",
"230 -14 CURVE SMOOTH",
"349 -14 OFFCURVE",
"420 78 OFFCURVE",
"456 169 CURVE",
"441 175 LINE",
"426 133 OFFCURVE",
"366 99 OFFCURVE",
"298 99 CURVE SMOOTH",
"220 99 OFFCURVE",
"151 153 OFFCURVE",
"140 282 CURVE",
"461 282 LINE",
"461 283 LINE"
);
},
{
closed = 1;
nodes = (
"138 312 LINE",
"138 319 LINE SMOOTH",
"138 379 OFFCURVE",
"169 470 OFFCURVE",
"245 470 CURVE SMOOTH",
"289 470 OFFCURVE",
"332 428 OFFCURVE",
"332 321 CURVE SMOOTH",
"332 312 LINE"
);
}
);
width = 492;
}
);
unicode = 0065;
},
{
glyphname = eacute;
lastChange = "2019-07-27 02:39:24 +0000";
layers = (
{
layerId = master01;
paths = (
{
closed = 1;
nodes = (
"370 679 LINE",
"244 679 LINE",
"226 550 LINE",
"241 550 LINE"
);
},
{
closed = 1;
nodes = (
"467 283 LINE",
"466 285 LINE",
"465 420 OFFCURVE",
"392 500 OFFCURVE",
"273 500 CURVE SMOOTH",
"110 500 OFFCURVE",
"30 352 OFFCURVE",
"30 223 CURVE SMOOTH",
"30 103 OFFCURVE",
"104 -14 OFFCURVE",
"235 -14 CURVE SMOOTH",
"354 -14 OFFCURVE",
"425 78 OFFCURVE",
"461 169 CURVE",
"446 175 LINE",
"431 133 OFFCURVE",
"371 99 OFFCURVE",
"303 99 CURVE SMOOTH",
"225 99 OFFCURVE",
"156 153 OFFCURVE",
"145 282 CURVE",
"466 282 LINE",
"466 283 LINE"
);
},
{
closed = 1;
nodes = (
"143 312 LINE",
"143 319 LINE SMOOTH",
"143 379 OFFCURVE",
"174 470 OFFCURVE",
"250 470 CURVE SMOOTH",
"294 470 OFFCURVE",
"337 428 OFFCURVE",
"337 321 CURVE SMOOTH",
"337 312 LINE"
);
}
);
width = 497;
},
{
layerId = "E2F25E8D-4609-4642-A608-BE80737248C7";
paths = (
{
closed = 1;
nodes = (
"370 679 LINE",
"244 679 LINE",
"226 550 LINE",
"241 550 LINE"
);
},
{
closed = 1;
nodes = (
"467 283 LINE",
"466 285 LINE",
"465 420 OFFCURVE",
"392 500 OFFCURVE",
"273 500 CURVE SMOOTH",
"110 500 OFFCURVE",
"30 352 OFFCURVE",
"30 223 CURVE SMOOTH",
"30 103 OFFCURVE",
"104 -14 OFFCURVE",
"235 -14 CURVE SMOOTH",
"354 -14 OFFCURVE",
"425 78 OFFCURVE",
"461 169 CURVE",
"446 175 LINE",
"431 133 OFFCURVE",
"371 99 OFFCURVE",
"303 99 CURVE SMOOTH",
"225 99 OFFCURVE",
"156 153 OFFCURVE",
"145 282 CURVE",
"466 282 LINE",
"466 283 LINE"
);
},
{
closed = 1;
nodes = (
"143 312 LINE",
"143 319 LINE SMOOTH",
"143 379 OFFCURVE",
"174 470 OFFCURVE",
"250 470 CURVE SMOOTH",
"294 470 OFFCURVE",
"337 428 OFFCURVE",
"337 321 CURVE SMOOTH",
"337 312 LINE"
);
}
);
width = 497;
}
);
unicode = 00E9;
},
{
glyphname = ecaron;
lastChange = "2019-07-27 02:39:24 +0000";
layers = (
{
layerId = master01;
paths = (
{
closed = 1;
nodes = (
"174 681 LINE",
"160 681 LINE",
"217 552 LINE",
"300 552 LINE",
"358 681 LINE",
"342 681 LINE",
"259 608 LINE"
);
},
{
closed = 1;
nodes = (
"466 421 OFFCURVE",
"393 502 OFFCURVE",
"273 502 CURVE SMOOTH",
"110 502 OFFCURVE",
"30 354 OFFCURVE",
"30 225 CURVE SMOOTH",
"30 105 OFFCURVE",
"104 -12 OFFCURVE",
"235 -12 CURVE SMOOTH",
"354 -12 OFFCURVE",
"425 80 OFFCURVE",
"461 171 CURVE",
"446 177 LINE",
"431 135 OFFCURVE",
"371 101 OFFCURVE",
"303 101 CURVE SMOOTH",
"225 101 OFFCURVE",
"156 155 OFFCURVE",
"145 284 CURVE",
"466 284 LINE"
);
},
{
closed = 1;
nodes = (
"143 321 LINE SMOOTH",
"143 381 OFFCURVE",
"174 472 OFFCURVE",
"250 472 CURVE SMOOTH",
"294 472 OFFCURVE",
"337 430 OFFCURVE",
"337 323 CURVE SMOOTH",
"337 319 OFFCURVE",
"337 314 OFFCURVE",
"336 310 CURVE",
"143 310 LINE"
);
}
);
width = 496;
},
{
layerId = "E2F25E8D-4609-4642-A608-BE80737248C7";
paths = (
{
closed = 1;
nodes = (
"174 681 LINE",
"160 681 LINE",
"217 552 LINE",
"300 552 LINE",
"358 681 LINE",
"342 681 LINE",
"259 608 LINE"
);
},
{
closed = 1;
nodes = (
"466 421 OFFCURVE",
"393 502 OFFCURVE",
"273 502 CURVE SMOOTH",
"110 502 OFFCURVE",
"30 354 OFFCURVE",
"30 225 CURVE SMOOTH",
"30 105 OFFCURVE",
"104 -12 OFFCURVE",
"235 -12 CURVE SMOOTH",
"354 -12 OFFCURVE",
"425 80 OFFCURVE",
"461 171 CURVE",
"446 177 LINE",
"431 135 OFFCURVE",
"371 101 OFFCURVE",
"303 101 CURVE SMOOTH",
"225 101 OFFCURVE",
"156 155 OFFCURVE",
"145 284 CURVE",
"466 284 LINE"
);
},
{
closed = 1;
nodes = (
"143 321 LINE SMOOTH",
"143 381 OFFCURVE",
"174 472 OFFCURVE",
"250 472 CURVE SMOOTH",
"294 472 OFFCURVE",
"337 430 OFFCURVE",
"337 323 CURVE SMOOTH",
"337 319 OFFCURVE",
"337 314 OFFCURVE",
"336 310 CURVE",
"143 310 LINE"
);
}
);
width = 496;
}
);
unicode = 011B;
},
{
glyphname = ecircumflex;
lastChange = "2019-07-27 02:39:24 +0000";
layers = (
{
layerId = master01;
paths = (
{
closed = 1;
nodes = (
"260 623 LINE",
"343 550 LINE",
"359 550 LINE",
"301 679 LINE",
"218 679 LINE",
"161 550 LINE",
"175 550 LINE"
);
},
{
closed = 1;
nodes = (
"467 283 LINE",
"466 285 LINE",
"465 420 OFFCURVE",
"392 500 OFFCURVE",
"273 500 CURVE SMOOTH",
"110 500 OFFCURVE",
"30 352 OFFCURVE",
"30 223 CURVE SMOOTH",
"30 103 OFFCURVE",
"104 -14 OFFCURVE",
"235 -14 CURVE SMOOTH",
"354 -14 OFFCURVE",
"425 78 OFFCURVE",
"461 169 CURVE",
"446 175 LINE",
"431 133 OFFCURVE",
"371 99 OFFCURVE",
"303 99 CURVE SMOOTH",
"225 99 OFFCURVE",
"156 153 OFFCURVE",
"145 282 CURVE",
"466 282 LINE",
"466 283 LINE"
);
},
{
closed = 1;
nodes = (
"143 312 LINE",
"143 319 LINE SMOOTH",
"143 379 OFFCURVE",
"174 470 OFFCURVE",
"250 470 CURVE SMOOTH",
"294 470 OFFCURVE",
"337 428 OFFCURVE",
"337 321 CURVE SMOOTH",
"337 312 LINE"
);
}
);
width = 497;
},
{
layerId = "E2F25E8D-4609-4642-A608-BE80737248C7";
paths = (
{
closed = 1;
nodes = (
"260 623 LINE",
"343 550 LINE",
"359 550 LINE",
"301 679 LINE",
"218 679 LINE",
"161 550 LINE",
"175 550 LINE"
);
},
{
closed = 1;
nodes = (
"467 283 LINE",
"466 285 LINE",
"465 420 OFFCURVE",
"392 500 OFFCURVE",
"273 500 CURVE SMOOTH",
"110 500 OFFCURVE",
"30 352 OFFCURVE",
"30 223 CURVE SMOOTH",
"30 103 OFFCURVE",
"104 -14 OFFCURVE",
"235 -14 CURVE SMOOTH",
"354 -14 OFFCURVE",
"425 78 OFFCURVE",
"461 169 CURVE",
"446 175 LINE",
"431 133 OFFCURVE",
"371 99 OFFCURVE",
"303 99 CURVE SMOOTH",
"225 99 OFFCURVE",
"156 153 OFFCURVE",
"145 282 CURVE",
"466 282 LINE",
"466 283 LINE"
);
},
{
closed = 1;
nodes = (
"143 312 LINE",
"143 319 LINE SMOOTH",
"143 379 OFFCURVE",
"174 470 OFFCURVE",
"250 470 CURVE SMOOTH",
"294 470 OFFCURVE",
"337 428 OFFCURVE",
"337 321 CURVE SMOOTH",
"337 312 LINE"
);
}
);
width = 497;
}
);
unicode = 00EA;
},
{
glyphname = edieresis;
lastChange = "2019-07-27 02:39:24 +0000";
layers = (
{
layerId = master01;
paths = (
{
closed = 1;
nodes = (
"227 620 LINE",
"160 696 LINE",
"92 620 LINE",
"160 543 LINE"
);
},
{
closed = 1;
nodes = (
"432 620 LINE",
"365 696 LINE",
"297 620 LINE",
"365 543 LINE"
);
},
{
closed = 1;
nodes = (
"467 283 LINE",
"466 285 LINE",
"465 420 OFFCURVE",
"392 500 OFFCURVE",
"273 500 CURVE SMOOTH",
"110 500 OFFCURVE",
"30 352 OFFCURVE",
"30 223 CURVE SMOOTH",
"30 103 OFFCURVE",
"104 -14 OFFCURVE",
"235 -14 CURVE SMOOTH",
"354 -14 OFFCURVE",
"425 78 OFFCURVE",
"461 169 CURVE",
"446 175 LINE",
"431 133 OFFCURVE",
"371 99 OFFCURVE",
"303 99 CURVE SMOOTH",
"225 99 OFFCURVE",
"156 153 OFFCURVE",
"145 282 CURVE",
"466 282 LINE",
"466 283 LINE"
);
},
{
closed = 1;
nodes = (
"143 312 LINE",
"143 319 LINE SMOOTH",
"143 379 OFFCURVE",
"174 470 OFFCURVE",
"250 470 CURVE SMOOTH",
"294 470 OFFCURVE",
"337 428 OFFCURVE",
"337 321 CURVE SMOOTH",
"337 312 LINE"
);
}
);
width = 497;
},
{
layerId = "E2F25E8D-4609-4642-A608-BE80737248C7";
paths = (
{
closed = 1;
nodes = (
"227 620 LINE",
"160 696 LINE",
"92 620 LINE",
"160 543 LINE"
);
},
{
closed = 1;
nodes = (
"432 620 LINE",
"365 696 LINE",
"297 620 LINE",
"365 543 LINE"
);
},
{
closed = 1;
nodes = (
"467 283 LINE",
"466 285 LINE",
"465 420 OFFCURVE",
"392 500 OFFCURVE",
"273 500 CURVE SMOOTH",
"110 500 OFFCURVE",
"30 352 OFFCURVE",
"30 223 CURVE SMOOTH",
"30 103 OFFCURVE",
"104 -14 OFFCURVE",
"235 -14 CURVE SMOOTH",
"354 -14 OFFCURVE",
"425 78 OFFCURVE",
"461 169 CURVE",
"446 175 LINE",
"431 133 OFFCURVE",
"371 99 OFFCURVE",
"303 99 CURVE SMOOTH",
"225 99 OFFCURVE",
"156 153 OFFCURVE",
"145 282 CURVE",
"466 282 LINE",
"466 283 LINE"
);
},
{
closed = 1;
nodes = (
"143 312 LINE",
"143 319 LINE SMOOTH",
"143 379 OFFCURVE",
"174 470 OFFCURVE",
"250 470 CURVE SMOOTH",
"294 470 OFFCURVE",
"337 428 OFFCURVE",
"337 321 CURVE SMOOTH",
"337 312 LINE"
);
}
);
width = 497;
}
);
unicode = 00EB;
},
{
glyphname = edotaccent;
lastChange = "2019-07-27 02:39:24 +0000";
layers = (
{
layerId = master01;
paths = (
{
closed = 1;
nodes = (
"265 546 LINE",
"335 627 LINE",
"265 707 LINE",
"194 627 LINE"
);
},
{
closed = 1;
nodes = (
"466 421 OFFCURVE",
"393 502 OFFCURVE",
"273 502 CURVE SMOOTH",
"110 502 OFFCURVE",
"30 354 OFFCURVE",
"30 225 CURVE SMOOTH",
"30 105 OFFCURVE",
"104 -12 OFFCURVE",
"235 -12 CURVE SMOOTH",
"354 -12 OFFCURVE",
"425 80 OFFCURVE",
"461 171 CURVE",
"446 177 LINE",
"431 135 OFFCURVE",
"371 101 OFFCURVE",
"303 101 CURVE SMOOTH",
"225 101 OFFCURVE",
"156 155 OFFCURVE",
"145 284 CURVE",
"466 284 LINE"
);
},
{
closed = 1;
nodes = (
"143 321 LINE SMOOTH",
"143 381 OFFCURVE",
"174 472 OFFCURVE",
"250 472 CURVE SMOOTH",
"294 472 OFFCURVE",
"337 430 OFFCURVE",
"337 323 CURVE SMOOTH",
"337 319 OFFCURVE",
"337 314 OFFCURVE",
"336 310 CURVE",
"143 310 LINE"
);
}
);
width = 496;
},
{
layerId = "E2F25E8D-4609-4642-A608-BE80737248C7";
paths = (
{
closed = 1;
nodes = (
"265 546 LINE",
"335 627 LINE",
"265 707 LINE",
"194 627 LINE"
);
},
{
closed = 1;
nodes = (
"466 421 OFFCURVE",
"393 502 OFFCURVE",
"273 502 CURVE SMOOTH",
"110 502 OFFCURVE",
"30 354 OFFCURVE",
"30 225 CURVE SMOOTH",
"30 105 OFFCURVE",
"104 -12 OFFCURVE",
"235 -12 CURVE SMOOTH",
"354 -12 OFFCURVE",
"425 80 OFFCURVE",
"461 171 CURVE",
"446 177 LINE",
"431 135 OFFCURVE",
"371 101 OFFCURVE",
"303 101 CURVE SMOOTH",
"225 101 OFFCURVE",
"156 155 OFFCURVE",
"145 284 CURVE",
"466 284 LINE"
);
},
{
closed = 1;
nodes = (
"143 321 LINE SMOOTH",
"143 381 OFFCURVE",
"174 472 OFFCURVE",
"250 472 CURVE SMOOTH",
"294 472 OFFCURVE",
"337 430 OFFCURVE",
"337 323 CURVE SMOOTH",
"337 319 OFFCURVE",
"337 314 OFFCURVE",
"336 310 CURVE",
"143 310 LINE"
);
}
);
width = 496;
}
);
unicode = 0117;
},
{
glyphname = egrave;
lastChange = "2019-07-27 02:39:24 +0000";
layers = (
{
layerId = master01;
paths = (
{
closed = 1;
nodes = (
"282 550 LINE",
"264 679 LINE",
"138 679 LINE",
"267 550 LINE"
);
},
{
closed = 1;
nodes = (
"467 283 LINE",
"466 285 LINE",
"465 420 OFFCURVE",
"392 500 OFFCURVE",
"273 500 CURVE SMOOTH",
"110 500 OFFCURVE",
"30 352 OFFCURVE",
"30 223 CURVE SMOOTH",
"30 103 OFFCURVE",
"104 -14 OFFCURVE",
"235 -14 CURVE SMOOTH",
"354 -14 OFFCURVE",
"425 78 OFFCURVE",
"461 169 CURVE",
"446 175 LINE",
"431 133 OFFCURVE",
"371 99 OFFCURVE",
"303 99 CURVE SMOOTH",
"225 99 OFFCURVE",
"156 153 OFFCURVE",
"145 282 CURVE",
"466 282 LINE",
"466 283 LINE"
);
},
{
closed = 1;
nodes = (
"143 312 LINE",
"143 319 LINE SMOOTH",
"143 379 OFFCURVE",
"174 470 OFFCURVE",
"250 470 CURVE SMOOTH",
"294 470 OFFCURVE",
"337 428 OFFCURVE",
"337 321 CURVE SMOOTH",
"337 312 LINE"
);
}
);
width = 497;
},
{
layerId = "E2F25E8D-4609-4642-A608-BE80737248C7";
paths = (
{
closed = 1;
nodes = (
"282 550 LINE",
"264 679 LINE",
"138 679 LINE",
"267 550 LINE"
);
},
{
closed = 1;
nodes = (
"467 283 LINE",
"466 285 LINE",
"465 420 OFFCURVE",
"392 500 OFFCURVE",
"273 500 CURVE SMOOTH",
"110 500 OFFCURVE",
"30 352 OFFCURVE",
"30 223 CURVE SMOOTH",
"30 103 OFFCURVE",
"104 -14 OFFCURVE",
"235 -14 CURVE SMOOTH",
"354 -14 OFFCURVE",
"425 78 OFFCURVE",
"461 169 CURVE",
"446 175 LINE",
"431 133 OFFCURVE",
"371 99 OFFCURVE",
"303 99 CURVE SMOOTH",
"225 99 OFFCURVE",
"156 153 OFFCURVE",
"145 282 CURVE",
"466 282 LINE",
"466 283 LINE"
);
},
{
closed = 1;
nodes = (
"143 312 LINE",
"143 319 LINE SMOOTH",
"143 379 OFFCURVE",
"174 470 OFFCURVE",
"250 470 CURVE SMOOTH",
"294 470 OFFCURVE",
"337 428 OFFCURVE",
"337 321 CURVE SMOOTH",
"337 312 LINE"
);
}
);
width = 497;
}
);
unicode = 00E8;
},
{
glyphname = f;
lastChange = "2019-07-27 02:39:24 +0000";
layers = (
{
layerId = master01;
paths = (
{
closed = 1;
nodes = (
"307 694 LINE SMOOTH",
"163 694 OFFCURVE",
"101 586 OFFCURVE",
"90 490 CURVE",
"19 490 LINE",
"24 487 LINE",
"19 489 LINE",
"89 427 LINE",
"89 85 LINE",
"15 -1 LINE",
"300 -1 LINE",
"209 85 LINE",
"209 436 LINE",
"379 436 LINE",
"401 490 LINE",
"209 490 LINE",
"199 516 OFFCURVE",
"191 549 OFFCURVE",
"191 579 CURVE SMOOTH",
"191 623 OFFCURVE",
"209 660 OFFCURVE",
"268 660 CURVE SMOOTH",
"342 660 OFFCURVE",
"391 588 OFFCURVE",
"420 544 CURVE",
"427 544 LINE",
"427 694 LINE"
);
}
);
width = 387;
},
{
layerId = "E2F25E8D-4609-4642-A608-BE80737248C7";
paths = (
{
closed = 1;
nodes = (
"307 694 LINE SMOOTH",
"163 694 OFFCURVE",
"101 586 OFFCURVE",
"90 490 CURVE",
"19 490 LINE",
"24 487 LINE",
"19 489 LINE",
"89 427 LINE",
"89 85 LINE",
"15 -1 LINE",
"300 -1 LINE",
"209 85 LINE",
"209 436 LINE",
"379 436 LINE",
"401 490 LINE",
"209 490 LINE",
"199 516 OFFCURVE",
"191 549 OFFCURVE",
"191 579 CURVE SMOOTH",
"191 623 OFFCURVE",
"209 660 OFFCURVE",
"268 660 CURVE SMOOTH",
"342 660 OFFCURVE",
"391 588 OFFCURVE",
"420 544 CURVE",
"427 544 LINE",
"427 694 LINE"
);
}
);
width = 387;
}
);
unicode = 0066;
},
{
glyphname = g;
lastChange = "2019-07-27 02:39:24 +0000";
layers = (
{
layerId = master01;
paths = (
{
closed = 1;
nodes = (
"320 497 LINE",
"305 500 OFFCURVE",
"288 502 OFFCURVE",
"269 502 CURVE SMOOTH",
"114 502 OFFCURVE",
"45 399 OFFCURVE",
"45 313 CURVE SMOOTH",
"45 254 OFFCURVE",
"76 198 OFFCURVE",
"138 172 CURVE",
"99 148 OFFCURVE",
"45 114 OFFCURVE",
"45 53 CURVE SMOOTH",
"45 16 OFFCURVE",
"76 -16 OFFCURVE",
"105 -28 CURVE",
"72 -42 OFFCURVE",
"20 -70 OFFCURVE",
"20 -119 CURVE SMOOTH",
"20 -189 OFFCURVE",
"85 -232 OFFCURVE",
"220 -232 CURVE SMOOTH",
"384 -232 OFFCURVE",
"473 -127 OFFCURVE",
"473 -11 CURVE SMOOTH",
"473 23 OFFCURVE",
"461 53 OFFCURVE",
"450 71 CURVE",
"181 71 LINE",
"146 75 OFFCURVE",
"126 89 OFFCURVE",
"126 119 CURVE SMOOTH",
"126 133 OFFCURVE",
"149 151 OFFCURVE",
"163 164 CURVE",
"181 159 OFFCURVE",
"201 156 OFFCURVE",
"223 156 CURVE SMOOTH",
"378 156 OFFCURVE",
"449 263 OFFCURVE",
"449 349 CURVE SMOOTH",
"449 385 OFFCURVE",
"437 419 OFFCURVE",
"414 446 CURVE",
"436 492 OFFCURVE",
"446 527 OFFCURVE",
"451 588 CURVE",
"447 589 LINE"
);
},
{
closed = 1;
nodes = (
"283 473 OFFCURVE",
"320 392 OFFCURVE",
"320 289 CURVE SMOOTH",
"320 249 OFFCURVE",
"314 184 OFFCURVE",
"265 184 CURVE SMOOTH",
"208 184 OFFCURVE",
"173 271 OFFCURVE",
"173 374 CURVE SMOOTH",
"173 414 OFFCURVE",
"177 473 OFFCURVE",
"226 473 CURVE SMOOTH"
);
},
{
closed = 1;
nodes = (
"394 -55 OFFCURVE",
"398 -74 OFFCURVE",
"398 -99 CURVE SMOOTH",
"398 -147 OFFCURVE",
"346 -209 OFFCURVE",
"234 -209 CURVE SMOOTH",
"144 -209 OFFCURVE",
"96 -176 OFFCURVE",
"96 -110 CURVE SMOOTH",
"96 -82 OFFCURVE",
"107 -59 OFFCURVE",
"129 -42 CURVE",
"384 -42 LINE"
);
}
);
width = 506;
},
{
layerId = "E2F25E8D-4609-4642-A608-BE80737248C7";
paths = (
{
closed = 1;
nodes = (
"320 497 LINE",
"305 500 OFFCURVE",
"288 502 OFFCURVE",
"269 502 CURVE SMOOTH",
"114 502 OFFCURVE",
"45 399 OFFCURVE",
"45 313 CURVE SMOOTH",
"45 254 OFFCURVE",
"76 198 OFFCURVE",
"138 172 CURVE",
"99 148 OFFCURVE",
"45 114 OFFCURVE",
"45 53 CURVE SMOOTH",
"45 16 OFFCURVE",
"76 -16 OFFCURVE",
"105 -28 CURVE",
"72 -42 OFFCURVE",
"20 -70 OFFCURVE",
"20 -119 CURVE SMOOTH",
"20 -189 OFFCURVE",
"85 -232 OFFCURVE",
"220 -232 CURVE SMOOTH",
"384 -232 OFFCURVE",
"473 -127 OFFCURVE",
"473 -11 CURVE SMOOTH",
"473 23 OFFCURVE",
"461 53 OFFCURVE",
"450 71 CURVE",
"181 71 LINE",
"146 75 OFFCURVE",
"126 89 OFFCURVE",
"126 119 CURVE SMOOTH",
"126 133 OFFCURVE",
"149 151 OFFCURVE",
"163 164 CURVE",
"181 159 OFFCURVE",
"201 156 OFFCURVE",
"223 156 CURVE SMOOTH",
"378 156 OFFCURVE",
"449 263 OFFCURVE",
"449 349 CURVE SMOOTH",
"449 385 OFFCURVE",
"437 419 OFFCURVE",
"414 446 CURVE",
"436 492 OFFCURVE",
"446 527 OFFCURVE",
"451 588 CURVE",
"447 589 LINE"
);
},
{
closed = 1;
nodes = (
"283 473 OFFCURVE",
"320 392 OFFCURVE",
"320 289 CURVE SMOOTH",
"320 249 OFFCURVE",
"314 184 OFFCURVE",
"265 184 CURVE SMOOTH",
"208 184 OFFCURVE",
"173 271 OFFCURVE",
"173 374 CURVE SMOOTH",
"173 414 OFFCURVE",
"177 473 OFFCURVE",
"226 473 CURVE SMOOTH"
);
},
{
closed = 1;
nodes = (
"394 -55 OFFCURVE",
"398 -74 OFFCURVE",
"398 -99 CURVE SMOOTH",
"398 -147 OFFCURVE",
"346 -209 OFFCURVE",
"234 -209 CURVE SMOOTH",
"144 -209 OFFCURVE",
"96 -176 OFFCURVE",
"96 -110 CURVE SMOOTH",
"96 -82 OFFCURVE",
"107 -59 OFFCURVE",
"129 -42 CURVE",
"384 -42 LINE"
);
}
);
width = 506;
}
);
unicode = 0067;
},
{
glyphname = h;
lastChange = "2019-07-27 02:39:24 +0000";
layers = (
{
layerId = master01;
paths = (
{
closed = 1;
nodes = (
"26 643 LINE",
"94 566 LINE",
"94 86 LINE",
"20 0 LINE",
"288 0 LINE",
"214 86 LINE",
"214 377 LINE",
"246 420 OFFCURVE",
"284 436 OFFCURVE",
"321 436 CURVE SMOOTH",
"398 436 OFFCURVE",
"409 387 OFFCURVE",
"409 310 CURVE SMOOTH",
"409 85 LINE",
"336 0 LINE",
"604 0 LINE",
"530 86 LINE",
"529 86 LINE",
"529 344 LINE SMOOTH",
"529 438 OFFCURVE",
"481 504 OFFCURVE",
"379 504 CURVE SMOOTH",
"319 504 OFFCURVE",
"254 473 OFFCURVE",
"214 411 CURVE",
"214 710 LINE"
);
}
);
width = 624;
},
{
layerId = "E2F25E8D-4609-4642-A608-BE80737248C7";
paths = (
{
closed = 1;
nodes = (
"26 643 LINE",
"94 566 LINE",
"94 86 LINE",
"20 0 LINE",
"288 0 LINE",
"214 86 LINE",
"214 377 LINE",
"246 420 OFFCURVE",
"284 436 OFFCURVE",
"321 436 CURVE SMOOTH",
"398 436 OFFCURVE",
"409 387 OFFCURVE",
"409 310 CURVE SMOOTH",
"409 85 LINE",
"336 0 LINE",
"604 0 LINE",
"530 86 LINE",
"529 86 LINE",
"529 344 LINE SMOOTH",
"529 438 OFFCURVE",
"481 504 OFFCURVE",
"379 504 CURVE SMOOTH",
"319 504 OFFCURVE",
"254 473 OFFCURVE",
"214 411 CURVE",
"214 710 LINE"
);
}
);
width = 624;
}
);
unicode = 0068;
},
{
glyphname = i;
lastChange = "2019-07-27 02:57:23 +0000";
layers = (
{
layerId = master01;
paths = (
{
closed = 1;
nodes = (
"156 546 LINE",
"241 639 LINE",
"156 731 LINE",
"70 639 LINE"
);
},
{
closed = 1;
nodes = (
"99 356 LINE",
"99 86 LINE",
"25 0 LINE",
"293 0 LINE",
"219 86 LINE",
"219 500 LINE",
"31 433 LINE"
);
}
);
width = 318;
},
{
layerId = "E2F25E8D-4609-4642-A608-BE80737248C7";
paths = (
{
closed = 1;
nodes = (
"156 636 LINE",
"199 684 LINE",
"156 731 LINE",
"112 684 LINE"
);
},
{
closed = 1;
nodes = (
"149 433 LINE",
"149 36 LINE",
"55 0 LINE",
"253 0 LINE",
"179 36 LINE",
"179 468 LINE",
"71 433 LINE"
);
}
);
width = 318;
}
);
unicode = 0069;
},
{
glyphname = dotlessi;
lastChange = "2019-07-27 02:39:24 +0000";
layers = (
{
layerId = master01;
paths = (
{
closed = 1;
nodes = (
"99 356 LINE",
"99 86 LINE",
"25 0 LINE",
"293 0 LINE",
"219 86 LINE",
"219 500 LINE",
"31 433 LINE"
);
}
);
width = 318;
},
{
layerId = "E2F25E8D-4609-4642-A608-BE80737248C7";
paths = (
{
closed = 1;
nodes = (
"99 356 LINE",
"99 86 LINE",
"25 0 LINE",
"293 0 LINE",
"219 86 LINE",
"219 500 LINE",
"31 433 LINE"
);
}
);
width = 318;
}
);
unicode = 0131;
},
{
glyphname = iacute;
lastChange = "2019-07-27 02:39:24 +0000";
layers = (
{
layerId = master01;
paths = (
{
closed = 1;
nodes = (
"242 681 LINE",
"116 681 LINE",
"98 552 LINE",
"113 552 LINE"
);
},
{
closed = 1;
nodes = (
"99 356 LINE",
"99 86 LINE",
"25 0 LINE",
"293 0 LINE",
"219 86 LINE",
"219 500 LINE",
"31 433 LINE"
);
}
);
width = 318;
},
{
layerId = "E2F25E8D-4609-4642-A608-BE80737248C7";
paths = (
{
closed = 1;
nodes = (
"242 681 LINE",
"116 681 LINE",
"98 552 LINE",
"113 552 LINE"
);
},
{
closed = 1;
nodes = (
"99 356 LINE",
"99 86 LINE",
"25 0 LINE",
"293 0 LINE",
"219 86 LINE",
"219 500 LINE",
"31 433 LINE"
);
}
);
width = 318;
}
);
unicode = 00ED;
},
{
glyphname = icircumflex;
lastChange = "2019-07-27 02:39:24 +0000";
layers = (
{
layerId = master01;
paths = (
{
closed = 1;
nodes = (
"65 552 LINE",
"150 625 LINE",
"233 552 LINE",
"249 552 LINE",
"191 681 LINE",
"108 681 LINE",
"51 552 LINE"
);
},
{
closed = 1;
nodes = (
"99 356 LINE",
"99 86 LINE",
"25 0 LINE",
"293 0 LINE",
"219 86 LINE",
"219 500 LINE",
"31 433 LINE"
);
}
);
width = 318;
},
{
layerId = "E2F25E8D-4609-4642-A608-BE80737248C7";
paths = (
{
closed = 1;
nodes = (
"65 552 LINE",
"150 625 LINE",
"233 552 LINE",
"249 552 LINE",
"191 681 LINE",
"108 681 LINE",
"51 552 LINE"
);
},
{
closed = 1;
nodes = (
"99 356 LINE",
"99 86 LINE",
"25 0 LINE",
"293 0 LINE",
"219 86 LINE",
"219 500 LINE",
"31 433 LINE"
);
}
);
width = 318;
}
);
unicode = 00EE;
},
{
glyphname = idieresis;
lastChange = "2019-07-27 02:39:24 +0000";
layers = (
{
layerId = master01;
paths = (
{
closed = 1;
nodes = (
"93 545 LINE",
"160 622 LINE",
"93 698 LINE",
"25 622 LINE"
);
},
{
closed = 1;
nodes = (
"298 545 LINE",
"365 622 LINE",
"298 698 LINE",
"230 622 LINE"
);
},
{
closed = 1;
nodes = (
"145 356 LINE",
"145 86 LINE",
"71 0 LINE",
"339 0 LINE",
"265 86 LINE",
"265 500 LINE",
"77 433 LINE"
);
}
);
width = 390;
},
{
layerId = "E2F25E8D-4609-4642-A608-BE80737248C7";
paths = (
{
closed = 1;
nodes = (
"93 545 LINE",
"160 622 LINE",
"93 698 LINE",
"25 622 LINE"
);
},
{
closed = 1;
nodes = (
"298 545 LINE",
"365 622 LINE",
"298 698 LINE",
"230 622 LINE"
);
},
{
closed = 1;
nodes = (
"145 356 LINE",
"145 86 LINE",
"71 0 LINE",
"339 0 LINE",
"265 86 LINE",
"265 500 LINE",
"77 433 LINE"
);
}
);
width = 390;
}
);
unicode = 00EF;
},
{
glyphname = igrave;
lastChange = "2019-07-27 02:39:24 +0000";
layers = (
{
layerId = master01;
paths = (
{
closed = 1;
nodes = (
"162 681 LINE",
"36 681 LINE",
"165 552 LINE",
"180 552 LINE"
);
},
{
closed = 1;
nodes = (
"99 356 LINE",
"99 86 LINE",
"25 0 LINE",
"293 0 LINE",
"219 86 LINE",
"219 500 LINE",
"31 433 LINE"
);
}
);
width = 318;
},
{
layerId = "E2F25E8D-4609-4642-A608-BE80737248C7";
paths = (
{
closed = 1;
nodes = (
"162 681 LINE",
"36 681 LINE",
"165 552 LINE",
"180 552 LINE"
);
},
{
closed = 1;
nodes = (
"99 356 LINE",
"99 86 LINE",
"25 0 LINE",
"293 0 LINE",
"219 86 LINE",
"219 500 LINE",
"31 433 LINE"
);
}
);
width = 318;
}
);
unicode = 00EC;
},
{
glyphname = ij;
lastChange = "2019-07-27 02:39:24 +0000";
layers = (
{
layerId = master01;
paths = (
{
closed = 1;
nodes = (
"156 546 LINE",
"241 639 LINE",
"156 731 LINE",
"70 639 LINE"
);
},
{
closed = 1;
nodes = (
"460 546 LINE",
"545 639 LINE",
"460 731 LINE",
"374 639 LINE"
);
},
{
closed = 1;
nodes = (
"99 356 LINE",
"99 86 LINE",
"25 0 LINE",
"293 0 LINE",
"219 86 LINE",
"219 500 LINE",
"31 433 LINE"
);
},
{
closed = 1;
nodes = (
"335 433 LINE",
"403 356 LINE",
"403 -147 LINE",
"403 -147 OFFCURVE",
"401 -198 OFFCURVE",
"386 -222 CURVE",
"393 -225 LINE",
"427 -189 OFFCURVE",
"524 -142 OFFCURVE",
"524 -65 CURVE SMOOTH",
"524 73 LINE",
"523 73 LINE",
"523 500 LINE"
);
}
);
width = 575;
},
{
layerId = "E2F25E8D-4609-4642-A608-BE80737248C7";
paths = (
{
closed = 1;
nodes = (
"156 546 LINE",
"241 639 LINE",
"156 731 LINE",
"70 639 LINE"
);
},
{
closed = 1;
nodes = (
"460 546 LINE",
"545 639 LINE",
"460 731 LINE",
"374 639 LINE"
);
},
{
closed = 1;
nodes = (
"99 356 LINE",
"99 86 LINE",
"25 0 LINE",
"293 0 LINE",
"219 86 LINE",
"219 500 LINE",
"31 433 LINE"
);
},
{
closed = 1;
nodes = (
"335 433 LINE",
"403 356 LINE",
"403 -147 LINE",
"403 -147 OFFCURVE",
"401 -198 OFFCURVE",
"386 -222 CURVE",
"393 -225 LINE",
"427 -189 OFFCURVE",
"524 -142 OFFCURVE",
"524 -65 CURVE SMOOTH",
"524 73 LINE",
"523 73 LINE",
"523 500 LINE"
);
}
);
width = 575;
}
);
unicode = 0133;
},
{
glyphname = j;
lastChange = "2019-07-27 02:39:24 +0000";
layers = (
{
layerId = master01;
paths = (
{
closed = 1;
nodes = (
"145 546 LINE",
"230 639 LINE",
"145 731 LINE",
"59 639 LINE"
);
},
{
closed = 1;
nodes = (
"20 433 LINE",
"88 356 LINE",
"88 -147 LINE",
"88 -147 OFFCURVE",
"86 -198 OFFCURVE",
"71 -222 CURVE",
"78 -225 LINE",
"112 -189 OFFCURVE",
"209 -142 OFFCURVE",
"209 -65 CURVE SMOOTH",
"209 73 LINE",
"208 73 LINE",
"208 500 LINE"
);
}
);
width = 260;
},
{
layerId = "E2F25E8D-4609-4642-A608-BE80737248C7";
paths = (
{
closed = 1;
nodes = (
"145 546 LINE",
"230 639 LINE",
"145 731 LINE",
"59 639 LINE"
);
},
{
closed = 1;
nodes = (
"20 433 LINE",
"88 356 LINE",
"88 -147 LINE",
"88 -147 OFFCURVE",
"86 -198 OFFCURVE",
"71 -222 CURVE",
"78 -225 LINE",
"112 -189 OFFCURVE",
"209 -142 OFFCURVE",
"209 -65 CURVE SMOOTH",
"209 73 LINE",
"208 73 LINE",
"208 500 LINE"
);
}
);
width = 260;
}
);
unicode = 006A;
},
{
glyphname = k;
lastChange = "2019-07-27 02:39:24 +0000";
layers = (
{
layerId = master01;
paths = (
{
closed = 1;
nodes = (
"26 653 LINE",
"94 576 LINE",
"94 86 LINE",
"20 0 LINE",
"288 0 LINE",
"214 86 LINE",
"214 233 LINE",
"374 44 LINE",
"402 0 LINE",
"579 0 LINE",
"579 9 LINE",
"498 72 LINE",
"304 292 LINE",
"448 422 LINE",
"552 483 LINE",
"552 490 LINE",
"337 490 LINE",
"380 411 LINE",
"214 242 LINE",
"214 710 LINE"
);
}
);
width = 579;
},
{
layerId = "E2F25E8D-4609-4642-A608-BE80737248C7";
paths = (
{
closed = 1;
nodes = (
"26 653 LINE",
"94 576 LINE",
"94 86 LINE",
"20 0 LINE",
"288 0 LINE",
"214 86 LINE",
"214 233 LINE",
"374 44 LINE",
"402 0 LINE",
"579 0 LINE",
"579 9 LINE",
"498 72 LINE",
"304 292 LINE",
"448 422 LINE",
"552 483 LINE",
"552 490 LINE",
"337 490 LINE",
"380 411 LINE",
"214 242 LINE",
"214 710 LINE"
);
}
);
width = 579;
}
);
unicode = 006B;
},
{
glyphname = l;
lastChange = "2019-07-27 03:12:31 +0000";
layers = (
{
layerId = master01;
paths = (
{
closed = 1;
nodes = (
"20 0 LINE",
"288 0 LINE",
"214 86 LINE",
"214 710 LINE",
"26 653 LINE",
"94 576 LINE",
"94 538 LINE",
"26 517 LINE",
"94 440 LINE",
"94 86 LINE"
);
}
);
width = 308;
},
{
layerId = "E2F25E8D-4609-4642-A608-BE80737248C7";
paths = (
{
closed = 1;
nodes = (
"40 0 LINE",
"268 0 LINE",
"174 56 LINE",
"174 710 LINE",
"46 653 LINE",
"134 606 LINE",
"134 558 LINE",
"46 517 LINE",
"134 480 LINE",
"134 56 LINE"
);
}
);
width = 308;
}
);
unicode = 006C;
},
{
glyphname = lacute;
lastChange = "2019-07-27 02:39:24 +0000";
layers = (
{
layerId = master01;
paths = (
{
closed = 1;
nodes = (
"251 869 LINE",
"125 869 LINE",
"107 740 LINE",
"122 740 LINE"
);
},
{
closed = 1;
nodes = (
"20 0 LINE",
"288 0 LINE",
"214 86 LINE",
"214 710 LINE",
"26 653 LINE",
"94 576 LINE",
"94 538 LINE",
"26 517 LINE",
"94 440 LINE",
"94 86 LINE"
);
}
);
width = 308;
},
{
layerId = "E2F25E8D-4609-4642-A608-BE80737248C7";
paths = (
{
closed = 1;
nodes = (
"251 869 LINE",
"125 869 LINE",
"107 740 LINE",
"122 740 LINE"
);
},
{
closed = 1;
nodes = (
"20 0 LINE",
"288 0 LINE",
"214 86 LINE",
"214 710 LINE",
"26 653 LINE",
"94 576 LINE",
"94 538 LINE",
"26 517 LINE",
"94 440 LINE",
"94 86 LINE"
);
}
);
width = 308;
}
);
unicode = 013A;
},
{
glyphname = lcaron;
lastChange = "2019-07-27 02:39:24 +0000";
layers = (
{
layerId = master01;
paths = (
{
closed = 1;
nodes = (
"314 464 OFFCURVE",
"439 516 OFFCURVE",
"439 614 CURVE SMOOTH",
"439 648 OFFCURVE",
"391 691 OFFCURVE",
"358 711 CURVE",
"275 626 LINE",
"314 595 LINE",
"327 581 OFFCURVE",
"346 569 OFFCURVE",
"346 543 CURVE SMOOTH",
"346 505 OFFCURVE",
"312 488 OFFCURVE",
"278 469 CURVE",
"292 459 LINE"
);
},
{
closed = 1;
nodes = (
"20 0 LINE",
"288 0 LINE",
"214 86 LINE",
"214 710 LINE",
"26 653 LINE",
"94 576 LINE",
"94 538 LINE",
"26 517 LINE",
"94 440 LINE",
"94 86 LINE"
);
}
);
width = 464;
},
{
layerId = "E2F25E8D-4609-4642-A608-BE80737248C7";
paths = (
{
closed = 1;
nodes = (
"314 464 OFFCURVE",
"439 516 OFFCURVE",
"439 614 CURVE SMOOTH",
"439 648 OFFCURVE",
"391 691 OFFCURVE",
"358 711 CURVE",
"275 626 LINE",
"314 595 LINE",
"327 581 OFFCURVE",
"346 569 OFFCURVE",
"346 543 CURVE SMOOTH",
"346 505 OFFCURVE",
"312 488 OFFCURVE",
"278 469 CURVE",
"292 459 LINE"
);
},
{
closed = 1;
nodes = (
"20 0 LINE",
"288 0 LINE",
"214 86 LINE",
"214 710 LINE",
"26 653 LINE",
"94 576 LINE",
"94 538 LINE",
"26 517 LINE",
"94 440 LINE",
"94 86 LINE"
);
}
);
width = 464;
}
);
unicode = 013E;
},
{
glyphname = ldot;
lastChange = "2019-07-27 02:39:24 +0000";
layers = (
{
layerId = master01;
paths = (
{
closed = 1;
nodes = (
"20 0 LINE",
"288 0 LINE",
"214 86 LINE",
"214 710 LINE",
"26 653 LINE",
"94 576 LINE",
"94 538 LINE",
"26 517 LINE",
"94 440 LINE",
"94 86 LINE"
);
},
{
closed = 1;
nodes = (
"371 212 LINE",
"456 304 LINE",
"371 397 LINE",
"285 304 LINE"
);
}
);
width = 437;
},
{
layerId = "E2F25E8D-4609-4642-A608-BE80737248C7";
paths = (
{
closed = 1;
nodes = (
"20 0 LINE",
"288 0 LINE",
"214 86 LINE",
"214 710 LINE",
"26 653 LINE",
"94 576 LINE",
"94 538 LINE",
"26 517 LINE",
"94 440 LINE",
"94 86 LINE"
);
},
{
closed = 1;
nodes = (
"371 212 LINE",
"456 304 LINE",
"371 397 LINE",
"285 304 LINE"
);
}
);
width = 437;
}
);
unicode = 0140;
},
{
glyphname = lslash;
lastChange = "2019-07-27 02:39:24 +0000";
layers = (
{
layerId = master01;
paths = (
{
closed = 1;
nodes = (
"208 356 LINE",
"316 401 LINE",
"316 465 LINE",
"208 420 LINE",
"208 710 LINE",
"20 653 LINE",
"88 576 LINE",
"88 538 LINE",
"20 517 LINE",
"88 440 LINE",
"88 369 LINE",
"-5 330 LINE",
"-5 268 LINE",
"88 307 LINE",
"88 86 LINE",
"14 0 LINE",
"282 0 LINE",
"208 86 LINE"
);
}
);
width = 311;
},
{
layerId = "E2F25E8D-4609-4642-A608-BE80737248C7";
paths = (
{
closed = 1;
nodes = (
"208 356 LINE",
"316 401 LINE",
"316 465 LINE",
"208 420 LINE",
"208 710 LINE",
"20 653 LINE",
"88 576 LINE",
"88 538 LINE",
"20 517 LINE",
"88 440 LINE",
"88 369 LINE",
"-5 330 LINE",
"-5 268 LINE",
"88 307 LINE",
"88 86 LINE",
"14 0 LINE",
"282 0 LINE",
"208 86 LINE"
);
}
);
width = 311;
}
);
unicode = 0142;
},
{
glyphname = m;
lastChange = "2019-07-27 02:39:24 +0000";
layers = (
{
layerId = master01;
paths = (
{
closed = 1;
nodes = (
"26 433 LINE",
"94 356 LINE",
"94 86 LINE",
"20 0 LINE",
"288 0 LINE",
"214 86 LINE",
"214 388 LINE",
"244 420 OFFCURVE",
"273 434 OFFCURVE",
"308 434 CURVE SMOOTH",
"385 434 OFFCURVE",
"396 385 OFFCURVE",
"396 308 CURVE SMOOTH",
"396 85 LINE",
"323 0 LINE",
"591 0 LINE",
"517 86 LINE",
"516 86 LINE",
"516 342 LINE SMOOTH",
"516 356 OFFCURVE",
"515 370 OFFCURVE",
"513 383 CURVE",
"544 418 OFFCURVE",
"574 434 OFFCURVE",
"611 434 CURVE SMOOTH",
"688 434 OFFCURVE",
"699 385 OFFCURVE",
"699 308 CURVE SMOOTH",
"699 85 LINE",
"626 0 LINE",
"894 0 LINE",
"820 86 LINE",
"819 86 LINE",
"819 342 LINE SMOOTH",
"819 436 OFFCURVE",
"771 502 OFFCURVE",
"669 502 CURVE SMOOTH",
"603 502 OFFCURVE",
"539 462 OFFCURVE",
"504 414 CURVE",
"485 468 OFFCURVE",
"439 502 OFFCURVE",
"366 502 CURVE SMOOTH",
"302 502 OFFCURVE",
"253 472 OFFCURVE",
"214 427 CURVE",
"214 500 LINE"
);
}
);
width = 914;
},
{
layerId = "E2F25E8D-4609-4642-A608-BE80737248C7";
paths = (
{
closed = 1;
nodes = (
"26 433 LINE",
"94 356 LINE",
"94 86 LINE",
"20 0 LINE",
"288 0 LINE",
"214 86 LINE",
"214 388 LINE",
"244 420 OFFCURVE",
"273 434 OFFCURVE",
"308 434 CURVE SMOOTH",
"385 434 OFFCURVE",
"396 385 OFFCURVE",
"396 308 CURVE SMOOTH",
"396 85 LINE",
"323 0 LINE",
"591 0 LINE",
"517 86 LINE",
"516 86 LINE",
"516 342 LINE SMOOTH",
"516 356 OFFCURVE",
"515 370 OFFCURVE",
"513 383 CURVE",
"544 418 OFFCURVE",
"574 434 OFFCURVE",
"611 434 CURVE SMOOTH",
"688 434 OFFCURVE",
"699 385 OFFCURVE",
"699 308 CURVE SMOOTH",
"699 85 LINE",
"626 0 LINE",
"894 0 LINE",
"820 86 LINE",
"819 86 LINE",
"819 342 LINE SMOOTH",
"819 436 OFFCURVE",
"771 502 OFFCURVE",
"669 502 CURVE SMOOTH",
"603 502 OFFCURVE",
"539 462 OFFCURVE",
"504 414 CURVE",
"485 468 OFFCURVE",
"439 502 OFFCURVE",
"366 502 CURVE SMOOTH",
"302 502 OFFCURVE",
"253 472 OFFCURVE",
"214 427 CURVE",
"214 500 LINE"
);
}
);
width = 914;
}
);
unicode = 006D;
},
{
glyphname = n;
lastChange = "2019-07-27 02:39:24 +0000";
layers = (
{
layerId = master01;
paths = (
{
closed = 1;
nodes = (
"531 86 LINE",
"531 342 LINE SMOOTH",
"531 436 OFFCURVE",
"483 502 OFFCURVE",
"381 502 CURVE SMOOTH",
"321 502 OFFCURVE",
"256 471 OFFCURVE",
"216 409 CURVE",
"216 500 LINE",
"28 433 LINE",
"96 356 LINE",
"96 86 LINE",
"20 0 LINE",
"288 0 LINE",
"216 86 LINE",
"216 375 LINE",
"248 418 OFFCURVE",
"286 434 OFFCURVE",
"323 434 CURVE SMOOTH",
"400 434 OFFCURVE",
"411 385 OFFCURVE",
"411 308 CURVE SMOOTH",
"411 86 LINE",
"339 0 LINE",
"607 0 LINE"
);
}
);
width = 627;
},
{
layerId = "E2F25E8D-4609-4642-A608-BE80737248C7";
paths = (
{
closed = 1;
nodes = (
"531 86 LINE",
"531 342 LINE SMOOTH",
"531 436 OFFCURVE",
"483 502 OFFCURVE",
"381 502 CURVE SMOOTH",
"321 502 OFFCURVE",
"256 471 OFFCURVE",
"216 409 CURVE",
"216 500 LINE",
"28 433 LINE",
"96 356 LINE",
"96 86 LINE",
"20 0 LINE",
"288 0 LINE",
"216 86 LINE",
"216 375 LINE",
"248 418 OFFCURVE",
"286 434 OFFCURVE",
"323 434 CURVE SMOOTH",
"400 434 OFFCURVE",
"411 385 OFFCURVE",
"411 308 CURVE SMOOTH",
"411 86 LINE",
"339 0 LINE",
"607 0 LINE"
);
}
);
width = 627;
}
);
unicode = 006E;
},
{
glyphname = nacute;
lastChange = "2019-07-27 02:39:24 +0000";
layers = (
{
layerId = master01;
paths = (
{
closed = 1;
nodes = (
"434 681 LINE",
"308 681 LINE",
"290 552 LINE",
"305 552 LINE"
);
},
{
closed = 1;
nodes = (
"26 433 LINE",
"94 356 LINE",
"94 86 LINE",
"20 0 LINE",
"288 0 LINE",
"214 86 LINE",
"214 375 LINE",
"246 418 OFFCURVE",
"284 434 OFFCURVE",
"321 434 CURVE SMOOTH",
"398 434 OFFCURVE",
"409 385 OFFCURVE",
"409 308 CURVE SMOOTH",
"409 85 LINE",
"336 0 LINE",
"604 0 LINE",
"529 86 LINE",
"529 342 LINE SMOOTH",
"529 436 OFFCURVE",
"481 502 OFFCURVE",
"379 502 CURVE SMOOTH",
"319 502 OFFCURVE",
"254 471 OFFCURVE",
"214 409 CURVE",
"214 500 LINE"
);
}
);
width = 624;
},
{
layerId = "E2F25E8D-4609-4642-A608-BE80737248C7";
paths = (
{
closed = 1;
nodes = (
"434 681 LINE",
"308 681 LINE",
"290 552 LINE",
"305 552 LINE"
);
},
{
closed = 1;
nodes = (
"26 433 LINE",
"94 356 LINE",
"94 86 LINE",
"20 0 LINE",
"288 0 LINE",
"214 86 LINE",
"214 375 LINE",
"246 418 OFFCURVE",
"284 434 OFFCURVE",
"321 434 CURVE SMOOTH",
"398 434 OFFCURVE",
"409 385 OFFCURVE",
"409 308 CURVE SMOOTH",
"409 85 LINE",
"336 0 LINE",
"604 0 LINE",
"529 86 LINE",
"529 342 LINE SMOOTH",
"529 436 OFFCURVE",
"481 502 OFFCURVE",
"379 502 CURVE SMOOTH",
"319 502 OFFCURVE",
"254 471 OFFCURVE",
"214 409 CURVE",
"214 500 LINE"
);
}
);
width = 624;
}
);
unicode = 0144;
},
{
glyphname = ncaron;
lastChange = "2019-07-27 02:39:24 +0000";
layers = (
{
layerId = master01;
paths = (
{
closed = 1;
nodes = (
"230 681 LINE",
"216 681 LINE",
"273 552 LINE",
"356 552 LINE",
"414 681 LINE",
"398 681 LINE",
"315 608 LINE"
);
},
{
closed = 1;
nodes = (
"26 433 LINE",
"94 356 LINE",
"94 86 LINE",
"20 0 LINE",
"288 0 LINE",
"214 86 LINE",
"214 375 LINE",
"246 418 OFFCURVE",
"284 434 OFFCURVE",
"321 434 CURVE SMOOTH",
"398 434 OFFCURVE",
"409 385 OFFCURVE",
"409 308 CURVE SMOOTH",
"409 85 LINE",
"336 0 LINE",
"604 0 LINE",
"530 86 LINE",
"529 86 LINE",
"529 342 LINE SMOOTH",
"529 436 OFFCURVE",
"481 502 OFFCURVE",
"379 502 CURVE SMOOTH",
"319 502 OFFCURVE",
"254 471 OFFCURVE",
"214 409 CURVE",
"214 500 LINE"
);
}
);
width = 624;
},
{
layerId = "E2F25E8D-4609-4642-A608-BE80737248C7";
paths = (
{
closed = 1;
nodes = (
"230 681 LINE",
"216 681 LINE",
"273 552 LINE",
"356 552 LINE",
"414 681 LINE",
"398 681 LINE",
"315 608 LINE"
);
},
{
closed = 1;
nodes = (
"26 433 LINE",
"94 356 LINE",
"94 86 LINE",
"20 0 LINE",
"288 0 LINE",
"214 86 LINE",
"214 375 LINE",
"246 418 OFFCURVE",
"284 434 OFFCURVE",
"321 434 CURVE SMOOTH",
"398 434 OFFCURVE",
"409 385 OFFCURVE",
"409 308 CURVE SMOOTH",
"409 85 LINE",
"336 0 LINE",
"604 0 LINE",
"530 86 LINE",
"529 86 LINE",
"529 342 LINE SMOOTH",
"529 436 OFFCURVE",
"481 502 OFFCURVE",
"379 502 CURVE SMOOTH",
"319 502 OFFCURVE",
"254 471 OFFCURVE",
"214 409 CURVE",
"214 500 LINE"
);
}
);
width = 624;
}
);
unicode = 0148;
},
{
glyphname = ntilde;
lastChange = "2019-07-27 02:39:24 +0000";
layers = (
{
layerId = master01;
paths = (
{
closed = 1;
nodes = (
"196 562 LINE",
"209 584 OFFCURVE",
"223 605 OFFCURVE",
"236 605 CURVE SMOOTH",
"285 605 OFFCURVE",
"335 596 OFFCURVE",
"384 592 CURVE",
"443 695 LINE",
"428 701 LINE",
"413 682 OFFCURVE",
"399 667 OFFCURVE",
"384 667 CURVE SMOOTH",
"338 667 OFFCURVE",
"291 676 OFFCURVE",
"245 680 CURVE",
"182 571 LINE"
);
},
{
closed = 1;
nodes = (
"26 433 LINE",
"94 356 LINE",
"94 86 LINE",
"20 0 LINE",
"288 0 LINE",
"214 86 LINE",
"214 375 LINE",
"246 418 OFFCURVE",
"284 434 OFFCURVE",
"321 434 CURVE SMOOTH",
"398 434 OFFCURVE",
"409 385 OFFCURVE",
"409 308 CURVE SMOOTH",
"409 85 LINE",
"336 0 LINE",
"604 0 LINE",
"530 86 LINE",
"529 86 LINE",
"529 342 LINE SMOOTH",
"529 436 OFFCURVE",
"481 502 OFFCURVE",
"379 502 CURVE SMOOTH",
"319 502 OFFCURVE",
"254 471 OFFCURVE",
"214 409 CURVE",
"214 500 LINE"
);
}
);
width = 624;
},
{
layerId = "E2F25E8D-4609-4642-A608-BE80737248C7";
paths = (
{
closed = 1;
nodes = (
"196 562 LINE",
"209 584 OFFCURVE",
"223 605 OFFCURVE",
"236 605 CURVE SMOOTH",
"285 605 OFFCURVE",
"335 596 OFFCURVE",
"384 592 CURVE",
"443 695 LINE",
"428 701 LINE",
"413 682 OFFCURVE",
"399 667 OFFCURVE",
"384 667 CURVE SMOOTH",
"338 667 OFFCURVE",
"291 676 OFFCURVE",
"245 680 CURVE",
"182 571 LINE"
);
},
{
closed = 1;
nodes = (
"26 433 LINE",
"94 356 LINE",
"94 86 LINE",
"20 0 LINE",
"288 0 LINE",
"214 86 LINE",
"214 375 LINE",
"246 418 OFFCURVE",
"284 434 OFFCURVE",
"321 434 CURVE SMOOTH",
"398 434 OFFCURVE",
"409 385 OFFCURVE",
"409 308 CURVE SMOOTH",
"409 85 LINE",
"336 0 LINE",
"604 0 LINE",
"530 86 LINE",
"529 86 LINE",
"529 342 LINE SMOOTH",
"529 436 OFFCURVE",
"481 502 OFFCURVE",
"379 502 CURVE SMOOTH",
"319 502 OFFCURVE",
"254 471 OFFCURVE",
"214 409 CURVE",
"214 500 LINE"
);
}
);
width = 624;
}
);
unicode = 00F1;
},
{
glyphname = o;
lastChange = "2019-07-27 02:39:24 +0000";
layers = (
{
layerId = master01;
paths = (
{
closed = 1;
nodes = (
"520 387 OFFCURVE",
"445 502 OFFCURVE",
"303 502 CURVE SMOOTH",
"117 502 OFFCURVE",
"30 352 OFFCURVE",
"30 223 CURVE SMOOTH",
"30 103 OFFCURVE",
"105 -12 OFFCURVE",
"247 -12 CURVE SMOOTH",
"433 -12 OFFCURVE",
"520 138 OFFCURVE",
"520 267 CURVE SMOOTH"
);
},
{
closed = 1;
nodes = (
"337 464 OFFCURVE",
"395 332 OFFCURVE",
"395 176 CURVE SMOOTH",
"395 124 OFFCURVE",
"376 26 OFFCURVE",
"302 26 CURVE SMOOTH",
"214 26 OFFCURVE",
"157 158 OFFCURVE",
"157 314 CURVE SMOOTH",
"157 374 OFFCURVE",
"166 464 OFFCURVE",
"249 464 CURVE SMOOTH"
);
}
);
width = 557;
},
{
layerId = "E2F25E8D-4609-4642-A608-BE80737248C7";
paths = (
{
closed = 1;
nodes = (
"520 387 OFFCURVE",
"445 502 OFFCURVE",
"303 502 CURVE SMOOTH",
"117 502 OFFCURVE",
"30 352 OFFCURVE",
"30 223 CURVE SMOOTH",
"30 103 OFFCURVE",
"105 -12 OFFCURVE",
"247 -12 CURVE SMOOTH",
"433 -12 OFFCURVE",
"520 138 OFFCURVE",
"520 267 CURVE SMOOTH"
);
},
{
closed = 1;
nodes = (
"337 464 OFFCURVE",
"395 332 OFFCURVE",
"395 176 CURVE SMOOTH",
"395 124 OFFCURVE",
"376 26 OFFCURVE",
"302 26 CURVE SMOOTH",
"214 26 OFFCURVE",
"157 158 OFFCURVE",
"157 314 CURVE SMOOTH",
"157 374 OFFCURVE",
"166 464 OFFCURVE",
"249 464 CURVE SMOOTH"
);
}
);
width = 557;
}
);
unicode = 006F;
},
{
glyphname = oacute;
lastChange = "2019-07-27 02:39:24 +0000";
layers = (
{
layerId = master01;
paths = (
{
closed = 1;
nodes = (
"371 681 LINE",
"245 681 LINE",
"227 552 LINE",
"242 552 LINE"
);
},
{
closed = 1;
nodes = (
"520 387 OFFCURVE",
"445 502 OFFCURVE",
"303 502 CURVE SMOOTH",
"117 502 OFFCURVE",
"30 352 OFFCURVE",
"30 223 CURVE SMOOTH",
"30 103 OFFCURVE",
"105 -12 OFFCURVE",
"247 -12 CURVE SMOOTH",
"433 -12 OFFCURVE",
"520 138 OFFCURVE",
"520 267 CURVE SMOOTH"
);
},
{
closed = 1;
nodes = (
"337 464 OFFCURVE",
"395 332 OFFCURVE",
"395 176 CURVE SMOOTH",
"395 124 OFFCURVE",
"376 26 OFFCURVE",
"302 26 CURVE SMOOTH",
"214 26 OFFCURVE",
"157 158 OFFCURVE",
"157 314 CURVE SMOOTH",
"157 374 OFFCURVE",
"166 464 OFFCURVE",
"249 464 CURVE SMOOTH"
);
}
);
width = 557;
},
{
layerId = "E2F25E8D-4609-4642-A608-BE80737248C7";
paths = (
{
closed = 1;
nodes = (
"371 681 LINE",
"245 681 LINE",
"227 552 LINE",
"242 552 LINE"
);
},
{
closed = 1;
nodes = (
"520 387 OFFCURVE",
"445 502 OFFCURVE",
"303 502 CURVE SMOOTH",
"117 502 OFFCURVE",
"30 352 OFFCURVE",
"30 223 CURVE SMOOTH",
"30 103 OFFCURVE",
"105 -12 OFFCURVE",
"247 -12 CURVE SMOOTH",
"433 -12 OFFCURVE",
"520 138 OFFCURVE",
"520 267 CURVE SMOOTH"
);
},
{
closed = 1;
nodes = (
"337 464 OFFCURVE",
"395 332 OFFCURVE",
"395 176 CURVE SMOOTH",
"395 124 OFFCURVE",
"376 26 OFFCURVE",
"302 26 CURVE SMOOTH",
"214 26 OFFCURVE",
"157 158 OFFCURVE",
"157 314 CURVE SMOOTH",
"157 374 OFFCURVE",
"166 464 OFFCURVE",
"249 464 CURVE SMOOTH"
);
}
);
width = 557;
}
);
unicode = 00F3;
},
{
glyphname = ocircumflex;
lastChange = "2019-07-27 02:39:24 +0000";
layers = (
{
layerId = master01;
paths = (
{
closed = 1;
nodes = (
"190 552 LINE",
"275 625 LINE",
"358 552 LINE",
"374 552 LINE",
"316 681 LINE",
"233 681 LINE",
"176 552 LINE"
);
},
{
closed = 1;
nodes = (
"520 387 OFFCURVE",
"445 502 OFFCURVE",
"303 502 CURVE SMOOTH",
"117 502 OFFCURVE",
"30 352 OFFCURVE",
"30 223 CURVE SMOOTH",
"30 103 OFFCURVE",
"105 -12 OFFCURVE",
"247 -12 CURVE SMOOTH",
"433 -12 OFFCURVE",
"520 138 OFFCURVE",
"520 267 CURVE SMOOTH"
);
},
{
closed = 1;
nodes = (
"337 464 OFFCURVE",
"395 332 OFFCURVE",
"395 176 CURVE SMOOTH",
"395 124 OFFCURVE",
"376 26 OFFCURVE",
"302 26 CURVE SMOOTH",
"214 26 OFFCURVE",
"157 158 OFFCURVE",
"157 314 CURVE SMOOTH",
"157 374 OFFCURVE",
"166 464 OFFCURVE",
"249 464 CURVE SMOOTH"
);
}
);
width = 557;
},
{
layerId = "E2F25E8D-4609-4642-A608-BE80737248C7";
paths = (
{
closed = 1;
nodes = (
"190 552 LINE",
"275 625 LINE",
"358 552 LINE",
"374 552 LINE",
"316 681 LINE",
"233 681 LINE",
"176 552 LINE"
);
},
{
closed = 1;
nodes = (
"520 387 OFFCURVE",
"445 502 OFFCURVE",
"303 502 CURVE SMOOTH",
"117 502 OFFCURVE",
"30 352 OFFCURVE",
"30 223 CURVE SMOOTH",
"30 103 OFFCURVE",
"105 -12 OFFCURVE",
"247 -12 CURVE SMOOTH",
"433 -12 OFFCURVE",
"520 138 OFFCURVE",
"520 267 CURVE SMOOTH"
);
},
{
closed = 1;
nodes = (
"337 464 OFFCURVE",
"395 332 OFFCURVE",
"395 176 CURVE SMOOTH",
"395 124 OFFCURVE",
"376 26 OFFCURVE",
"302 26 CURVE SMOOTH",
"214 26 OFFCURVE",
"157 158 OFFCURVE",
"157 314 CURVE SMOOTH",
"157 374 OFFCURVE",
"166 464 OFFCURVE",
"249 464 CURVE SMOOTH"
);
}
);
width = 557;
}
);
unicode = 00F4;
},
{
glyphname = odieresis;
lastChange = "2019-07-27 02:39:24 +0000";
layers = (
{
layerId = master01;
paths = (
{
closed = 1;
nodes = (
"169 548 LINE",
"236 625 LINE",
"169 701 LINE",
"101 625 LINE"
);
},
{
closed = 1;
nodes = (
"374 548 LINE",
"441 625 LINE",
"374 701 LINE",
"306 625 LINE"
);
},
{
closed = 1;
nodes = (
"520 387 OFFCURVE",
"445 502 OFFCURVE",
"303 502 CURVE SMOOTH",
"117 502 OFFCURVE",
"30 352 OFFCURVE",
"30 223 CURVE SMOOTH",
"30 103 OFFCURVE",
"105 -12 OFFCURVE",
"247 -12 CURVE SMOOTH",
"433 -12 OFFCURVE",
"520 138 OFFCURVE",
"520 267 CURVE SMOOTH"
);
},
{
closed = 1;
nodes = (
"337 464 OFFCURVE",
"395 332 OFFCURVE",
"395 176 CURVE SMOOTH",
"395 124 OFFCURVE",
"376 26 OFFCURVE",
"302 26 CURVE SMOOTH",
"214 26 OFFCURVE",
"157 158 OFFCURVE",
"157 314 CURVE SMOOTH",
"157 374 OFFCURVE",
"166 464 OFFCURVE",
"249 464 CURVE SMOOTH"
);
}
);
width = 557;
},
{
layerId = "E2F25E8D-4609-4642-A608-BE80737248C7";
paths = (
{
closed = 1;
nodes = (
"169 548 LINE",
"236 625 LINE",
"169 701 LINE",
"101 625 LINE"
);
},
{
closed = 1;
nodes = (
"374 548 LINE",
"441 625 LINE",
"374 701 LINE",
"306 625 LINE"
);
},
{
closed = 1;
nodes = (
"520 387 OFFCURVE",
"445 502 OFFCURVE",
"303 502 CURVE SMOOTH",
"117 502 OFFCURVE",
"30 352 OFFCURVE",
"30 223 CURVE SMOOTH",
"30 103 OFFCURVE",
"105 -12 OFFCURVE",
"247 -12 CURVE SMOOTH",
"433 -12 OFFCURVE",
"520 138 OFFCURVE",
"520 267 CURVE SMOOTH"
);
},
{
closed = 1;
nodes = (
"337 464 OFFCURVE",
"395 332 OFFCURVE",
"395 176 CURVE SMOOTH",
"395 124 OFFCURVE",
"376 26 OFFCURVE",
"302 26 CURVE SMOOTH",
"214 26 OFFCURVE",
"157 158 OFFCURVE",
"157 314 CURVE SMOOTH",
"157 374 OFFCURVE",
"166 464 OFFCURVE",
"249 464 CURVE SMOOTH"
);
}
);
width = 557;
}
);
unicode = 00F6;
},
{
glyphname = ograve;
lastChange = "2019-07-27 02:39:24 +0000";
layers = (
{
layerId = master01;
paths = (
{
closed = 1;
nodes = (
"306 552 LINE",
"288 681 LINE",
"162 681 LINE",
"291 552 LINE"
);
},
{
closed = 1;
nodes = (
"520 387 OFFCURVE",
"445 502 OFFCURVE",
"303 502 CURVE SMOOTH",
"117 502 OFFCURVE",
"30 352 OFFCURVE",
"30 223 CURVE SMOOTH",
"30 103 OFFCURVE",
"105 -12 OFFCURVE",
"247 -12 CURVE SMOOTH",
"433 -12 OFFCURVE",
"520 138 OFFCURVE",
"520 267 CURVE SMOOTH"
);
},
{
closed = 1;
nodes = (
"337 464 OFFCURVE",
"395 332 OFFCURVE",
"395 176 CURVE SMOOTH",
"395 124 OFFCURVE",
"376 26 OFFCURVE",
"302 26 CURVE SMOOTH",
"214 26 OFFCURVE",
"157 158 OFFCURVE",
"157 314 CURVE SMOOTH",
"157 374 OFFCURVE",
"166 464 OFFCURVE",
"249 464 CURVE SMOOTH"
);
}
);
width = 557;
},
{
layerId = "E2F25E8D-4609-4642-A608-BE80737248C7";
paths = (
{
closed = 1;
nodes = (
"306 552 LINE",
"288 681 LINE",
"162 681 LINE",
"291 552 LINE"
);
},
{
closed = 1;
nodes = (
"520 387 OFFCURVE",
"445 502 OFFCURVE",
"303 502 CURVE SMOOTH",
"117 502 OFFCURVE",
"30 352 OFFCURVE",
"30 223 CURVE SMOOTH",
"30 103 OFFCURVE",
"105 -12 OFFCURVE",
"247 -12 CURVE SMOOTH",
"433 -12 OFFCURVE",
"520 138 OFFCURVE",
"520 267 CURVE SMOOTH"
);
},
{
closed = 1;
nodes = (
"337 464 OFFCURVE",
"395 332 OFFCURVE",
"395 176 CURVE SMOOTH",
"395 124 OFFCURVE",
"376 26 OFFCURVE",
"302 26 CURVE SMOOTH",
"214 26 OFFCURVE",
"157 158 OFFCURVE",
"157 314 CURVE SMOOTH",
"157 374 OFFCURVE",
"166 464 OFFCURVE",
"249 464 CURVE SMOOTH"
);
}
);
width = 557;
}
);
unicode = 00F2;
},
{
glyphname = oslash;
lastChange = "2019-07-27 02:39:24 +0000";
layers = (
{
layerId = master01;
paths = (
{
closed = 1;
nodes = (
"466 564 LINE",
"409 481 LINE",
"381 494 OFFCURVE",
"349 502 OFFCURVE",
"312 502 CURVE SMOOTH",
"126 502 OFFCURVE",
"39 352 OFFCURVE",
"39 223 CURVE SMOOTH",
"39 156 OFFCURVE",
"63 90 OFFCURVE",
"109 45 CURVE",
"35 -62 LINE",
"102 -62 LINE",
"153 12 LINE",
"182 -3 OFFCURVE",
"216 -12 OFFCURVE",
"256 -12 CURVE SMOOTH",
"442 -12 OFFCURVE",
"529 138 OFFCURVE",
"529 267 CURVE SMOOTH",
"529 337 OFFCURVE",
"504 405 OFFCURVE",
"454 450 CURVE",
"533 564 LINE"
);
},
{
closed = 1;
nodes = (
"173 204 OFFCURVE",
"166 257 OFFCURVE",
"166 314 CURVE SMOOTH",
"166 374 OFFCURVE",
"175 464 OFFCURVE",
"258 464 CURVE SMOOTH",
"296 464 OFFCURVE",
"328 440 OFFCURVE",
"353 399 CURVE",
"187 159 LINE"
);
},
{
closed = 1;
nodes = (
"395 294 OFFCURVE",
"404 237 OFFCURVE",
"404 176 CURVE SMOOTH",
"404 124 OFFCURVE",
"385 26 OFFCURVE",
"311 26 CURVE SMOOTH",
"271 26 OFFCURVE",
"237 54 OFFCURVE",
"212 98 CURVE",
"379 341 LINE"
);
}
);
width = 563;
},
{
layerId = "E2F25E8D-4609-4642-A608-BE80737248C7";
paths = (
{
closed = 1;
nodes = (
"466 564 LINE",
"409 481 LINE",
"381 494 OFFCURVE",
"349 502 OFFCURVE",
"312 502 CURVE SMOOTH",
"126 502 OFFCURVE",
"39 352 OFFCURVE",
"39 223 CURVE SMOOTH",
"39 156 OFFCURVE",
"63 90 OFFCURVE",
"109 45 CURVE",
"35 -62 LINE",
"102 -62 LINE",
"153 12 LINE",
"182 -3 OFFCURVE",
"216 -12 OFFCURVE",
"256 -12 CURVE SMOOTH",
"442 -12 OFFCURVE",
"529 138 OFFCURVE",
"529 267 CURVE SMOOTH",
"529 337 OFFCURVE",
"504 405 OFFCURVE",
"454 450 CURVE",
"533 564 LINE"
);
},
{
closed = 1;
nodes = (
"173 204 OFFCURVE",
"166 257 OFFCURVE",
"166 314 CURVE SMOOTH",
"166 374 OFFCURVE",
"175 464 OFFCURVE",
"258 464 CURVE SMOOTH",
"296 464 OFFCURVE",
"328 440 OFFCURVE",
"353 399 CURVE",
"187 159 LINE"
);
},
{
closed = 1;
nodes = (
"395 294 OFFCURVE",
"404 237 OFFCURVE",
"404 176 CURVE SMOOTH",
"404 124 OFFCURVE",
"385 26 OFFCURVE",
"311 26 CURVE SMOOTH",
"271 26 OFFCURVE",
"237 54 OFFCURVE",
"212 98 CURVE",
"379 341 LINE"
);
}
);
width = 563;
}
);
unicode = 00F8;
},
{
glyphname = otilde;
lastChange = "2019-07-27 02:39:24 +0000";
layers = (
{
layerId = master01;
paths = (
{
closed = 1;
nodes = (
"198 648 LINE",
"135 539 LINE",
"149 530 LINE",
"189 573 LINE",
"337 560 LINE",
"396 663 LINE",
"381 669 LINE",
"337 635 LINE"
);
},
{
closed = 1;
nodes = (
"520 387 OFFCURVE",
"445 502 OFFCURVE",
"303 502 CURVE SMOOTH",
"117 502 OFFCURVE",
"30 352 OFFCURVE",
"30 223 CURVE SMOOTH",
"30 103 OFFCURVE",
"105 -12 OFFCURVE",
"247 -12 CURVE SMOOTH",
"433 -12 OFFCURVE",
"520 138 OFFCURVE",
"520 267 CURVE SMOOTH"
);
},
{
closed = 1;
nodes = (
"337 464 OFFCURVE",
"395 332 OFFCURVE",
"395 176 CURVE SMOOTH",
"395 124 OFFCURVE",
"376 26 OFFCURVE",
"302 26 CURVE SMOOTH",
"214 26 OFFCURVE",
"157 158 OFFCURVE",
"157 314 CURVE SMOOTH",
"157 374 OFFCURVE",
"166 464 OFFCURVE",
"249 464 CURVE SMOOTH"
);
}
);
width = 557;
},
{
layerId = "E2F25E8D-4609-4642-A608-BE80737248C7";
paths = (
{
closed = 1;
nodes = (
"198 648 LINE",
"135 539 LINE",
"149 530 LINE",
"189 573 LINE",
"337 560 LINE",
"396 663 LINE",
"381 669 LINE",
"337 635 LINE"
);
},
{
closed = 1;
nodes = (
"520 387 OFFCURVE",
"445 502 OFFCURVE",
"303 502 CURVE SMOOTH",
"117 502 OFFCURVE",
"30 352 OFFCURVE",
"30 223 CURVE SMOOTH",
"30 103 OFFCURVE",
"105 -12 OFFCURVE",
"247 -12 CURVE SMOOTH",
"433 -12 OFFCURVE",
"520 138 OFFCURVE",
"520 267 CURVE SMOOTH"
);
},
{
closed = 1;
nodes = (
"337 464 OFFCURVE",
"395 332 OFFCURVE",
"395 176 CURVE SMOOTH",
"395 124 OFFCURVE",
"376 26 OFFCURVE",
"302 26 CURVE SMOOTH",
"214 26 OFFCURVE",
"157 158 OFFCURVE",
"157 314 CURVE SMOOTH",
"157 374 OFFCURVE",
"166 464 OFFCURVE",
"249 464 CURVE SMOOTH"
);
}
);
width = 557;
}
);
unicode = 00F5;
},
{
glyphname = oe;
lastChange = "2019-07-27 02:39:24 +0000";
layers = (
{
layerId = master01;
paths = (
{
closed = 1;
nodes = (
"775 135 OFFCURVE",
"713 101 OFFCURVE",
"648 101 CURVE SMOOTH",
"579 101 OFFCURVE",
"521 144 OFFCURVE",
"505 252 CURVE",
"505 257 OFFCURVE",
"506 262 OFFCURVE",
"506 267 CURVE SMOOTH",
"506 273 OFFCURVE",
"505 278 OFFCURVE",
"505 284 CURVE",
"808 284 LINE",
"808 421 OFFCURVE",
"734 502 OFFCURVE",
"620 502 CURVE SMOOTH",
"549 502 OFFCURVE",
"494 471 OFFCURVE",
"456 425 CURVE",
"422 471 OFFCURVE",
"369 502 OFFCURVE",
"299 502 CURVE SMOOTH",
"119 502 OFFCURVE",
"35 352 OFFCURVE",
"35 223 CURVE SMOOTH",
"35 103 OFFCURVE",
"106 -12 OFFCURVE",
"246 -12 CURVE SMOOTH",
"329 -12 OFFCURVE",
"391 21 OFFCURVE",
"434 69 CURVE",
"467 21 OFFCURVE",
"518 -12 OFFCURVE",
"583 -12 CURVE SMOOTH",
"696 -12 OFFCURVE",
"769 80 OFFCURVE",
"803 171 CURVE",
"789 177 LINE"
);
},
{
closed = 1;
nodes = (
"501 320 LINE",
"502 380 OFFCURVE",
"527 472 OFFCURVE",
"598 472 CURVE SMOOTH",
"641 472 OFFCURVE",
"683 426 OFFCURVE",
"680 310 CURVE",
"502 310 LINE"
);
},
{
closed = 1;
nodes = (
"332 464 OFFCURVE",
"387 332 OFFCURVE",
"387 176 CURVE SMOOTH",
"387 124 OFFCURVE",
"369 26 OFFCURVE",
"298 26 CURVE SMOOTH",
"215 26 OFFCURVE",
"161 158 OFFCURVE",
"161 314 CURVE SMOOTH",
"161 374 OFFCURVE",
"169 464 OFFCURVE",
"248 464 CURVE SMOOTH"
);
}
);
width = 837;
},
{
layerId = "E2F25E8D-4609-4642-A608-BE80737248C7";
paths = (
{
closed = 1;
nodes = (
"775 135 OFFCURVE",
"713 101 OFFCURVE",
"648 101 CURVE SMOOTH",
"579 101 OFFCURVE",
"521 144 OFFCURVE",
"505 252 CURVE",
"505 257 OFFCURVE",
"506 262 OFFCURVE",
"506 267 CURVE SMOOTH",
"506 273 OFFCURVE",
"505 278 OFFCURVE",
"505 284 CURVE",
"808 284 LINE",
"808 421 OFFCURVE",
"734 502 OFFCURVE",
"620 502 CURVE SMOOTH",
"549 502 OFFCURVE",
"494 471 OFFCURVE",
"456 425 CURVE",
"422 471 OFFCURVE",
"369 502 OFFCURVE",
"299 502 CURVE SMOOTH",
"119 502 OFFCURVE",
"35 352 OFFCURVE",
"35 223 CURVE SMOOTH",
"35 103 OFFCURVE",
"106 -12 OFFCURVE",
"246 -12 CURVE SMOOTH",
"329 -12 OFFCURVE",
"391 21 OFFCURVE",
"434 69 CURVE",
"467 21 OFFCURVE",
"518 -12 OFFCURVE",
"583 -12 CURVE SMOOTH",
"696 -12 OFFCURVE",
"769 80 OFFCURVE",
"803 171 CURVE",
"789 177 LINE"
);
},
{
closed = 1;
nodes = (
"501 320 LINE",
"502 380 OFFCURVE",
"527 472 OFFCURVE",
"598 472 CURVE SMOOTH",
"641 472 OFFCURVE",
"683 426 OFFCURVE",
"680 310 CURVE",
"502 310 LINE"
);
},
{
closed = 1;
nodes = (
"332 464 OFFCURVE",
"387 332 OFFCURVE",
"387 176 CURVE SMOOTH",
"387 124 OFFCURVE",
"369 26 OFFCURVE",
"298 26 CURVE SMOOTH",
"215 26 OFFCURVE",
"161 158 OFFCURVE",
"161 314 CURVE SMOOTH",
"161 374 OFFCURVE",
"169 464 OFFCURVE",
"248 464 CURVE SMOOTH"
);
}
);
width = 837;
}
);
unicode = 0153;
},
{
glyphname = p;
lastChange = "2019-07-27 02:39:24 +0000";
layers = (
{
layerId = master01;
paths = (
{
closed = 1;
nodes = (
"26 454 LINE",
"94 377 LINE",
"94 -129 LINE",
"20 -215 LINE",
"307 -215 LINE",
"214 -129 LINE",
"214 3 LINE",
"251 -5 OFFCURVE",
"286 -9 OFFCURVE",
"307 -9 CURVE SMOOTH",
"498 -9 OFFCURVE",
"567 154 OFFCURVE",
"567 265 CURVE SMOOTH",
"567 385 OFFCURVE",
"497 500 OFFCURVE",
"367 500 CURVE SMOOTH",
"294 500 OFFCURVE",
"250 467 OFFCURVE",
"214 425 CURVE",
"214 511 LINE"
);
},
{
closed = 1;
nodes = (
"244 417 OFFCURVE",
"270 426 OFFCURVE",
"297 426 CURVE SMOOTH",
"383 426 OFFCURVE",
"449 330 OFFCURVE",
"449 174 CURVE SMOOTH",
"449 104 OFFCURVE",
"434 35 OFFCURVE",
"346 35 CURVE SMOOTH",
"291 35 OFFCURVE",
"243 70 OFFCURVE",
"214 103 CURVE",
"214 398 LINE"
);
}
);
width = 604;
},
{
layerId = "E2F25E8D-4609-4642-A608-BE80737248C7";
paths = (
{
closed = 1;
nodes = (
"26 454 LINE",
"94 377 LINE",
"94 -129 LINE",
"20 -215 LINE",
"307 -215 LINE",
"214 -129 LINE",
"214 3 LINE",
"251 -5 OFFCURVE",
"286 -9 OFFCURVE",
"307 -9 CURVE SMOOTH",
"498 -9 OFFCURVE",
"567 154 OFFCURVE",
"567 265 CURVE SMOOTH",
"567 385 OFFCURVE",
"497 500 OFFCURVE",
"367 500 CURVE SMOOTH",
"294 500 OFFCURVE",
"250 467 OFFCURVE",
"214 425 CURVE",
"214 511 LINE"
);
},
{
closed = 1;
nodes = (
"244 417 OFFCURVE",
"270 426 OFFCURVE",
"297 426 CURVE SMOOTH",
"383 426 OFFCURVE",
"449 330 OFFCURVE",
"449 174 CURVE SMOOTH",
"449 104 OFFCURVE",
"434 35 OFFCURVE",
"346 35 CURVE SMOOTH",
"291 35 OFFCURVE",
"243 70 OFFCURVE",
"214 103 CURVE",
"214 398 LINE"
);
}
);
width = 604;
}
);
unicode = 0070;
},
{
glyphname = thorn;
lastChange = "2019-07-27 02:39:24 +0000";
layers = (
{
layerId = master01;
paths = (
{
closed = 1;
nodes = (
"26 653 LINE",
"94 576 LINE",
"94 -129 LINE",
"20 -215 LINE",
"307 -215 LINE",
"214 -129 LINE",
"214 3 LINE",
"251 -5 OFFCURVE",
"286 -9 OFFCURVE",
"307 -9 CURVE SMOOTH",
"498 -9 OFFCURVE",
"567 154 OFFCURVE",
"567 265 CURVE SMOOTH",
"567 385 OFFCURVE",
"497 500 OFFCURVE",
"367 500 CURVE SMOOTH",
"294 500 OFFCURVE",
"250 467 OFFCURVE",
"214 425 CURVE",
"214 710 LINE"
);
},
{
closed = 1;
nodes = (
"244 417 OFFCURVE",
"270 426 OFFCURVE",
"297 426 CURVE SMOOTH",
"383 426 OFFCURVE",
"449 330 OFFCURVE",
"449 174 CURVE SMOOTH",
"449 104 OFFCURVE",
"434 35 OFFCURVE",
"346 35 CURVE SMOOTH",
"291 35 OFFCURVE",
"243 70 OFFCURVE",
"214 103 CURVE",
"214 398 LINE"
);
}
);
width = 604;
},
{
layerId = "E2F25E8D-4609-4642-A608-BE80737248C7";
paths = (
{
closed = 1;
nodes = (
"26 653 LINE",
"94 576 LINE",
"94 -129 LINE",
"20 -215 LINE",
"307 -215 LINE",
"214 -129 LINE",
"214 3 LINE",
"251 -5 OFFCURVE",
"286 -9 OFFCURVE",
"307 -9 CURVE SMOOTH",
"498 -9 OFFCURVE",
"567 154 OFFCURVE",
"567 265 CURVE SMOOTH",
"567 385 OFFCURVE",
"497 500 OFFCURVE",
"367 500 CURVE SMOOTH",
"294 500 OFFCURVE",
"250 467 OFFCURVE",
"214 425 CURVE",
"214 710 LINE"
);
},
{
closed = 1;
nodes = (
"244 417 OFFCURVE",
"270 426 OFFCURVE",
"297 426 CURVE SMOOTH",
"383 426 OFFCURVE",
"449 330 OFFCURVE",
"449 174 CURVE SMOOTH",
"449 104 OFFCURVE",
"434 35 OFFCURVE",
"346 35 CURVE SMOOTH",
"291 35 OFFCURVE",
"243 70 OFFCURVE",
"214 103 CURVE",
"214 398 LINE"
);
}
);
width = 604;
}
);
unicode = 00FE;
},
{
glyphname = q;
lastChange = "2019-07-27 02:39:24 +0000";
layers = (
{
layerId = master01;
paths = (
{
closed = 1;
nodes = (
"572 -215 LINE",
"498 -129 LINE",
"498 500 LINE",
"407 478 LINE",
"371 486 OFFCURVE",
"343 490 OFFCURVE",
"294 490 CURVE SMOOTH",
"112 490 OFFCURVE",
"30 354 OFFCURVE",
"30 225 CURVE SMOOTH",
"30 105 OFFCURVE",
"94 -10 OFFCURVE",
"225 -10 CURVE SMOOTH",
"288 -10 OFFCURVE",
"342 35 OFFCURVE",
"378 91 CURVE",
"378 -129 LINE",
"285 -215 LINE"
);
},
{
closed = 1;
nodes = (
"358 109 OFFCURVE",
"339 100 OFFCURVE",
"303 100 CURVE SMOOTH",
"218 100 OFFCURVE",
"149 160 OFFCURVE",
"149 316 CURVE SMOOTH",
"149 376 OFFCURVE",
"167 455 OFFCURVE",
"255 455 CURVE SMOOTH",
"307 455 OFFCURVE",
"348 426 OFFCURVE",
"378 394 CURVE",
"378 124 LINE"
);
}
);
width = 557;
},
{
layerId = "E2F25E8D-4609-4642-A608-BE80737248C7";
paths = (
{
closed = 1;
nodes = (
"572 -215 LINE",
"498 -129 LINE",
"498 500 LINE",
"407 478 LINE",
"371 486 OFFCURVE",
"343 490 OFFCURVE",
"294 490 CURVE SMOOTH",
"112 490 OFFCURVE",
"30 354 OFFCURVE",
"30 225 CURVE SMOOTH",
"30 105 OFFCURVE",
"94 -10 OFFCURVE",
"225 -10 CURVE SMOOTH",
"288 -10 OFFCURVE",
"342 35 OFFCURVE",
"378 91 CURVE",
"378 -129 LINE",
"285 -215 LINE"
);
},
{
closed = 1;
nodes = (
"358 109 OFFCURVE",
"339 100 OFFCURVE",
"303 100 CURVE SMOOTH",
"218 100 OFFCURVE",
"149 160 OFFCURVE",
"149 316 CURVE SMOOTH",
"149 376 OFFCURVE",
"167 455 OFFCURVE",
"255 455 CURVE SMOOTH",
"307 455 OFFCURVE",
"348 426 OFFCURVE",
"378 394 CURVE",
"378 124 LINE"
);
}
);
width = 557;
}
);
unicode = 0071;
},
{
glyphname = r;
lastChange = "2019-07-27 02:39:24 +0000";
layers = (
{
layerId = master01;
paths = (
{
closed = 1;
nodes = (
"445 490 LINE",
"31 490 LINE",
"99 413 LINE",
"99 86 LINE",
"25 0 LINE",
"312 0 LINE",
"219 86 LINE",
"219 301 LINE SMOOTH",
"219 403 OFFCURVE",
"219 453 OFFCURVE",
"288 453 CURVE SMOOTH",
"334 453 OFFCURVE",
"393 418 OFFCURVE",
"437 313 CURVE",
"445 313 LINE"
);
}
);
width = 460;
},
{
layerId = "E2F25E8D-4609-4642-A608-BE80737248C7";
paths = (
{
closed = 1;
nodes = (
"445 490 LINE",
"31 490 LINE",
"99 413 LINE",
"99 86 LINE",
"25 0 LINE",
"312 0 LINE",
"219 86 LINE",
"219 301 LINE SMOOTH",
"219 403 OFFCURVE",
"219 453 OFFCURVE",
"288 453 CURVE SMOOTH",
"334 453 OFFCURVE",
"393 418 OFFCURVE",
"437 313 CURVE",
"445 313 LINE"
);
}
);
width = 460;
}
);
unicode = 0072;
},
{
glyphname = racute;
lastChange = "2019-07-27 02:39:24 +0000";
layers = (
{
layerId = master01;
paths = (
{
closed = 1;
nodes = (
"230 552 LINE",
"359 681 LINE",
"233 681 LINE",
"215 552 LINE"
);
},
{
closed = 1;
nodes = (
"445 490 LINE",
"31 490 LINE",
"99 413 LINE",
"99 86 LINE",
"25 0 LINE",
"312 0 LINE",
"219 86 LINE",
"219 301 LINE SMOOTH",
"219 403 OFFCURVE",
"219 453 OFFCURVE",
"288 453 CURVE SMOOTH",
"334 453 OFFCURVE",
"393 418 OFFCURVE",
"437 313 CURVE",
"445 313 LINE"
);
}
);
width = 460;
},
{
layerId = "E2F25E8D-4609-4642-A608-BE80737248C7";
paths = (
{
closed = 1;
nodes = (
"230 552 LINE",
"359 681 LINE",
"233 681 LINE",
"215 552 LINE"
);
},
{
closed = 1;
nodes = (
"445 490 LINE",
"31 490 LINE",
"99 413 LINE",
"99 86 LINE",
"25 0 LINE",
"312 0 LINE",
"219 86 LINE",
"219 301 LINE SMOOTH",
"219 403 OFFCURVE",
"219 453 OFFCURVE",
"288 453 CURVE SMOOTH",
"334 453 OFFCURVE",
"393 418 OFFCURVE",
"437 313 CURVE",
"445 313 LINE"
);
}
);
width = 460;
}
);
unicode = 0155;
},
{
glyphname = rcaron;
lastChange = "2019-07-27 02:39:24 +0000";
layers = (
{
layerId = master01;
paths = (
{
closed = 1;
nodes = (
"216 552 LINE",
"299 552 LINE",
"357 681 LINE",
"341 681 LINE",
"258 608 LINE",
"173 681 LINE",
"159 681 LINE"
);
},
{
closed = 1;
nodes = (
"445 490 LINE",
"31 490 LINE",
"99 413 LINE",
"99 86 LINE",
"25 0 LINE",
"312 0 LINE",
"219 86 LINE",
"219 301 LINE SMOOTH",
"219 403 OFFCURVE",
"219 453 OFFCURVE",
"288 453 CURVE SMOOTH",
"334 453 OFFCURVE",
"393 418 OFFCURVE",
"437 313 CURVE",
"445 313 LINE"
);
}
);
width = 460;
},
{
layerId = "E2F25E8D-4609-4642-A608-BE80737248C7";
paths = (
{
closed = 1;
nodes = (
"216 552 LINE",
"299 552 LINE",
"357 681 LINE",
"341 681 LINE",
"258 608 LINE",
"173 681 LINE",
"159 681 LINE"
);
},
{
closed = 1;
nodes = (
"445 490 LINE",
"31 490 LINE",
"99 413 LINE",
"99 86 LINE",
"25 0 LINE",
"312 0 LINE",
"219 86 LINE",
"219 301 LINE SMOOTH",
"219 403 OFFCURVE",
"219 453 OFFCURVE",
"288 453 CURVE SMOOTH",
"334 453 OFFCURVE",
"393 418 OFFCURVE",
"437 313 CURVE",
"445 313 LINE"
);
}
);
width = 460;
}
);
unicode = 0159;
},
